<?xml version="1.0" encoding="utf-8"?>
<!-- Generator: Adobe Illustrator 25.1.0, SVG Export Plug-In . SVG Version: 6.00 Build 0)  -->
<svg version="1.1" xmlns="http://www.w3.org/2000/svg" xmlns:xlink="http://www.w3.org/1999/xlink" x="0px" y="0px" width="368px"
	 height="312.9px" viewBox="0 0 368 312.9" style="enable-background:new 0 0 368 312.9;" xml:space="preserve">
<style type="text/css">
	.st0{fill:#F6F7F9;}
	.st1{fill:#383171;}
	.st2{fill:none;}
	.st3{fill:#181530;}
	.st4{display:none;}
	.st5{display:inline;}
	.st6{fill-rule:evenodd;clip-rule:evenodd;fill:#383171;}
	.st7{fill-rule:evenodd;clip-rule:evenodd;fill:#FFFFFF;}
</style>
<g id="_1">
	<ellipse class="st0" cx="210.3" cy="155.3" rx="140.3" ry="138"/>
	<path class="st1" d="M368,155.2L368,155.2c-0.5-63-38.7-119.6-97-143.5c-10.5-4.3-21.4-7.5-32.5-9.4c4,1,7.8,2.3,11.7,3.8
		c10,3.8,19.7,8.5,28.9,14c9.2,5.4,18,11.6,26.1,18.6c4.1,3.5,7.9,7.4,11.3,11.5c1.7,2.1,3.2,4.5,4.4,6.9c0,0,0,0.1,0,0.1
		c2.7,3,5.2,6.1,7.6,9.3l0.4,0.5c0.5,0.7,1,1.3,1.4,2l0.5,0.7c0.5,0.6,0.9,1.3,1.3,1.9l0.5,0.8c0.4,0.6,0.9,1.3,1.3,1.9l0.5,0.8
		c0.4,0.6,0.8,1.3,1.2,1.9c0.2,0.3,0.3,0.6,0.5,0.8c0.7,1.1,1.3,2.2,2,3.3c0.3,0.5,0.5,0.9,0.8,1.4s0.5,1,0.8,1.4s0.6,1,0.8,1.5
		s0.5,1,0.8,1.4l0.8,1.6c0.2,0.5,0.5,0.9,0.7,1.4l0.8,1.8l0.6,1.3c0.3,0.7,0.6,1.3,0.9,2c0.1,0.3,0.3,0.7,0.5,1
		c0.5,1,0.9,2.1,1.3,3.1c30,73.7-4.7,157.7-77.9,188.9c0.3-0.9,0.3-1.9,0.1-2.8c1.9-0.8,2.7-2.9,2-4.8c0-0.1-0.1-0.1-0.1-0.2
		c1.7-0.8,2.4-2.8,1.8-4.5c40.8-21,68.2-61.3,72.8-107c0,0,0-0.1,0-0.1c0.2-2.1,0.4-4.2,0.5-6.3v-0.6c0-0.8,0.1-1.6,0.1-2.5
		c0-0.2,0-0.5,0-0.8c0-1,0-2,0-3s0-2,0-3c0-0.5,0-1,0-1.6s0-1,0-1.4s0-0.9-0.1-1.4l-0.1-1.6c0-0.4-0.1-0.9-0.1-1.3s-0.1-1.1-0.1-1.7
		s-0.1-0.9-0.1-1.3s-0.1-1.1-0.2-1.7s-0.1-0.9-0.2-1.3s-0.1-1.1-0.2-1.6l-0.1-1.5l-0.2-1.5c-0.1-0.5-0.2-1-0.3-1.6s-0.1-0.9-0.2-1.3
		s-0.2-1-0.3-1.5l-0.3-1.4c-0.1-0.5-0.2-1-0.3-1.4s-0.2-0.9-0.3-1.4l-0.4-1.5c-0.1-0.4-0.2-0.9-0.3-1.3s-0.2-1-0.4-1.4
		s-0.2-0.9-0.4-1.4s-0.2-0.9-0.4-1.4s-0.3-0.9-0.4-1.4s-0.3-1-0.4-1.4s-0.3-0.9-0.4-1.3s-0.3-1-0.5-1.5s-0.3-0.8-0.4-1.2
		s-0.4-1-0.5-1.6s-0.3-0.8-0.4-1.2s-0.4-1-0.6-1.5s-0.3-0.8-0.4-1.2l-0.6-1.5c-0.1-0.4-0.3-0.8-0.5-1.1s-0.4-1-0.6-1.5
		s-0.3-0.8-0.5-1.2s-0.4-1-0.7-1.5s-0.3-0.7-0.5-1.1s-0.5-1-0.7-1.5s-0.3-0.7-0.5-1.1l-0.8-1.5l-0.5-1l-0.8-1.5l-0.5-1
		c-0.3-0.5-0.6-1-0.9-1.6l-0.5-0.9l-0.9-1.6l-0.5-0.8c-0.3-0.5-0.6-1.1-1-1.6l-0.5-0.8c-0.3-0.5-0.7-1-1-1.6l-0.5-0.8l-1-1.6
		l-0.6-0.8l-1-1.5l-0.6-0.8c-0.4-0.5-0.7-1-1.1-1.4l-0.6-0.8l-1.2-1.5l-0.6-0.8l-1.2-1.4c-0.1-0.2-0.2-0.3-0.4-0.4l0,0
		c-0.3,0.2-0.6,0.5-0.9,0.8c-0.7,0.6-1.5,1.3-2.2,1.9l0,0l-1.4,1.2c35,43.1,38.4,103.8,8.4,150.6l-0.3,0.5c-0.3,0.5-0.7,1-1,1.6
		l-0.9,1.3l-0.4,0.5c-3.2,4.6-6.7,9.1-10.5,13.3c-8-12.5-30.9-32.4-44.9-44c-1.6-1.3-3.2-2.4-5-3.3c1.9-0.6,3.6-1.6,5.2-2.8l0.9-0.8
		l0.9-0.9l1.3-1.5l2.6-2.9c3.6-3.9,7.1-7.9,10.4-12.2c1.7-2.2,3.2-4.4,4.6-6.8c0.7-1.2,1.4-2.4,2-3.7c0.7-1.4,1.2-2.8,1.5-4.3
		c0.1-0.4,0.1-0.9,0.2-1.3c0-0.5,0-1-0.1-1.5c-0.1-0.9-0.4-1.7-0.8-2.5c-0.7-1.4-1.6-2.7-2.8-3.9c-1.1-1.1-2.4-2-3.8-2.7
		c-0.3-0.1-0.6-0.2-0.9-0.3c0.6-0.6,1.2-1.2,1.8-1.9c7.3-3.4,13.2-8.1,15.9-13.9c8-16.9,0-33.2,0-33.2s-1.3-1.5-3.6-3.8
		c-0.6,0.8-1.3,1.6-1.9,2.3c-0.8,1-1.7,2-2.4,3.1c-2.4,3.2-4.7,6.5-6.8,10l-5.1,11.8c0,0.4-0.2,0.8-0.6,1h-0.1
		c-1.3,0.4-2.7,0.6-4.1,0.5c-1.3-0.1-2.5-0.2-3.8-0.4c-2.4-0.4-4.8-1-7.2-1.6c-4.7-1.3-9.4-2.9-13.9-4.6c-0.1,0-0.1-0.1,0-0.2
		c0,0,0.1-0.1,0.1-0.1c4.7,1.4,9.4,2.6,14.1,3.6c2.4,0.5,4.8,0.8,7.1,1.1c1.2,0.1,2.4,0.1,3.5,0.1c0.7-0.1,1.3-0.2,1.9-0.4l6.5-12.6
		c0.5-1,1-2.1,1.6-3.1c0.7-1.2,1.3-2.3,2-3.5l2.2-3.4c3-4.4,6.4-8.6,9.9-12.6c3.6-4,7.3-7.8,11.3-11.4l2.4-2.1l1.9-1.7
		c-1.2,0-2.4-0.1-3.6-0.2c-0.7-0.1-1.5-0.2-2.2-0.3c-5.3-1-10.6-2.5-15.6-4.6c-10-3.9-19.6-8.7-28.8-14.3
		c-9.2-5.5-17.9-11.8-26-18.9c-1.4-1.2-2.8-2.5-4.1-3.8c-2.2-2.1-4.3-4.4-6.2-6.8c-0.2-0.2-0.4-0.4-0.5-0.6v0.6v1.6
		c0,1.5-0.1,2.9-0.1,4.4c-0.1,3.9-0.3,7.8-0.8,11.7c-0.6,5.4-1.6,10.7-3,15.8c-0.4,1.3-0.8,2.6-1.2,3.9s-0.9,2.5-1.4,3.8
		c-1.1,2.7-2.6,5.4-4.2,7.8c-0.8,1.3-1.9,2.6-2.9,3.8s-2.1,2.6-3.3,3.9c-0.3,0.3-0.6,0.6-0.9,0.9c-0.1-0.4-0.3-0.7-0.4-1
		c4.2-5.8,6.4-9.1,6.4-9.1l0.1-0.1c1.4-2.2,2.5-4.5,3.4-6.9c0.5-1.2,0.9-2.5,1.3-3.7s0.7-2.5,1-3.8c0.1-0.5,0.2-1,0.3-1.5
		c-0.2,0-0.5-0.1-0.7-0.1c-40.9-3.5-46.6,28.3-43.9,34.8c0,0,0.3,1,0.9,2.5c-3.1,2.9-5.4,6.5-6.7,10.5c-0.4,1.7-0.7,3.4-0.9,5.1
		c0,0.3-0.5,13.3-0.5,13.6v0.1c-1.3-0.9-2.7-1.6-4.2-2.1c-2.2-0.7-4.6-0.7-6.8-0.1c-2.3,0.7-4.3,2.1-5.6,4.2c-1.2,2-2,4.2-2.3,6.5
		c-0.3,2.2-0.2,4.5,0.3,6.7c0.6,2.1,1.3,4.1,2.3,6c0.4,0.9,0.7,1.8,1,2.7c0.1,0.4,0.2,0.9,0.3,1.3l0.3,1.5c0.4,2.1,1,4.2,1.7,6.3
		c0.4,1.1,1,2.2,1.7,3.1c0.6,0.7,1.2,1.4,2,1.9c-0.1,0.1-0.1,0.2-0.2,0.3c-1.1,1.9-2.1,3.7-3.1,5.7c-0.2,0.5-0.5,1-0.7,1.5l-0.3,0.8
		c-0.1,0.3-0.2,0.6-0.3,0.9s-0.2,0.6-0.2,0.9l-0.1,0.9l-0.1,0.9v0.9c0,2,0.2,4.1,0.5,6.1l0.6,0.4c0.9,0.6,1.8,1.2,2.8,1.7l0.6,0.4
		c0,0,0,0,0-0.1l0.1,0.1c-0.2-0.9-0.4-1.7-0.6-2.6c-0.4-2-0.6-4-0.6-6v-0.7l0.1-0.7l0.1-0.7c0-0.2,0.1-0.4,0.2-0.6s0.1-0.4,0.2-0.6
		l0.3-0.7c0.2-0.5,0.4-0.9,0.6-1.4c0.8-1.9,1.8-3.7,2.8-5.6l0.2-0.4l0.2-0.4l0.7-1.3c0.3-0.6,0.7-1.2,1.1-1.8c0,0,0-0.1,0.1-0.1l0,0
		l0.9-1.5l1-1.7l0.3-0.4l1.9-3.2c1.1-1.8,2.2-3.6,3.3-5.5c0.1-0.2,0.3-0.5,0.4-0.8c0.1-0.3,0.3-0.6,0.4-0.9c0.2-0.6,0.3-1.2,0.4-1.8
		c0.2-1.1,0.2-2.2,0.3-3.2c0-0.5,0.1-1,0.1-1.4c0,0,0,0,0-0.1l0,0v-0.4c0-0.4,0.1-0.8,0.1-1.2c0-0.1,0-0.3,0-0.4
		c0-0.5,0.1-1,0.1-1.6v-0.2c0-0.4,0.1-0.8,0.1-1.2l0.1-0.6c0-0.3,0.1-0.6,0.1-0.8c0-0.3,0.1-0.4,0.1-0.7v-0.1l0.2-1.1l0,0v-0.1
		c0,0,0,0,0-0.1c0-0.2,0.1-0.3,0.1-0.5c0-0.2,0.1-0.3,0.1-0.4l0,0c0,0,0,0,0-0.1s0,0,0,0c0.1-0.4,0.2-0.8,0.3-1.2
		c1.3-4,2.9-7.8,4.9-11.5c1.4-2.7,2.9-5.4,4.3-8.1c1.9,3,4,5.9,6.1,8.8c-0.3,0.6-0.6,1.2-0.8,1.9c-0.3,0.4-0.5,0.9-0.8,1.4
		c-0.9,2.3-1.2,4.8-0.9,7.2c0.2,2.3,0.8,4.5,1.9,6.5v0.1c0.1,0.2,0.3,0.4,0.5,0.6c0.2,0.2,0.3,0.3,0.5,0.5c0.4,0.3,0.9,0.5,1.4,0.6
		c0.3,0,0.5-0.2,0.5-0.4c0-0.1,0-0.3-0.1-0.4l-0.1-0.1c-0.2-0.2-0.4-0.5-0.5-0.8c-0.1-0.1-0.1-0.3-0.2-0.5c0-0.1-0.1-0.3-0.1-0.4
		v0.1c-0.1-1.8,0.1-3.6,0.6-5.3c0.9-1.7,1.9-3.3,3.1-4.9c11.3,12.2,24.9,22,40.1,28.6c6.5,2.5,13.3,3.7,20.2,3.5
		c-1.2,2-2.7,3.7-4.4,5.2c-0.4,0.3-0.9,0.5-1.4,0.7c2,3.5,2.4,10.2,2.1,14.7c-0.1,1-0.1,2.1-0.2,2.8c-0.5,3.1-2.9,8.6-0.5,9.2
		c0.7,0.1,1.4,0.1,2-0.2c5.6-1.9,5.7-2,6.7-4.1c0.1-0.2,0.1-0.3,0.2-0.5c0.1-0.2,0.1-0.5,0.2-0.8l0.1-0.5l0.2-0.7
		c0.1-0.5,0.2-1,0.4-1.6c0-0.1,0.1-0.2,0.1-0.4c0.1-0.5,0.2-1,0.3-1.5s0.2-1.1,0.4-1.6c0.1-0.3,0.1-0.6,0.2-0.9l0.3-1.2l0.1-0.2
		c1.1-1.7,2.4-3.3,3.9-4.7c1.3-1.4,3-2.5,4.8-3.1c0.4-0.1,0.9-0.3,1.4-0.3c0.5-0.1,0.9-0.1,1.4-0.1c1,0,1.9,0.3,2.8,0.7h0.1
		c0.2,0.1,0.5,0,0.6-0.2c0.1-0.2,0.1-0.5-0.1-0.6c-0.9-0.8-2-1.3-3.1-1.6c-0.6-0.1-1.2-0.2-1.8-0.2c-0.6,0-1.2,0.1-1.8,0.2
		c-2.3,0.6-4.3,1.8-5.9,3.5c-0.2,0.2-0.4,0.4-0.5,0.6l0,0l0,0l0,0l-0.1,0.1l-0.1,0.1l-0.1,0.1l-0.1,0.1v0.1l0,0l-0.1,0.1
		c0-0.2,0.1-0.3,0.1-0.5c0.2-0.2,0.4-0.5,0.6-0.7c1.2-1.2,2.5-2.3,3.8-3.4c0.3-0.4,0.6-0.8,1-1.1l0.4-0.5h-0.1
		c0.4-0.6,0.8-1.2,1.3-1.7h0.1c0.2-0.2,0.4-0.5,0.5-0.7c1.7-1.8,3.5-3.4,5.4-4.9h0.1c2.1,0.2,4,1.2,5.4,2.7c0.7,0.8,1.3,1.6,1.8,2.6
		c0.2,0.4,0.3,0.8,0.4,1.2c0,0.2,0,0.3,0,0.5c0,0.2-0.1,0.4-0.1,0.6c-0.3,1.1-0.7,2.2-1.2,3.2c-0.5,1.1-1.1,2.2-1.8,3.3
		c-1.3,2.2-2.8,4.3-4.3,6.4c-3,4.1-6.5,8.1-9.9,12.1l-2.6,3l-1.3,1.6l-0.5,0.5l-0.6,0.5c-0.9,0.7-1.9,1.3-2.9,1.8
		c-1,0.5-2.1,0.9-3.3,1.1c-0.8,0.1-1.6,0.1-2.4,0c-0.2,0-0.4,0-0.6,0l-0.3-0.1c-0.1,0-0.1-0.1-0.2-0.1c0-0.2,0.1-0.5,0.1-0.7
		c0.1-0.6,0.1-1.2,0.1-1.9c0-0.7,0-1.3-0.1-2c0-0.2-0.2-0.3-0.4-0.4c-0.2,0-0.5,0.1-0.5,0.4c0,0,0,0,0,0v0.1c-0.1,0.5-0.2,1-0.4,1.6
		c0,0,0,0,0,0.1c-0.1,0.4-0.3,0.8-0.4,1.2c-0.3,0.7-0.6,1.4-0.9,2l-0.5,1l-0.2,0.4l-0.7,1.3c-0.6,1.1-1.4,2.1-2.1,3.1
		c0.1-1.3-0.3-2.6-1.2-3.5c1.7-0.8,2-4.1,0.6-5.9c1.1-1.4,1.8-3.9,0.2-5.6c1.4-0.7,1.4-3.5,0.1-4.5c0-0.1,0.1-0.2,0.1-0.3v-0.1
		c0-0.1,0-0.1,0.1-0.2c0-0.1,0-0.1,0-0.2v-0.1c0-0.1,0-0.2,0.1-0.3s0-0.1,0-0.2l0,0c0.1-0.1,0.2-0.1,0.4-0.2c1-1.1,1.5-2.5,1.4-3.9
		c-0.1-1.2-0.5-2.4-1.4-3.3c-0.1-0.1-0.2-0.2-0.4-0.4c-1-0.9-2.3-1.4-3.6-1.3c0-0.4,0-0.8-0.1-1.1l0,0c0-0.4-0.1-0.7-0.2-1.1V165
		c-0.1-0.4-0.1-0.7-0.2-1.1c0,0,0,0,0-0.1c-0.1-0.4-0.2-0.7-0.3-1c-0.6-1.5-1.3-3-2.3-4.3c-2-2.6-4.7-4.6-7.7-5.7
		c-0.3-0.1-0.6-0.1-0.9-0.2c0.7-0.1,1.4-0.3,2-0.4c0.5-0.1,1.1-0.1,1.6-0.1c0.5,0.1,1.1,0.2,1.6,0.4c2.5,0.9,5.2,2.1,7.9,3.1l0,0
		c0.4,0.1,0.8-0.1,1-0.5c0.1-0.3,0-0.6-0.2-0.8c-2.1-2.2-4.4-4.1-7-5.6c-0.8-0.5-1.6-0.9-2.5-1.1c-0.9-0.2-1.8-0.3-2.6-0.4
		c-1.6,0-3.1,0-4.6,0.2L221,148l-2.1,0.2c-0.3,0-0.7,0.1-1,0.1s-0.5,0-0.8,0c-0.5-0.1-1-0.1-1.4-0.2c-0.5-0.1-1-0.1-1.5-0.3
		c-0.5-0.1-1.1-0.3-1.6-0.5c-0.3-0.1-0.6-0.2-0.8-0.3c-0.3-0.1-0.5-0.2-0.8-0.3l-1.3-0.1c-1-0.1-1.8,0.6-1.9,1.6c0,0.3,0,0.7,0.2,1
		c0.2,0.4,0.5,0.8,0.7,1.2c0.3,0.4,0.5,0.7,0.9,1c0.6,0.7,1.3,1.3,2.1,1.7c0.7,0.4,1.4,0.7,2.1,0.9c-1.1,0.6-2.2,1.4-3.1,2.3
		c-2.5,2.3-4.2,5.3-4.9,8.6c-0.7,3.4-0.2,6.8,1.4,9.9c0.4,0.8,0.8,1.5,1.3,2.2c0.5,0.6,0.9,1.3,1.5,2c1.1,1.3,2.5,2.4,3.9,3.2
		c2.9,1.8,6.4,2.5,9.8,2c2.1-0.1,4.2-0.6,6.2-1.4c2-0.9,3.7-2.1,5.3-3.6c0.3-0.3,0.6-0.6,0.9-0.9l0.1-0.1c0.3-0.3,0.5-0.7,0.8-1l0,0
		c0,0.8,0,1.6-0.2,2.3l0,0c0,0.1-0.1,0.3-0.1,0.4c0.1,0.4,0.1,0.8,0.1,1.3c0.2,0.5,0.5,1,0.7,1.6c-1.5,0.8-1.3,4,0,5.1
		c-1.9,1-1.6,4.1-0.4,5.9c-0.1,0.1-0.2,0.1-0.3,0.2l-0.1,0.1l-0.3,0.2l-0.1,0.1l-0.2,0.2l-0.1,0.2c0,0.1-0.1,0.1-0.1,0.2
		c0,0.1-0.1,0.1-0.1,0.2c-0.1,0.1-0.1,0.2-0.1,0.3l0,0c-0.6,1.7-0.2,3.6,1.1,4.9c-2.5,0.8-2.6,5.4-0.4,6.8c-0.8,0.4-1.4,1-1.7,1.9
		c0,0,0,0,0,0.1l-0.8,0.8c0.2,0.1,0.3,0.1,0.5,0.2c0,0.3-0.1,0.7-0.1,1l0,0l-0.4-0.1h-0.1l-0.5-0.2h-0.1h-0.1
		c-2.6-1.4-5-3.1-7.1-5.1c-4-3.5-7.8-7.3-11.4-11.1l0,0l-1-1c-1.8-1.9-4-3.5-6.3-4.7c0.1-0.1,0.1-0.2,0.2-0.3
		c0.5-0.9,0.9-1.8,1.1-2.8c0.3-1,0.3-2,0.1-3c-0.1-0.2-0.1-0.5-0.2-0.7c-0.1-0.2-0.2-0.4-0.4-0.6l-0.2-0.1l0,0l-0.1,0.1l0,0
		c-0.1,0.2-0.1,0.5-0.1,0.7l0.1,0.7c0,0.9-0.2,1.7-0.5,2.5c-0.3,0.8-0.7,1.6-1.2,2.3c-0.1,0.2-0.3,0.3-0.4,0.4
		c-0.5,0.6-1,1.1-1.6,1.5c-0.6,0.4-1.2,0.8-1.9,1c-0.8,0.3-1.7,0.4-2.5,0.5c-4.4,0.7-8.9-0.2-12.7-2.6c-0.8-0.4-1.6-0.9-2.3-1.4
		l-1.1-0.7l-1.1-0.8c-1.5-1-2.9-2.1-4.1-3.4c-0.5-0.6-1-1.2-1.4-1.9c-0.5-0.7-0.8-1.5-0.9-2.4c-0.1-1.7,0.4-3.3,1.3-4.6
		c1-1.4,2.4-2.5,4-3.2c0.8-0.4,1.7-0.7,2.5-1l0.9-0.4c0.1-0.1,0.1-0.2,0.2-0.2v-0.1l0,0v-0.1c0,0,0-0.1-0.1-0.1l0,0
		c-0.4,0-0.8,0-1.2,0c-1,0.2-1.9,0.4-2.8,0.7c-2,0.6-3.7,1.8-5,3.4c-0.6,0.8-1.1,1.7-1.5,2.7c-0.8,1.7-0.7,3.7,0.1,5.4h-0.7
		c-2.9,0.2-5.7,0.5-8.6,0.6c-1.5,0.1-3,0-4.4-0.4c-1.4-0.4-2.8-0.9-4.1-1.6c-2.6-1.3-5-3-7.2-4.9c-1.1-1-2.1-2.1-3-3.2
		c-1-1.2-1.6-2.6-1.9-4.2c-0.2-1.5,0.1-3.1,0.8-4.5c0.5-1,1.2-1.8,2-2.6c-1.4,0.1-2.8,0.5-4,1.2c-1.5,0.9-2.7,2.2-3.4,3.8
		c-0.7,1.6-1,3.4-1,5.1c0,0.9,0.1,1.8,0.1,2.7l0.4,2.7c0.5,2.9,1.5,5.8,2.8,8.5l0.5,1c0.2,0.3,0.4,0.6,0.6,0.9
		c0.4,0.6,0.8,1.2,1.2,1.8l1.4,1.7c0.5,0.6,1.1,1.1,1.7,1.6c2.8,2.5,6,4.4,9.5,5.6c0.6,0.2,1.3,0.4,2,0.6c1.5,0.4,2.9,0.8,4.4,1
		c1.5,0.2,2.9,0.3,4.4,0.3c0.7,0,1.5,0,2.2-0.1c0.7,0,1.5-0.1,2.2-0.2c3.1-0.4,6.2-0.5,9.3-0.5c3.2,0,6.4,0.6,9.4,1.7
		c1.6,0.6,3,1.4,4.3,2.5c1.2,1,2.4,2,3.6,3c4.5,4.1,9.3,7.7,14.3,11c2.5,1.6,5.2,3.1,7.9,4.4l0.2,0.1l1.8,0.8c0.6,0.3,1.3,0.5,2,0.7
		c0.2,0.1,0.5,0.1,0.7,0.1l0.2,0.1c0.6,0.2,1.3,0.3,2,0.4h0.1h0.2h0.3c0.2,0,0.5,0.1,0.7,0.1s0.6,0,1,0h0.2h0.8h0.1h0.5h0.4h0.5
		c0.3,0,0.7-0.1,1-0.1c-0.7,0.8-1.4,1.6-2,2.4c-0.2,0.3-0.4,0.6-0.7,0.9c-4.4,5.2-14.4,11.3-19.5,14.2l-0.8,0.2c-1,0.3-2,0.7-3,1.1
		c-0.5,0.3-0.9,0.5-1.4,0.8l-1.3,0.8c-1.4,0.8-2.7,1.8-4,2.8c-0.1-0.1-0.3-0.2-0.4-0.2c-0.9-0.3-1.8-0.5-2.7-0.5h-0.1H198
		c-0.9-0.1-1.7-0.1-2.6,0c-0.5,0.1-1,0.2-1.5,0.3c0.1-0.8-0.7-1.1-1.2-1.4c-2.2-0.9-12.2-9.4-21.1-17.3c0.8,0.6,1.6,1.2,2.4,1.7
		c1.8,1.2,3.6,2.4,5.4,3.5c1.9,1.3,3.8,2.3,5.9,3.2c2.2,0.9,4.6,1.4,6.9,1.5c2.3,0.1,4.6-0.2,6.9-0.8c4.2-1.1,8.3-2.7,12.2-4.7
		c4.1-2,8-4.2,11.8-6.6c-0.3-0.1-0.6-0.2-0.9-0.3l-2.1-1l-0.6-0.3l0,0c-0.2-0.1-0.5-0.3-0.8-0.4c-3,1.8-6.1,3.5-9.2,5
		c-3.7,1.8-7.5,3.2-11.5,4.2c-3.7,1-7.6,0.8-11.2-0.7c-1.8-0.8-3.6-1.8-5.2-2.9c-1.8-1.1-3.6-2.2-5.3-3.4c-3.4-2.2-6.7-4.8-9.6-7.6
		c-1.3-1.2-2.4-2.7-3.2-4.4c0-0.2-0.1-0.3-0.1-0.5l-0.1-0.7c-0.1-0.4-0.1-0.9-0.1-1.3c0-0.9,0-1.9,0.1-3c0.1-2.3-0.1-4.5-0.5-6.8
		c0-0.1,0-0.1,0-0.2c-0.5-0.1-0.9-0.2-1.4-0.3h-0.1c-0.4-0.1-0.9-0.2-1.3-0.4l0,0c-0.6-0.1-1.1-0.3-1.7-0.5s-1-0.4-1.5-0.6
		c-0.1,0.3-0.2,0.6-0.4,0.9l-0.9,2.7c-1.2,3.6-2.4,7.2-3.8,10.8c-0.7,1.8-1.4,3.6-2.2,5.3s-1.6,3.5-2.3,5.2
		c-0.7,1.7-1.4,3.5-1.9,5.3c-0.3,0.9-0.5,1.7-0.6,2.6c0,0.4,0,0.8,0,1.2v0.2l0,0c4.6,1.5,9.2,3,13.7,4.9l0,0h0.1
		c0.5,0.2,0.7,0.7,0.5,1.2c0,0,0,0,0,0c-0.1,0.1-0.1,0.3-0.2,0.4c-2.6,2.3-5.2,4.6-7.7,7l-1.9,1.8c-0.5,0.6-1,1.2-1.4,1.9
		c-0.8,1.5-1.3,3-1.6,4.6c-0.5,3.3-0.1,6.7,1.1,9.8c0.5,1.6,1.2,3.1,2,4.6c-1.2-0.6-2.3-1.3-3.4-2c0-0.1-0.1-0.1-0.1-0.2
		c-0.2-0.6-0.4-1.1-0.6-1.7c-1.1-3.5-1.3-7.2-0.6-10.8c0.4-1.8,1-3.5,1.9-5.1c0.5-0.8,1-1.6,1.7-2.2l1.9-1.7c2.1-2,4.2-4.1,6.3-6.2
		c-4.2-1.2-8.3-2.6-12.4-4.1l-0.2-0.1c-0.1,0-0.2-0.1-0.2-0.1c-0.1-0.1-0.3-0.2-0.4-0.3c-0.2-0.2-0.3-0.4-0.4-0.6
		c-0.1-0.2-0.1-0.4-0.2-0.6l-0.1-0.5c0-0.6,0-1.1,0.1-1.7c0.2-1,0.5-2,0.8-2.9c0.7-1.8,1.4-3.6,2.3-5.3c1.7-3.5,3.5-6.8,4.9-10.3
		s2.7-7.1,3.8-10.7l0.9-2.7c0-0.1,0.1-0.3,0.2-0.4c-5.7,0.8-12.4,2.6-21.9,7.9l-0.3,0.2l-0.7,0.4l-0.5,0.3l-0.6,0.3L130,208
		c-19,11.2-24.6,18.2-24.7,18.2l-0.1,0.1v0.1c-0.1,0.1-0.3,0.4-0.6,0.8l0,0l-0.2,0.2l-0.1,0.2l-0.1,0.1c0,0,0,0.1-0.1,0.1
		s-0.2,0.2-0.2,0.4c-0.2-0.3-0.4-0.6-0.6-0.9l0,0l-0.6-0.9l0,0c0.1-0.2,0.2-0.3,0.3-0.5c0.3-0.4,0.6-0.8,0.7-0.9
		c0.4-0.5,4-4.7,14.3-11.7c3-2.1,6.6-4.4,10.9-6.9c10.7-6.3,18-8.6,24.2-9.7c-1.6-0.8-3.1-1.7-4.5-2.8c-5.5,1.4-10.9,3.8-19.4,8.8
		c-19.9,11.8-27.1,20-27.1,20c-0.3,0.4-0.6,0.8-0.8,1.2c-12.9-20.5-19.8-44.2-19.8-68.4c0-71.3,58-129.3,129.3-129.3
		c3.3,0,6.5,0.2,9.7,0.4v-0.1c0-1.4,0-2.7-0.1-4.1l-0.1-1.8v-0.1l-1.8-0.1c-1.6-0.1-3.1-0.1-4.7-0.2l0,0h-1.7h-1.4
		c-74.6,0-135.2,60.7-135.2,135.3c0,1,0,2.1,0,3.1c0,0.3,0,0.6,0,0.9c0,0.8,0,1.6,0.1,2.3c0,0.3,0,0.6,0,0.9c0.1,1,0.1,2.1,0.2,3.1
		v0.4c0.1,0.9,0.2,1.8,0.2,2.8l0.1,0.9l0.3,2.4c0,0.3,0.1,0.5,0.1,0.8c0.1,1,0.3,2,0.4,3c0,0.2,0.1,0.4,0.1,0.6
		c0.1,0.8,0.2,1.6,0.4,2.4l0.2,1c0.1,0.7,0.3,1.5,0.4,2.2l0.2,0.7c0.2,1,0.4,1.9,0.6,2.9l0.2,0.7c0.2,0.8,0.3,1.5,0.5,2.2l0.2,0.9
		c0.2,0.8,0.4,1.5,0.6,2.3l0.2,0.6c0.3,0.9,0.5,1.9,0.8,2.8c0.1,0.3,0.2,0.6,0.3,0.9l0.6,2c0.1,0.3,0.2,0.7,0.3,1
		c0.3,0.7,0.5,1.5,0.8,2.2c0.1,0.2,0.1,0.4,0.2,0.6c0.3,0.9,0.7,1.8,1,2.6c0.1,0.3,0.3,0.7,0.4,1c0.2,0.6,0.5,1.2,0.7,1.8l0.5,1.1
		c0.3,0.7,0.6,1.4,0.9,2.1l0.5,1c0.3,0.7,0.6,1.3,0.9,2c0.2,0.3,0.3,0.7,0.5,1c0.3,0.6,0.6,1.1,0.8,1.7l0.5,1
		c0.4,0.8,0.8,1.6,1.2,2.3c0.2,0.3,0.3,0.6,0.5,1l0.9,1.6l0.6,1.1c0.3,0.5,0.6,1,0.9,1.4l0.6,1c0.5,0.8,0.9,1.5,1.4,2.2
		c0.2,0.4,0.5,0.7,0.7,1.1l0.8,1.3c0.3,0.4,0.5,0.8,0.8,1.2l0.8,1.2l0.8,1.2c0.5,0.7,1,1.3,1.5,2c0.3,0.4,0.6,0.8,0.9,1.2l0.8,1
		l1,1.2l0.8,1c0.6,0.8,1.2,1.5,1.8,2.2c0.2,0.3,0.5,0.6,0.7,0.8l1.1,1.3l0.7,0.8c0.4,0.4,0.8,0.9,1.2,1.3l0.6,0.7
		c0.8,0.9,1.6,1.7,2.4,2.5l0.5,0.5l1.3,1.3l0.6,0.6l1.4,1.3l0.4,0.3c1,0.9,1.9,1.8,2.9,2.6l0.4,0.4l1.5,1.3l0.6,0.5
		c1.6,1.3,3.2,2.6,4.9,3.9l0.6,0.4c0.5,0.4,1,0.8,1.6,1.2l0.5,0.4c1.7,1.3,3.5,2.5,5.3,3.7l0.5,0.3l1.7,1.1l0.5,0.3
		c1.8,1.1,3.7,2.2,5.5,3.3l0.5,0.3l1.8,1l0.3,0.1c2,1,4,2.1,6,3l0.5,0.2l2,0.9l0,0l0,0c1.7,0.8,3.5,1.5,5.3,2.2
		c0.6,0.2,1.2,0.5,1.8,0.7l0.2,0.1l2.5,0.8l0.2,0.1c3.3,1.2,6.6,2.2,10,3.1c2,0.5,4.1,1,6.1,1.5l0.4,0.1c1.9,0.4,3.9,0.8,5.8,1.1
		l1,0.2l1.6,0.3c0.8,0.1,1.6,0.2,2.3,0.3l1.4,0.2l1.7,0.2l1.1,0.1c0.9,0.1,1.8,0.2,2.7,0.2l1,0.1l2.4,0.2h0.6l3,0.1h0.6
		c1,0,2.1,0,3.1,0c1.8,0,3.5,0,5.3-0.1l0,0c1.4-0.1,2.8-0.1,4.1-0.2c6.8-0.5,13.5-1.4,20.1-2.9h0.2h0.1l0,0c1.1,1.3,3,1.8,4.6,1.2
		c-1.7,2.5-0.3,5.6,2.1,6.8c-4.9,1.2-9.8,2.3-14.8,3c-1.4,0.2-2.8,0.4-4.1,0.6l-9,0.8l-2.6,0.1h-0.4c-0.8,0-1.6,0-2.4,0.1H214h-2.5
		l0,0h-3.2h-0.6c-1,0-2,0-3.1-0.1H204c-0.9,0-1.8-0.1-2.7-0.1h-0.6l-3-0.2l-0.9-0.1l-2.9-0.3l-0.7-0.1l-2.3-0.3l-1.1-0.1l-2.7-0.4
		l-1.1-0.2l-2-0.4l-1.3-0.2c-0.8-0.1-1.6-0.3-2.3-0.5l-1.2-0.3c-0.8-0.2-1.7-0.4-2.5-0.6c-2.7-0.7-5.4-1.4-8.1-2.2l0,0
		c-2.1-0.6-4.2-1.3-6.2-2.1l-0.4-0.1l-2.7-1c-1-0.4-2.1-0.8-3.1-1.2C81.4,258.6,45.8,173.3,76.4,98.7C83.6,81,94.3,65,107.7,51.4
		C135.1,23.7,172.5,8.1,211.5,8c1.1,0,2.2,0,3.3,0l3.2,0.1l0,0c-0.1-1.3,0.2-2.6,0.9-3.8c0.8-1.3,2.1-2.2,3.5-2.7
		c1.3-0.5,2.8-0.7,4.2-0.7c0.3,0,0.6,0,0.9,0c-25.6-2.6-51.5,1.1-75.4,10.7C72.1,44.4,33.9,135.8,66.7,215.8
		c7.8,18.9,19.2,36.1,33.6,50.7c60.5,61.4,159.3,62.2,220.8,1.7c0.6-0.6,1.1-1.1,1.7-1.7C352,236.9,368.3,196.9,368,155.2L368,155.2
		z M165.9,120.6c0,0.2,0,0.4,0,0.6c0,0.4,0,0.8-0.1,1.2c0,0.1,0,0.2,0,0.2c0,0.3,0,0.7-0.1,1s0,0.7,0,1.1s0,0.9-0.1,1.3
		c-0.1,0.5,0,1-0.1,1.6c0,0.1,0,0.1,0,0.2s0,0.3,0,0.5c0,0.5,0,1,0,1.5v0.6c0,0.1,0,0.2,0,0.4s0,0.4,0,0.6s0,0.2,0,0.3
		c0,0.6,0,1.1,0,1.7c0,0.1,0,0.1,0,0.2c0,0.3,0,0.5,0,0.8l0,0l0,0c-0.1-0.3-0.2-0.7-0.4-1c-0.1-0.4-0.3-0.7-0.4-1.1
		c-0.4-0.9-0.8-1.8-1.3-2.7c-0.5-0.9-1.2-1.8-2-2.5c-0.9-0.7-2-1.2-3.1-1.2c-1.1-0.1-2.2,0.2-3.1,0.7c-0.2,0.1-0.3,0.4-0.2,0.6
		c0.1,0.2,0.3,0.3,0.5,0.2l0,0c0.8-0.2,1.7-0.2,2.5-0.1c0.8,0.2,1.5,0.6,2,1.1c0.6,0.6,1,1.3,1.4,2.1c0.4,0.8,0.8,1.7,1.1,2.5
		c0.7,1.7,1.2,3.5,1.8,5.3c0.4,1.1,0.7,2.3,1.1,3.5l0,0c0,0.1,0,0.2,0,0.3c0,0,0,0.1,0,0.1c0,0.1,0,0.1,0,0.2s0,0.1,0,0.2
		c0,0,0,0.1,0,0.1c0,0.1,0,0.2,0,0.3c-0.6,1-1.2,1.9-1.8,2.9l-2.3,3.6l-0.1,0.2c-0.8,1.2-1.5,2.4-2.3,3.7l0,0
		c-0.1-0.1-0.2-0.2-0.3-0.3l0,0c-0.3-0.3-0.6-0.7-0.9-1.1l0,0l-0.2-0.3l-0.1-0.2l-0.1-0.2l-0.2-0.4c0-0.1,0-0.1-0.1-0.2
		c-0.1-0.2-0.2-0.4-0.2-0.6c-0.7-1.8-1.2-3.7-1.6-5.7l-0.3-1.5c-0.1-0.6-0.3-1.1-0.4-1.6c-0.3-1.1-0.7-2.1-1.2-3.1
		c-0.9-1.7-1.7-3.6-2.2-5.4c-0.5-1.8-0.6-3.7-0.4-5.5c0.1-1.8,0.6-3.6,1.5-5.2c0.4-0.8,1-1.4,1.7-2c0.7-0.6,1.4-1,2.3-1.3
		c0.8-0.3,1.7-0.5,2.6-0.5c0.9,0,1.9,0,2.8,0.2c0.2,0,0.4,0.1,0.7,0.2l0.2,0.1l0.4,0.1l0.2,0.1l0.4,0.1l0.3,0.1l0.3,0.1l0.3,0.1
		l0.3,0.2l0.3,0.1l0.3,0.2c0.1,0,0.2,0.1,0.3,0.2l0.4,0.3l0.1,0.1L165.9,120.6z M235.7,169.9L235.7,169.9v-0.2
		c-0.1-1.4-0.3-2.8-0.6-4.1c-0.3-1.3-0.8-2.7-1.4-3.9c-0.6-1.3-1.4-2.4-2.4-3.4c-1-1-2.2-1.8-3.5-2.3c-1.3-0.5-2.6-0.9-4-1.1
		c-0.1,0-0.3,0.1-0.3,0.2c0,0,0,0,0,0c0,0.1,0.1,0.3,0.2,0.3l0,0c2.6,0.6,5.2,1.5,6.9,3.5c0.9,1,1.6,2.1,2.1,3.3
		c0.5,1.2,0.9,2.5,1.2,3.8c0.7,2.5,0.6,5.2-0.1,7.7c-0.6,2.3-1.9,4.5-3.5,6.2c-0.8,0.4-1.7,0.7-2.6,1l-3.8-16.1
		c0-0.1-0.1-0.1-0.1-0.1c0,0,0,0,0,0c-0.1,0-0.1,0.1-0.1,0.1c0,0,0,0,0,0l3.2,16.2c-1,0.3-2.1,0.5-3.1,0.6h-0.1c-0.2,0-0.4,0-0.6,0
		c0,0,0,0,0-0.1l-5.9-23.5c0-0.1-0.1-0.1-0.2-0.1c0,0,0,0,0,0c-0.1,0-0.1,0.1-0.1,0.2l5.3,23.4c-2.3,0.1-4.5-0.4-6.6-1.5
		c-1.2-0.7-2.3-1.6-3.3-2.6c-0.5-0.5-0.9-1.1-1.4-1.7c-0.4-0.6-0.8-1.2-1.2-1.8c-1.4-2.5-1.8-5.4-1.4-8.2c0.5-2.9,1.9-5.5,3.9-7.5
		c1.5-1.5,3.3-2.6,5.3-3.3c0.7-0.3,1.5-0.6,2.3-0.8c0.7-0.1,1.5-0.2,2.2-0.2c0.4,0,0.8-0.1,1.1-0.1h0.7h0.4c1.5,0.1,2.9,0.4,4.3,0.9
		c2.8,0.9,5.3,2.7,7.1,5.1c0.9,1.2,1.6,2.5,2.1,3.9c0.1,0.3,0.2,0.7,0.3,1c0.2,1.1,0.4,2.1,0.4,3.2c-0.7,0.2-1.4,0.6-2,1.2
		C236.2,169.1,235.9,169.5,235.7,169.9z M237.1,173.5c-0.1-0.3-0.2-0.7-0.3-1c-0.1-0.9,0.2-1.8,0.8-2.4c0.2-0.2,0.5-0.4,0.7-0.6
		c1.2-0.7,2.8-0.6,3.8,0.4c0.1,0.1,0.1,0.1,0.2,0.2l0,0c0.1,0.2,0.2,0.3,0.3,0.5c0.1,0.1,0.1,0.2,0.2,0.4c0.2,0.5,0.2,0.9,0.2,1.4
		c-0.1,0.8-0.4,1.5-1,2c-0.4,0.3-0.8,0.5-1.2,0.7h-0.1c-0.3,0.1-0.5,0.1-0.8,0.1h-0.4h-0.1c-0.4,0-0.8-0.2-1.1-0.3l-0.1-0.1l0,0
		c-0.1-0.1-0.3-0.2-0.4-0.3c-0.1-0.1-0.2-0.2-0.2-0.2C237.4,174.1,237.2,173.8,237.1,173.5L237.1,173.5z"/>
	<path class="st0" d="M346.8,99.2c-0.4-1-0.9-2.1-1.3-3.1c-0.1-0.3-0.3-0.7-0.5-1c-0.3-0.7-0.6-1.3-0.9-2l-0.6-1.3l-0.8-1.8
		c-0.2-0.5-0.5-0.9-0.7-1.4l-0.8-1.6c-0.2-0.5-0.5-1-0.8-1.4s-0.5-1-0.8-1.5s-0.5-1-0.8-1.4s-0.5-0.9-0.8-1.4
		c-0.6-1.1-1.3-2.2-2-3.3c-0.2-0.3-0.3-0.6-0.5-0.8c-0.4-0.6-0.8-1.3-1.2-1.9l-0.5-0.8c-0.4-0.7-0.9-1.3-1.3-1.9l-0.5-0.8
		c-0.4-0.6-0.9-1.3-1.3-1.9l-0.5-0.7c-0.5-0.7-1-1.3-1.4-2l-0.4-0.5c-2.4-3.2-4.9-6.3-7.6-9.3c-4-4.5,0-0.1,0-0.1
		c-1.2-2.5-2.7-4.8-4.4-6.9c-3.4-4.2-7.2-8.1-11.3-11.5c-8.2-7-16.9-13.2-26.2-18.6c-9.2-5.5-18.9-10.2-28.9-14
		c-3.8-1.5-7.7-2.7-11.7-3.8c-1.2-0.3-2.5-0.6-3.8-0.8c-2.4-0.5-4.8-0.7-7.2-0.7c-0.3,0-0.6,0-0.9,0c-1.4,0.1-2.8,0.3-4.1,0.8
		c-1.4,0.5-2.7,1.4-3.5,2.7c-0.7,1.1-1,2.5-0.9,3.8l0,0L214.7,8c-1.1,0-2.2,0-3.3,0c-80.6,0-146,65.4-146,146
		c0,39,15.6,76.4,43.4,103.8c13.5,13.4,29.5,24.1,47.2,31.3c1,0.4,2.1,0.8,3.1,1.2l2.7,1l0.4,0.1c2.1,0.7,4.2,1.4,6.2,2.1l0,0
		c2.7,0.8,5.4,1.6,8.1,2.2c0.8,0.2,1.7,0.4,2.5,0.6l1.2,0.3c0.8,0.2,1.5,0.3,2.3,0.5l1.3,0.2l2,0.4l1.1,0.2l2.7,0.4l1.1,0.1l2.3,0.3
		l0.7,0.1l2.9,0.3l0.9,0.1l3,0.2h0.6c0.9,0.1,1.8,0.1,2.7,0.1h0.6c1,0,2.1,0.1,3.1,0.1h0.7h3.2l0,0h2.5h0.1c0.8,0,1.6,0,2.4-0.1h0.4
		l2.6-0.1l9-0.8c1.4-0.2,2.8-0.4,4.1-0.6c5-0.8,9.9-1.8,14.8-3c-2.4-1.1-3.9-4.3-2.1-6.8c-1.7,0.6-3.5,0.1-4.6-1.2l0,0h-0.1h-0.2
		c-6.6,1.5-13.3,2.5-20.1,2.9c-1.4,0.1-2.8,0.2-4.1,0.2l0,0c-1.7,0.1-3.5,0.1-5.3,0.1c-1,0-2.1,0-3.1,0H207l-3-0.1h-0.6l-2.4-0.2
		l-1-0.1c-0.9-0.1-1.8-0.1-2.7-0.2l-1.1-0.1l-1.7-0.2l-1.4-0.2c-0.8-0.1-1.6-0.2-2.3-0.3l-1.6-0.3l-1-0.2c-2-0.3-3.9-0.7-5.8-1.1
		l-0.4-0.1c-2.1-0.5-4.1-0.9-6.1-1.5c-3.4-0.9-6.7-1.9-10-3.1l0,0l-2.3-0.9l-0.2-0.1c-0.6-0.2-1.2-0.5-1.8-0.7
		c-1.8-0.7-3.5-1.4-5.3-2.2l0,0l0,0l-2-0.9l-0.5-0.2c-2-1-4-2-6-3l-0.3-0.1l-1.8-1l-0.5-0.3c-1.9-1-3.7-2.1-5.5-3.3l-0.5-0.3
		l-1.7-1.1l-0.5-0.3c-1.8-1.2-3.5-2.4-5.3-3.7l-0.5-0.4c-0.5-0.4-1.1-0.8-1.6-1.2l-0.6-0.4c-1.7-1.3-3.3-2.6-4.9-3.9l-0.6-0.5
		l-1.6-1.3l-0.4-0.4c-1-0.9-2-1.8-2.9-2.6l-0.4-0.3l-1.3-1.3l-0.6-0.6l-1.4-1.3l-0.5-0.5c-0.8-0.8-1.6-1.7-2.4-2.5l-0.6-0.7
		c-0.4-0.4-0.8-0.8-1.2-1.3l-0.7-0.8l-1.1-1.3c-0.2-0.3-0.5-0.6-0.7-0.8c-0.6-0.7-1.2-1.5-1.8-2.2l-0.8-1l-1-1.2l-0.8-1
		c-0.3-0.4-0.6-0.8-0.9-1.2c-0.5-0.7-1-1.3-1.5-2l-0.8-1.2l-0.8-1.2c-0.3-0.4-0.6-0.8-0.8-1.2l-0.8-1.3c-0.2-0.4-0.5-0.7-0.7-1.1
		c-0.5-0.7-0.9-1.5-1.4-2.2l-0.6-1c-0.3-0.5-0.6-1-0.9-1.4l-0.6-1.1l-0.9-1.6c-0.2-0.3-0.4-0.6-0.5-1c-0.4-0.8-0.8-1.6-1.2-2.3
		l-0.5-1c-0.3-0.6-0.5-1.1-0.8-1.7c-0.2-0.3-0.3-0.7-0.5-1c-0.3-0.7-0.6-1.3-0.9-2l-0.5-1c-0.3-0.7-0.6-1.4-0.9-2.1l-0.5-1.1
		c-0.2-0.6-0.5-1.2-0.7-1.8c-0.1-0.3-0.3-0.7-0.4-1c-0.3-0.9-0.7-1.7-1-2.6c-0.1-0.2-0.1-0.4-0.2-0.6c-0.3-0.7-0.5-1.5-0.8-2.2
		c-0.1-0.3-0.2-0.7-0.3-1l-0.6-2c-0.1-0.3-0.2-0.6-0.3-0.9c-0.3-0.9-0.6-1.9-0.8-2.8l-0.2-0.6c-0.2-0.8-0.4-1.5-0.6-2.3l-0.2-0.9
		c-0.2-0.8-0.4-1.5-0.5-2.2l-0.2-0.7c-0.2-1-0.4-1.9-0.6-2.9l-0.1-0.7c-0.2-0.8-0.3-1.5-0.4-2.2l-0.2-1c-0.1-0.8-0.3-1.6-0.4-2.4
		c0-0.2-0.1-0.4-0.1-0.6c-0.1-1-0.3-2-0.4-3c0-0.2-0.1-0.5-0.1-0.8l-0.3-2.4l-0.1-0.9c-0.1-0.9-0.2-1.8-0.2-2.8v-0.4
		c-0.1-1-0.1-2.1-0.2-3.1c0-0.3,0-0.6,0-0.9c0-0.8-0.1-1.6-0.1-2.3c0-0.3,0-0.6,0-0.9c0-1,0-2.1,0-3.1
		c0-74.6,60.7-135.3,135.2-135.3h1.4h1.7c1.6,0,3.1,0.1,4.7,0.2l1.8,0.1v0.1l0.1,1.8c0,1.4,0,2.7,0.1,4.1v0.1
		c0,3.9-0.1,7.7-0.4,11.6c-0.4,4.7-1.1,9.4-2.1,14.1c-0.1,0.5-0.2,1-0.3,1.5c-0.3,1.3-0.7,2.5-1,3.8s-0.8,2.5-1.3,3.7
		c-0.9,2.4-2,4.7-3.4,6.9l-0.1,0.1c0,0-2.1,3.3-6.4,9.1c0.1,0.4,0.3,0.7,0.4,1c0.3-0.3,0.6-0.6,0.9-0.9c1.1-1.2,2.2-2.6,3.3-3.9
		s2-2.5,2.9-3.8c1.7-2.4,3.1-5.1,4.2-7.8c0.5-1.2,1-2.5,1.4-3.8s0.8-2.6,1.2-3.9c1.4-5.2,2.4-10.5,3-15.8c0.5-3.9,0.7-7.8,0.8-11.7
		c0-1.5,0.1-3,0.1-4.4v-1.6v-0.6c0.2,0.2,0.4,0.4,0.5,0.7c1.9,2.4,4,4.7,6.2,6.8c1.3,1.3,2.7,2.6,4.1,3.8c8.1,7.1,16.8,13.4,26,18.9
		c9.2,5.6,18.8,10.4,28.9,14.3c5,2.1,10.2,3.6,15.6,4.6c0.7,0.1,1.5,0.2,2.2,0.3c1.2,0.1,2.4,0.2,3.6,0.2l-1.9,1.7l-2.4,2.1
		c-4,3.6-7.8,7.5-11.4,11.5c-3.6,4-6.9,8.2-9.9,12.6l-2.2,3.4c-0.7,1.1-1.4,2.3-2,3.5c-0.6,1-1.1,2.1-1.6,3.1l-6.5,12.6
		c-0.6,0.2-1.3,0.3-1.9,0.4c-1.2,0-2.4,0-3.5-0.1c-2.4-0.2-4.8-0.6-7.1-1.1c-4.8-0.9-9.5-2.2-14.1-3.6c-0.1,0-0.1,0-0.1,0.1
		c0,0,0,0.1,0.1,0.1c4.6,1.7,9.2,3.3,13.9,4.6c2.4,0.7,4.8,1.2,7.2,1.6c1.2,0.2,2.5,0.3,3.8,0.4c1.4,0.1,2.7-0.1,4.1-0.5h0.1
		c0.4-0.2,0.6-0.6,0.6-1l5.1-11.8c2.1-3.5,4.3-6.8,6.8-10c0.8-1.1,1.6-2.1,2.4-3.1c0.6-0.8,1.3-1.6,1.9-2.3c0.2-0.2,0.4-0.5,0.6-0.7
		l2.6-3l2.6-2.9c3.6-3.8,7.3-7.5,11.2-11.1l2.2-2h0c0.5-0.4,0.9-0.8,1.4-1.2c0.7-0.7,1.5-1.3,2.2-1.9c0.3-0.3,0.6-0.5,0.9-0.8l0,0
		c0.1,0.1,0.2,0.3,0.4,0.4l1.2,1.4l0.6,0.8l1.1,1.5l0.6,0.8c0.4,0.5,0.7,1,1.1,1.4l0.6,0.8l1,1.5l0.6,0.8l1,1.6l0.5,0.8
		c0.3,0.5,0.7,1,1,1.6l0.5,0.8c0.3,0.5,0.6,1.1,1,1.6l0.5,0.8l0.9,1.6l0.5,0.9c0.3,0.5,0.6,1,0.9,1.6l0.5,1l0.8,1.5l0.5,1l0.8,1.5
		c0.2,0.3,0.4,0.7,0.5,1.1s0.5,1,0.7,1.5s0.3,0.7,0.5,1.1s0.5,1,0.7,1.5s0.3,0.8,0.5,1.2s0.4,1,0.6,1.5s0.3,0.8,0.5,1.1l0.6,1.5
		c0.1,0.4,0.3,0.8,0.4,1.2s0.4,1,0.6,1.5s0.3,0.8,0.4,1.2s0.4,1,0.5,1.6s0.3,0.8,0.4,1.2s0.3,1,0.5,1.5s0.3,0.9,0.4,1.3
		s0.3,1,0.4,1.4s0.3,0.9,0.4,1.4s0.3,0.9,0.4,1.4s0.2,0.9,0.4,1.4s0.2,1,0.4,1.4s0.2,0.9,0.3,1.3l0.4,1.5c0.1,0.5,0.2,0.9,0.3,1.4
		s0.2,1,0.3,1.4l0.3,1.4c0.1,0.5,0.2,1,0.3,1.5s0.1,0.9,0.2,1.3s0.2,1,0.3,1.6l0.2,1.5l0.2,1.5c0.1,0.5,0.1,1.1,0.2,1.6
		s0.1,0.9,0.2,1.3s0.1,1.1,0.2,1.7s0.1,0.9,0.1,1.3s0.1,1.1,0.1,1.7s0.1,0.9,0.1,1.3l0.1,1.6c0,0.5,0,0.9,0.1,1.4s0,1,0,1.4
		s0,1.1,0,1.6c0,1,0,2,0,3s0,2,0,3c0,0.3,0,0.5,0,0.8c0,0.8,0,1.7-0.1,2.5v0.6c-0.1,2.1-0.3,4.2-0.5,6.3c0,0,0,0.1,0,0.1
		c-4.6,45.7-32,86-72.8,107c0.7,1.7-0.1,3.7-1.8,4.5c0.9,1.8,0.2,4-1.6,4.9c-0.1,0-0.1,0.1-0.2,0.1c0.3,0.9,0.2,1.9-0.1,2.8
		C342.1,256.8,376.7,172.8,346.8,99.2z M319.7,64.2c0,0,0,0.1,0,0.1c0,0.1-0.1,0.2-0.1,0.3c-0.7,0.8-1.7,1.4-2.8,1.7
		c-0.8,0.2-1.6,0.4-2.4,0.5c-0.4,0.1-0.7,0.2-1.1,0.2H313h-0.7h-0.1c-0.5,0-0.9,0-1.4,0c-0.8,0-1.6-0.1-2.4-0.2l0,0
		c-1-0.1-1.9-0.2-2.9-0.4l-1.3-0.2c-4.7-1-9.4-2.3-13.9-3.9c-5-1.8-10-3.8-14.8-6.2c-4.8-2.3-9.4-4.9-14-7.6
		c-9.2-5.4-17.8-11.6-25.9-18.5l-1.3-1.2l-0.6-0.6l-0.3-0.2l-0.4-0.3l-0.8-0.7l-0.5-0.5l-0.9-0.9l0,0c-2.3-2.2-4.4-4.5-6.3-7
		c-0.4-0.5-0.7-1-1-1.5c-1.2-1.6-2.2-3.3-3.1-5.1c-0.6-1.2-1-2.6-1.1-3.9l0,0c-0.1-1,0.1-2.1,0.6-3c0.3-0.3,0.6-0.7,0.9-0.9
		c0.5-0.5,1.1-0.9,1.8-1.2c1.2-0.5,2.4-0.7,3.7-0.8c2.6-0.2,5.2,0,7.8,0.4c5.2,0.9,10.4,2.3,15.4,4.1c5,1.8,9.9,4,14.6,6.4
		c4.8,2.4,9.4,5,14,7.7c9.1,5.5,17.8,11.8,25.8,18.8c3.8,3.3,7.2,6.9,10.4,10.8c0.2,0.2,0.4,0.5,0.5,0.7c1.4,1.8,2.6,3.7,3.6,5.8
		c0.1,0.3,0.3,0.5,0.4,0.8C320,60,320.5,62.4,319.7,64.2z"/>
	<path class="st0" d="M281.5,156.7c-0.1-0.4-0.2-0.8-0.4-1.2c-0.4-0.9-1-1.8-1.8-2.6c-1.4-1.6-3.3-2.5-5.4-2.7h-0.1
		c-1.9,1.5-3.7,3.1-5.4,4.9c-0.2,0.3-0.3,0.5-0.5,0.7h-0.1c-0.5,0.6-0.9,1.1-1.3,1.7h0.1l-0.4,0.5c-0.4,0.3-0.7,0.7-1,1.1
		c-1.3,1.1-2.6,2.2-3.8,3.4c-0.2,0.2-0.4,0.4-0.5,0.7c0,0.1-0.1,0.3-0.1,0.5l0.1-0.1l0,0c0-0.1,0.1-0.1,0.1-0.2l0.1-0.1l0.1-0.1
		l0-0.1l0,0l0,0l0,0c0.2-0.2,0.3-0.4,0.5-0.6c1.6-1.7,3.7-2.9,5.9-3.5c0.6-0.1,1.2-0.2,1.8-0.2c0.6,0,1.2,0.1,1.8,0.2
		c1.2,0.2,2.2,0.8,3.1,1.6c0.2,0.2,0.2,0.4,0.1,0.6c-0.1,0.2-0.4,0.2-0.6,0.1h-0.1c-0.9-0.4-1.8-0.6-2.8-0.7c-0.5,0-0.9,0-1.4,0.1
		c-0.5,0.1-0.9,0.2-1.4,0.3c-1.8,0.7-3.4,1.8-4.8,3.1c-1.4,1.5-2.7,3-3.9,4.7l-0.1,0.2l-0.3,1.2c-0.1,0.3-0.1,0.6-0.2,0.9
		c-0.1,0.6-0.2,1.1-0.4,1.6c-0.1,0.5-0.2,1-0.3,1.5c0,0.1,0,0.2-0.1,0.4c-0.1,0.6-0.2,1.1-0.4,1.6l-0.2,0.7l-0.1,0.5
		c-0.1,0.3-0.1,0.5-0.2,0.8c0,0.2-0.1,0.3-0.2,0.5c-0.9,2.1-1,2.2-6.7,4.1c-0.6,0.3-1.3,0.3-2,0.2c-2.5-0.6-0.1-6.1,0.5-9.2
		c0.1-0.7,0.2-1.7,0.2-2.8c0.3-4.4-0.1-11.1-2.1-14.7c0.5-0.2,1-0.4,1.4-0.7c1.7-1.5,3.2-3.3,4.4-5.2c-6.9,0.1-13.7-1.1-20.2-3.6
		c-15.1-6.7-28.7-16.5-39.9-28.8c-1.1,1.5-2.1,3.2-3.1,4.9c-0.5,1.7-0.7,3.5-0.6,5.3v-0.1c0,0.1,0.1,0.3,0.1,0.4
		c0,0.2,0.1,0.3,0.2,0.5c0.1,0.3,0.3,0.5,0.5,0.8l0.1,0.1c0.2,0.2,0.2,0.5,0,0.7c-0.1,0.1-0.2,0.1-0.4,0.1c-0.5-0.1-1-0.3-1.4-0.6
		c-0.2-0.1-0.4-0.3-0.5-0.5c-0.2-0.2-0.3-0.4-0.5-0.6V129c-1.1-2-1.7-4.2-1.9-6.5c-0.3-2.4,0-4.9,0.9-7.2c0.2-0.5,0.5-0.9,0.8-1.4
		c0.2-0.7,0.5-1.3,0.8-1.9c-2.2-2.8-4.2-5.7-6.1-8.8c-1.5,2.7-3,5.4-4.3,8.1c-2,3.7-3.6,7.6-4.9,11.5c-0.1,0.4-0.2,0.8-0.3,1.2l0,0
		c0,0,0,0,0,0.1s-0.1,0.3-0.1,0.4c0,0.1-0.1,0.4-0.1,0.6v0.1l0,0l-0.2,1.1v0.1c0,0.2-0.1,0.4-0.1,0.7s-0.1,0.6-0.1,0.8l-0.1,0.6
		c-0.1,0.4-0.1,0.8-0.1,1.2v0.2c-0.1,0.5-0.1,1-0.2,1.6c0,0.1,0,0.2,0,0.4c0,0.4-0.1,0.8-0.1,1.2v0.4l0,0c0,0,0,0,0,0.1
		c0,0.5-0.1,1-0.1,1.4c-0.1,1.1-0.2,2.1-0.3,3.2c-0.1,0.6-0.2,1.2-0.4,1.8c-0.1,0.3-0.2,0.6-0.4,0.9c-0.1,0.3-0.3,0.5-0.4,0.8
		c-1.1,1.9-2.2,3.7-3.3,5.5l-1.9,3.2l-0.3,0.4l-1.2,1.8c-0.3,0.5-0.6,1-0.9,1.6c0,0,0,0.1-0.1,0.1c-0.4,0.6-0.7,1.2-1.1,1.8
		l-0.7,1.3l-0.2,0.4l-0.2,0.4c-1,1.8-2,3.7-2.8,5.6c-0.2,0.5-0.4,0.9-0.6,1.4l-0.3,0.7c-0.1,0.2-0.1,0.4-0.2,0.6
		c-0.1,0.2-0.1,0.4-0.1,0.6l-0.1,0.7l-0.1,0.7v0.7c0,2,0.2,4,0.6,6c0.2,0.9,0.4,1.7,0.6,2.6l-0.1-0.1c0,0,0,0,0,0.1l-0.7-0.4
		c-0.9-0.5-1.9-1.1-2.8-1.7l-0.6-0.4c-0.8-0.6-1.8-1.3-2.5-2c-1.1-0.9-2-2-2.9-3.1c-0.9-1-1.5-2.3-1.8-3.6c-0.4-2.7,1.2-5.4,3.2-7.1
		l0,0l0,0c0.2-0.2,0.2-0.5,0.1-0.6c-0.1-0.1-0.2-0.2-0.3-0.2c-1.9-0.1-3.9,0.4-5.6,1.4c-1.7,1-3.1,2.4-3.9,4.2
		c-0.7,1.7-1.1,3.6-1.2,5.5c0,0.9,0,1.9,0.1,2.8l0.4,2.8c1,6.1,3.6,12.2,8.3,16.5c0.7,0.7,1.4,1.3,2.2,1.8c1.4,1,2.9,2,4.5,2.8
		c-6.2,1.1-13.5,3.4-24.2,9.7c-4.3,2.6-7.9,4.9-10.9,6.9c-10.2,7-13.8,11.2-14.3,11.7c-0.1,0.1-0.4,0.4-0.7,0.9
		c-0.1,0.1-0.2,0.3-0.3,0.5l0,0l0.6,0.9l0,0c0.2,0.3,0.4,0.6,0.6,0.9l0.3-0.5l0.1-0.1l0.1-0.2l0.2-0.2l0,0l0.2-0.2l0.1-0.1l0.2-0.3
		l0.1-0.1v-0.1l0.1-0.1c0-0.1,5.7-7,24.7-18.2l1.2-0.7l0.6-0.3l0.5-0.3l0.7-0.4l0.3-0.2c9.5-5.3,16.2-7.1,21.9-7.9
		c0,0.1-0.1,0.3-0.2,0.4l-0.9,2.7c-1.2,3.6-2.4,7.2-3.8,10.7s-3.2,6.9-4.9,10.3c-0.9,1.7-1.7,3.5-2.3,5.3c-0.4,0.9-0.6,1.9-0.8,2.9
		c-0.1,0.5-0.2,1.1-0.1,1.7l0.1,0.5c0,0.2,0.1,0.4,0.1,0.6c0.1,0.2,0.2,0.4,0.4,0.6c0.1,0.1,0.2,0.2,0.4,0.3
		c0.1,0.1,0.2,0.1,0.2,0.1l0.2,0.1l0,0l0.3,0.1h-0.2c4.1,1.5,8.2,2.9,12.4,4.1c-2.1,2.1-4.1,4.2-6.3,6.2l-1.9,1.8
		c-0.6,0.7-1.2,1.4-1.7,2.2c-0.9,1.6-1.6,3.3-1.9,5.1c-0.7,3.6-0.5,7.3,0.7,10.8c0.2,0.6,0.4,1.2,0.6,1.7c0,0.1,0,0.1,0.1,0.2
		c1.1,0.7,2.3,1.3,3.4,2c-0.8-1.5-1.5-3-2-4.6c-1.2-3.1-1.5-6.5-1.1-9.8c0.3-1.6,0.8-3.2,1.6-4.6c0.4-0.7,0.8-1.4,1.4-1.9l1.9-1.8
		c2.5-2.4,5.1-4.7,7.7-7c0.1-0.1,0.2-0.2,0.2-0.4c0.2-0.5,0-1-0.5-1.2c0,0,0,0,0,0h-0.1l0,0c-4.5-1.9-9.1-3.4-13.7-4.9l0,0v-0.2
		c0-0.4,0-0.8,0-1.2c0.1-0.9,0.3-1.8,0.6-2.6c0.5-1.8,1.2-3.6,1.9-5.3c0.7-1.8,1.6-3.4,2.3-5.2s1.5-3.5,2.2-5.3
		c1.4-3.6,2.6-7.2,3.8-10.8l0.9-2.7c0.1-0.3,0.2-0.6,0.4-0.9c0.5,0.2,1,0.5,1.5,0.6c0.5,0.2,1.1,0.4,1.7,0.5l0,0
		c0.4,0.1,0.9,0.2,1.3,0.4h0.1c0.5,0.1,0.9,0.2,1.4,0.3c0,0.1,0,0.1,0,0.2c0.4,2.2,0.6,4.5,0.5,6.8c0,1.1-0.1,2.1-0.1,3
		c0,0.4,0.1,0.9,0.1,1.3l0.1,0.7c0,0.2,0.1,0.3,0.1,0.5c0.8,1.6,1.9,3.1,3.2,4.4c3,2.8,6.2,5.4,9.6,7.6c1.7,1.2,3.5,2.2,5.3,3.4
		c1.7,1.1,3.4,2,5.2,2.9c3.6,1.4,7.5,1.6,11.2,0.6c4-1,7.8-2.4,11.5-4.2c3.2-1.5,6.2-3.2,9.2-5c0.3,0.1,0.5,0.3,0.8,0.4l0,0l0.6,0.3
		l2.1,1c0.3,0.1,0.6,0.2,0.9,0.3c-3.8,2.5-7.7,4.7-11.8,6.7c-3.9,2-8.1,3.5-12.3,4.6c-2.2,0.6-4.5,0.8-6.9,0.8
		c-2.4-0.1-4.7-0.6-6.9-1.5c-2.1-0.9-4-2-5.9-3.2c-1.8-1.1-3.6-2.3-5.4-3.5c-0.8-0.6-1.6-1.1-2.4-1.7c8.9,7.9,19,16.4,21.1,17.3
		c0.5,0.2,1.3,0.5,1.2,1.4c0.5-0.2,1-0.3,1.5-0.3c0.9-0.1,1.7-0.1,2.6,0h0.2h0.1c0.9,0,1.9,0.1,2.7,0.5c0.2,0.1,0.3,0.1,0.4,0.2
		c1.3-1,2.6-1.9,4-2.8l1.3-0.8c0.4-0.2,0.9-0.5,1.4-0.8c1-0.5,2-0.8,3-1.1l0.8-0.2c5.1-2.9,15.1-8.9,19.5-14.2
		c0.2-0.3,0.5-0.6,0.7-0.9c0.6-0.9,1.3-1.7,2-2.4c-0.3,0.1-0.7,0.1-1,0.1h-0.5H232h-0.5h-0.1h-0.8h-0.2c-0.3,0-0.6,0-1,0
		s-0.5,0-0.7-0.1h-0.3h-0.2h-0.1c-0.7-0.1-1.3-0.2-2-0.4l-0.2-0.1c-0.2-0.1-0.5,0-0.7-0.1c-0.7-0.2-1.4-0.4-2-0.7l-1.8-0.8l-0.2-0.1
		c-2.7-1.3-5.3-2.8-7.9-4.4c-5.1-3.3-9.9-6.9-14.3-11c-1.1-1-2.3-2-3.6-3c-1.3-1-2.8-1.9-4.3-2.5c-3-1.1-6.2-1.6-9.4-1.7
		c-3.1-0.1-6.2,0.1-9.3,0.5c-0.8,0.1-1.5,0.2-2.2,0.2c-0.7,0.1-1.5,0.1-2.2,0.1c-1.5,0-3-0.1-4.4-0.3c-1.5-0.2-3-0.6-4.4-1
		c-0.7-0.2-1.3-0.4-2-0.6c-3.5-1.2-6.7-3.1-9.4-5.6c-0.6-0.5-1.1-1-1.6-1.6l-1.4-1.7c-0.4-0.6-0.8-1.2-1.2-1.8
		c-0.2-0.3-0.4-0.6-0.6-0.9l-0.5-1c-1.4-2.7-2.3-5.5-2.8-8.5l-0.4-2.7c-0.1-0.9-0.1-1.8-0.1-2.7c0-1.8,0.3-3.5,1-5.1
		c0.7-1.6,1.9-2.9,3.4-3.8c1.2-0.7,2.6-1.1,4-1.2c-0.8,0.8-1.5,1.6-2,2.6c-0.7,1.4-1,2.9-0.8,4.5c0.3,1.5,1,2.9,1.9,4.1
		c0.9,1.2,1.9,2.3,3,3.2c2.2,1.9,4.6,3.6,7.2,4.9c1.3,0.7,2.7,1.2,4.1,1.6c1.4,0.3,2.9,0.5,4.4,0.4c2.9-0.1,5.8-0.4,8.7-0.6h0.7
		c-0.8-1.7-0.8-3.7-0.1-5.4c0.4-1,0.9-1.9,1.5-2.7c1.3-1.6,3-2.8,5-3.4c0.9-0.3,1.9-0.6,2.8-0.7c0.4,0,0.8,0,1.2,0l0,0
		c0,0,0,0.1,0.1,0.1v0.1l0,0v0.1c-0.1,0.1-0.2,0.1-0.2,0.2l-0.9,0.4c-0.9,0.3-1.7,0.6-2.5,1c-1.6,0.7-3,1.8-4,3.2
		c-1,1.3-1.5,3-1.3,4.6c0.1,0.8,0.4,1.6,0.9,2.4c0.4,0.7,0.9,1.3,1.4,1.9c1.2,1.3,2.6,2.4,4.1,3.4l1.1,0.8l1.1,0.7
		c0.8,0.5,1.5,0.9,2.3,1.4c3.8,2.3,8.2,3.2,12.6,2.6c0.9-0.1,1.7-0.3,2.5-0.5c0.7-0.2,1.3-0.6,1.9-1c0.6-0.4,1.1-1,1.6-1.5
		c0.2-0.1,0.3-0.3,0.4-0.4c0.5-0.7,0.9-1.5,1.2-2.3c0.3-0.8,0.5-1.6,0.5-2.5l-0.1-0.7c0-0.2,0-0.5,0.1-0.7l0,0l0.1-0.1l0,0l0.2,0.1
		c0.2,0.2,0.3,0.4,0.4,0.6c0.1,0.2,0.1,0.5,0.2,0.7c0.2,1,0.1,2-0.1,3c-0.2,1-0.6,1.9-1.1,2.8c-0.1,0.1-0.1,0.2-0.2,0.3
		c2.4,1.2,4.5,2.8,6.3,4.7l1,1c3.7,3.8,7.4,7.6,11.4,11.1c2.2,2,4.6,3.7,7.1,5.1h0.1h0.1l0.5,0.2h0.1l0.4,0.1l0,0c0-0.3,0-0.7,0.1-1
		c-0.2-0.1-0.4-0.1-0.5-0.2l0.8-0.8c0,0,0,0,0-0.1c0.3-0.8,0.9-1.5,1.7-1.9c-2.2-1.4-2.1-6,0.4-6.8c-1.2-1.3-1.6-3.2-1.1-4.9l0,0
		c0-0.1,0.1-0.2,0.1-0.3c0-0.1,0-0.1,0.1-0.2c0-0.1,0.1-0.1,0.1-0.2l0.1-0.2l0.2-0.2l0.1-0.1l0.3-0.2l0.1-0.1
		c0.1-0.1,0.2-0.1,0.3-0.2c-1.3-1.8-1.5-4.9,0.4-5.9c-1.3-1.2-1.4-4.3,0-5.1c-0.2-0.6-0.5-1.1-0.7-1.6c0-0.4,0-0.8,0-1.2
		c0.1-0.1,0.1-0.2,0.1-0.4l0,0c0.2-0.8,0.3-1.6,0.2-2.3l0,0c-0.2,0.3-0.5,0.7-0.8,1l-0.1,0.1c-0.3,0.3-0.6,0.6-0.9,0.9
		c-1.5,1.5-3.3,2.7-5.3,3.6c-2,0.9-4.1,1.3-6.2,1.4c-3.4,0.5-6.9-0.2-9.8-2c-1.5-0.9-2.8-2-3.9-3.2c-0.6-0.6-1-1.3-1.5-2
		c-0.5-0.7-0.9-1.4-1.3-2.2c-1.6-3-2-6.5-1.4-9.9c0.7-3.3,2.4-6.3,4.9-8.6c0.9-0.9,2-1.6,3.1-2.3c-0.7-0.2-1.4-0.5-2.1-0.9
		c-0.8-0.5-1.5-1.1-2.1-1.7c-0.3-0.3-0.6-0.6-0.9-1c-0.3-0.4-0.5-0.8-0.7-1.2c-0.4-0.9-0.1-1.9,0.8-2.4c0.3-0.2,0.6-0.2,1-0.2
		l1.3,0.1c0.3,0.1,0.5,0.2,0.8,0.3c0.3,0.1,0.6,0.2,0.8,0.3c0.5,0.2,1,0.4,1.6,0.5c0.5,0.1,1,0.2,1.5,0.3c0.5,0.1,0.9,0.1,1.4,0.2
		c0.2,0,0.5,0,0.8,0s0.7,0,1-0.1l2.1-0.2l4.3-0.5c1.5-0.2,3.1-0.2,4.6-0.2c0.9,0,1.8,0.2,2.6,0.4c0.9,0.2,1.7,0.6,2.5,1.1
		c2.6,1.6,4.9,3.5,7,5.6c0.3,0.3,0.3,0.8,0,1.1c-0.2,0.2-0.5,0.3-0.8,0.2l0,0c-2.7-1-5.4-2.2-7.9-3.1c-0.5-0.2-1-0.3-1.6-0.4
		c-0.6,0-1.1,0-1.6,0.1c-0.6,0.1-1.4,0.2-2,0.4c0.3,0.1,0.6,0.1,0.9,0.2c3.1,1.1,5.8,3.1,7.7,5.7c1,1.3,1.8,2.8,2.3,4.3
		c0.1,0.4,0.2,0.7,0.3,1c0,0,0,0,0,0.1c0.1,0.4,0.2,0.7,0.2,1.1v0.1c0.1,0.4,0.1,0.7,0.2,1.1l0,0c0.1,0.4,0.1,0.8,0.1,1.1
		c1.3,0,2.6,0.5,3.6,1.3c0.1,0.1,0.3,0.2,0.4,0.4c0.8,0.9,1.3,2.1,1.4,3.3c0.1,1.4-0.5,2.9-1.4,3.9c-0.1,0.1-0.2,0.1-0.4,0.2l0,0
		c0,0.1,0,0.1,0,0.2l0,0c0,0.1,0,0.2-0.1,0.3v0.1c0,0.1,0,0.1,0,0.2c0,0.1,0,0.1-0.1,0.2v0.1c0,0.1-0.1,0.2-0.1,0.3
		c1.2,1,1.3,3.8-0.1,4.5c1.6,1.8,0.9,4.2-0.2,5.6c1.4,1.8,1.1,5.1-0.6,5.9c0.9,0.9,1.4,2.2,1.2,3.5c0.6-1.1,1.5-2,2.1-3.1l0.7-1.3
		l0.2-0.4l0.5-1c0.3-0.7,0.6-1.3,0.9-2c0.1-0.4,0.3-0.8,0.4-1.2c0,0,0-0.1,0-0.1c0.2-0.5,0.3-1,0.4-1.6v-0.1c0-0.2,0.3-0.4,0.5-0.4
		c0,0,0,0,0,0c0.2,0,0.4,0.2,0.4,0.4c0.1,0.7,0.1,1.3,0.1,2c0,0.6-0.1,1.3-0.1,1.9c0,0.2-0.1,0.5-0.1,0.7c0.1,0,0.1,0.1,0.2,0.1
		l0.3,0.1c0.2,0,0.4,0,0.6,0c0.8,0.1,1.6,0.1,2.4,0c1.1-0.2,2.2-0.6,3.3-1.1c1-0.5,2-1.1,2.9-1.8l0.6-0.5l0.5-0.5l1.3-1.6l2.6-3
		c3.4-4,6.9-8,9.9-12.1c1.5-2.1,3-4.2,4.3-6.4c0.6-1.1,1.2-2.2,1.8-3.3c0.5-1,0.9-2.1,1.2-3.2c0-0.2,0.1-0.4,0.1-0.6
		C281.6,157,281.6,156.8,281.5,156.7z M178.5,202.7c2.2-0.1,4.3,0.1,6.5,0.6c1.1,0.3,2.2,0.7,3.2,1.2c0.5,0.3,1,0.6,1.5,1l0.4,0.3
		l0.3,0.2c0.2,0.2,0.4,0.3,0.6,0.5c0.7,0.6,1.5,1.3,2.2,1.9c0.8,0.6,1.6,1.1,2.5,1.5c1.8,0.8,3.8,1.4,5.8,1.7l0,0
		c0.3,0,0.4,0.3,0.4,0.5c0,0.2-0.2,0.4-0.4,0.4c-2.2,0.4-4.5,0.2-6.6-0.6c-2.2-0.7-4.1-2-5.6-3.8c-0.2-0.2-0.4-0.4-0.5-0.7l-0.4-0.6
		c-0.3-0.4-0.6-0.7-0.9-1c-0.8-0.6-1.6-1.1-2.6-1.4c-1.9-0.7-4-1-6-1l0,0c-0.3,0-0.5-0.2-0.5-0.4c0,0,0,0,0,0
		C178.1,202.9,178.3,202.6,178.5,202.7L178.5,202.7z"/>
	<path class="st0" d="M161.1,149.9l0.1-0.2l2.3-3.6c0.6-0.9,1.2-1.9,1.8-2.9c0-0.1,0-0.2,0-0.3c0,0,0-0.1,0-0.1c0-0.1,0-0.1,0-0.2
		s0-0.1,0-0.2c0,0,0-0.1,0-0.1c0-0.1,0-0.2,0-0.3l0,0c-0.4-1.2-0.7-2.3-1.1-3.5c-0.6-1.8-1.1-3.6-1.8-5.3c-0.3-0.9-0.7-1.7-1.1-2.5
		c-0.3-0.8-0.8-1.5-1.4-2.1c-0.5-0.6-1.2-1-2-1.1c-0.8-0.2-1.7-0.1-2.5,0.1l0,0c-0.2,0.1-0.5-0.1-0.6-0.3c-0.1-0.2,0-0.4,0.2-0.5
		c1-0.5,2-0.8,3.1-0.7c1.1,0.1,2.2,0.5,3.1,1.2c0.8,0.7,1.5,1.6,2,2.5c0.5,0.9,0.9,1.8,1.3,2.7c0.1,0.4,0.3,0.7,0.4,1.1
		s0.2,0.7,0.4,1l0,0l0,0c0-0.3,0-0.5,0-0.8c0-0.1,0-0.1,0-0.2c0-0.6,0-1.1,0-1.7c0-0.1,0-0.2,0-0.3s0-0.4,0-0.6s0-0.2,0-0.4
		s0-0.4,0-0.6c0-0.5,0-1,0-1.5v-0.5c0-0.1,0-0.1,0-0.2c0-0.5,0-1.1,0.1-1.6s0-0.9,0.1-1.3c0.1-0.4,0-0.7,0-1.1s0-0.7,0.1-1
		c0-0.1,0-0.2,0-0.2c0-0.4,0-0.8,0.1-1.2c0-0.2,0-0.4,0-0.6l0,0l-0.1-0.1l-0.4-0.3c-0.1-0.1-0.2-0.1-0.3-0.2l-0.3-0.2l-0.3-0.1
		l-0.3-0.2l-0.3-0.1l-0.3-0.1l-0.3-0.1l-0.4-0.1l-0.2-0.1l-0.4-0.1l-0.2-0.1c-0.2-0.1-0.4-0.1-0.6-0.2c-0.9-0.2-1.9-0.3-2.8-0.2
		c-0.9,0-1.8,0.2-2.6,0.5c-0.8,0.3-1.6,0.7-2.3,1.3c-0.7,0.6-1.2,1.2-1.7,2c-0.9,1.6-1.4,3.4-1.5,5.2c-0.2,1.9-0.1,3.7,0.4,5.5
		c0.6,1.9,1.3,3.7,2.2,5.4c0.5,1,0.9,2,1.2,3.1c0.2,0.5,0.3,1.1,0.4,1.6l0.3,1.5c0.4,1.9,0.9,3.8,1.6,5.7c0.1,0.2,0.1,0.4,0.2,0.6
		c0,0.1,0.1,0.1,0.1,0.2l0.2,0.4l0.1,0.2l0.1,0.2l0.2,0.3l0,0c0.2,0.4,0.5,0.7,0.9,1.1l0,0c0.1,0.1,0.2,0.2,0.3,0.3
		C159.6,152.3,160.4,151.1,161.1,149.9z"/>
	<path class="st0" d="M202.8,251.7c0-0.1,0-0.1,0-0.2c0-0.1,0-0.1,0-0.2c0-0.2,0-0.3-0.1-0.5l0,0l-0.1-0.5l0,0l0,0c0,0,0-0.1,0-0.1
		c-0.1-0.6-0.4-1.2-0.7-1.8c0,0,0,0,0-0.1l-0.1-0.1c-0.1-0.1-0.2-0.3-0.3-0.4l-0.1-0.1c-0.1-0.1-0.2-0.2-0.2-0.2l-0.2-0.2l-0.1-0.1
		l0,0c-0.2-0.2-0.5-0.4-0.8-0.5c-0.7-0.3-1.5-0.5-2.3-0.5h-0.2c-1.4-0.2-2.8,0-4.1,0.7c0,0,0,0-0.1,0.1l-0.3,0.3
		c-0.1,0.1-0.2,0.2-0.3,0.3c-0.1,0.1-0.2,0.2-0.2,0.4c0,0,0,0.1-0.1,0.1c0,0,0,0.1,0,0.1l0,0l0,0l-0.1,0.3c-0.1,0.3-0.2,0.6-0.3,0.9
		l0,0c-0.1,0.3-0.1,0.6-0.2,0.9c0,0.1-0.1,0.3-0.1,0.4c0,0.2-0.1,0.4-0.1,0.5l0,0l0,0v0.6c0,0.2,0,0.4,0,0.6v0.1c0,0.3,0,0.5,0,0.8
		l0,0c0,0.3,0.1,0.5,0.1,0.8c0,0.1,0,0.2,0.1,0.3c0,0.1,0,0.2,0.1,0.4c0,0.1,0,0.3,0.1,0.4l0.1,0.5l0,0c0,0.1,0.1,0.1,0.1,0.2
		c0.1,0.2,0.1,0.3,0.2,0.4c0,0,0,0.1,0,0.1l0,0v0.1c0.1,0.1,0.1,0.2,0.2,0.3s0.1,0.2,0.2,0.3c0.2,0.2,0.3,0.4,0.6,0.6c0,0,0,0,0,0
		c0.2,0.2,0.5,0.3,0.7,0.4c0.2,0.1,0.3,0.1,0.5,0.1h0.1l0.5,0.1l0,0h0.4h0.1h0.5h0.7h0.7c0.3,0,0.6,0,0.9,0s0.3,0,0.5-0.1l0.5-0.1
		h0.1c0.1,0,0.3-0.1,0.4-0.1l0.2-0.1l0,0l0.2-0.1c0.2-0.1,0.3-0.2,0.5-0.3l0,0c0.4-0.2,0.6-0.6,0.9-0.9c0.2-0.3,0.3-0.6,0.4-0.9
		c0-0.1,0-0.1,0.1-0.2v-0.1v-0.2l0,0c0-0.1,0-0.3,0-0.5c0-0.4,0.1-0.7,0.1-1.1v-0.2l0,0l0,0c0-0.2,0-0.3,0-0.5s0-0.4,0-0.6
		S202.8,252,202.8,251.7z M201.8,252.9c-0.1,0.7-0.2,1.5-0.4,2.2c-0.1,0.4-0.3,0.8-0.6,1.2c-0.1,0.1-0.2,0.2-0.3,0.3
		c-0.5,0.3-1.1,0.6-1.7,0.6c-0.7,0.1-1.3,0.1-2,0c-0.6,0-1.3,0-1.9-0.1h-0.1c-0.5-0.2-0.8-0.6-1-1c-0.2-0.4-0.4-0.7-0.5-1.1
		c-0.3-0.9-0.5-1.9-0.5-2.9c0-0.7,0-1.5,0.1-2.2c0-0.2,0.1-0.4,0.1-0.7c0-0.1,0.1-0.2,0.1-0.4c0-0.1,0-0.1,0.1-0.2
		c0.1-0.2,0.2-0.4,0.4-0.6l0.3-0.2c1.1-0.7,2.4-1,3.7-0.9c1,0.1,1.9,0.4,2.6,1c0.3,0.3,0.6,0.6,0.8,0.9l0.1,0.1c0,0.1,0,0.1,0.1,0.1
		C201.8,250.2,202,251.5,201.8,252.9L201.8,252.9z"/>
	<path class="st1" d="M201.3,248.9c0,0-0.1-0.1-0.1-0.1l-0.1-0.1c-0.2-0.4-0.5-0.7-0.8-0.9c-0.8-0.6-1.7-0.9-2.6-1
		c-1.3-0.1-2.6,0.2-3.7,0.9l-0.3,0.2c-0.2,0.2-0.3,0.4-0.4,0.6c0,0.1,0,0.1-0.1,0.2c0,0.1-0.1,0.2-0.1,0.4c-0.1,0.2-0.1,0.5-0.1,0.7
		c-0.1,0.7-0.2,1.4-0.1,2.2c0,1,0.2,2,0.5,2.9c0.1,0.4,0.3,0.8,0.5,1.1c0.2,0.5,0.5,0.9,1,1h0.1c0.6,0.1,1.3,0.2,1.9,0.1
		c0.7,0.1,1.3,0.1,2,0c0.6,0,1.2-0.2,1.7-0.6c0.1-0.1,0.2-0.2,0.3-0.3c0.3-0.3,0.5-0.7,0.6-1.2c0.2-0.7,0.3-1.4,0.4-2.2
		C202,251.5,201.8,250.2,201.3,248.9z"/>
	<path class="st0" d="M192.1,259.7L192.1,259.7c-0.2-0.2-0.4-0.3-0.5-0.5c-0.1,0.2-0.3,0.4-0.4,0.5v0c-0.2,0.2-0.3,0.4-0.5,0.5l0,0
		l0,0c-0.2,0.2-0.4,0.4-0.6,0.6L190,261l-0.6,0.5c-0.6,0.5-1.3,0.9-1.9,1.4c-0.7,0.4-1.4,0.8-2.1,1.2c-1.3,0.8-2.7,1.3-4.2,1.5
		c-0.7,0-1.3-0.1-1.9-0.5c-0.7-0.4-1.3-0.8-1.9-1.3c-0.1-0.1-0.3-0.2-0.4-0.4c-2.1-2-3.2-5-4.1-7.9c-0.5-1.6-0.8-3.2-1.2-4.9
		c-0.3-1.3-0.5-2.7-0.6-4c0-0.3,0-0.6,0-0.9c0-0.5,0-1,0.1-1.5l0,0c0.1-1.1,0.5-2.1,1.2-3c0.2-0.3,0.5-0.6,0.9-0.8
		c0.2-0.1,0.3-0.2,0.5-0.3c0.1-0.1,0.1-0.1,0.2-0.1l0.3-0.1c0.8-0.1,1.6-0.1,2.4,0c3.2,0.1,6.4,1,9.2,2.7c0,0,0.1,0.1,0.1,0.1
		c1.2,0.8,2.3,1.6,3.4,2.5l0.5,0.4c0.4,0.3,0.7,0.6,1.1,0.9l0.2-0.4c0.2-0.2,0.4-0.4,0.6-0.6l0.1-0.1c-0.4-0.3-0.8-0.6-1.2-0.9
		c-1.3-1-2.7-1.9-4.1-2.7l0,0l-0.2-0.1c-1.5-0.9-3.1-1.5-4.8-1.9c-1.6-0.4-3.3-0.6-5-0.8c-0.9-0.1-1.7-0.1-2.6,0l-0.3,0.1
		c-0.1,0-0.3,0.1-0.4,0.1c-0.2,0.1-0.4,0.2-0.6,0.3c-0.4,0.2-0.7,0.5-1,0.9c-0.9,1.1-1.4,2.4-1.5,3.8l0,0c0,0.4-0.1,0.8-0.1,1.1
		c0,0.4,0,0.8,0,1.2c0,0.1,0,0.3,0,0.4c0.1,1.2,0.2,2.4,0.4,3.5c0.3,1.7,0.6,3.3,0.9,5c0.2,0.8,0.4,1.6,0.6,2.4
		c0.3,0.9,0.6,1.7,0.9,2.6c0.7,1.7,1.7,3.2,3,4.4c0.7,0.6,1.4,1.2,2.2,1.6c0.9,0.5,1.9,0.8,2.9,0.8c1.8-0.2,3.6-0.7,5.2-1.7
		c0.8-0.4,1.5-0.8,2.2-1.3c0.8-0.5,1.5-1,2.2-1.5c1-0.8,1.9-1.8,2.6-2.9C193,260.3,192.6,260,192.1,259.7z"/>
	<path class="st0" d="M240.2,217.5c-0.3-1-1.2-1.8-2.8-0.9C233.1,219,241.8,222.4,240.2,217.5z"/>
	<path class="st0" d="M239.8,224.3c-1-0.7-2.3-0.5-3.1,0.5c-0.3,0.5-0.5,1.1-0.4,1.7C237,229.2,242,227.7,239.8,224.3z"/>
	<path class="st0" d="M239.5,231.9c-0.7-0.2-1.6-0.1-2.2,0.4c-0.8,0.5-1.1,1.5-0.7,2.4C238,238.7,242.7,233.2,239.5,231.9z"/>
	<path class="st0" d="M237.7,240.3c-2.4,1.4-0.1,4.1,1.5,3.8C241.8,243.6,241.2,238.2,237.7,240.3z"/>
	<path class="st0" d="M238.3,257c-1,0.6-1.3,1.9-0.7,2.9c0.1,0.2,0.2,0.3,0.4,0.5C242,263.9,243,254.1,238.3,257z"/>
	<path class="st0" d="M240.6,269.4c2.4-0.6,1.8-5.7-1.6-4C236.5,266.6,238.4,269.9,240.6,269.4z"/>
	<path class="st0" d="M272.6,265.4c0.3-0.1,0.3-0.4,0.6-0.5C273,262,270.1,265.3,272.6,265.4z"/>
	<path class="st0" d="M270.7,268.6c0.4,0.1,0.7,0.3,1,0.5c0.7-0.1,1.2-0.7,1.1-1.4c-0.1-0.4-0.3-0.7-0.6-0.9
		C270.9,266.9,270.3,267.3,270.7,268.6z"/>
	<path class="st0" d="M243.3,275c-0.4-1.4-1.7-1.7-3.1-1C235,276.5,245.3,280.8,243.3,275z"/>
	<path class="st0" d="M271.9,272.9c0.1-0.7-0.2-1.5-0.8-1.9C267.8,271,270.1,275.1,271.9,272.9z"/>
	<path class="st0" d="M268.8,275.9c-2.7,1.3,1.8,4,1.8,1C270.5,275.6,269.5,275.5,268.8,275.9z"/>
	<path class="st0" d="M256,293.5c-3,1.1-0.9,4.6,1.2,4.3C259.8,297.3,259.3,292.2,256,293.5z"/>
	<path class="st0" d="M262.1,289.3c-4.1,2.4,3.9,6,3.1,1.3C265,289.2,263.9,288.2,262.1,289.3z"/>
	<path class="st0" d="M272.5,261.8c-0.3,0.3-0.6,1.3,0.2,1.3C273.2,262.5,272.6,262.1,272.5,261.8z"/>
	<path class="st0" d="M240.6,251.7c1.3-1.4,0.2-4.7-2.4-3.2c-0.3,0.1-0.5,0.3-0.7,0.6l0,0c-0.2,0.2-0.3,0.5-0.4,0.8c0,0,0,0,0,0.1
		c0,0.1,0,0.1,0,0.2c0,0,0,0.1,0,0.1v0.2c0,0,0,0.1,0,0.1v0.2v0.1c0,0.1,0,0.1,0,0.2c0,0,0,0.1,0.1,0.1c0,0.1,0,0.1,0.1,0.2l0.2,0.2
		c0,0,0,0.1,0.1,0.1c0,0.1,0.1,0.1,0.1,0.1l0.1,0.1c0,0,0.1,0.1,0.1,0.1l0.1,0.1l0.2,0.1l0.1,0.1l0.2,0.1h0.1l0.2,0.1h0.1
		c0.1,0,0.2,0,0.4,0c0.1,0,0.2,0,0.4-0.1h0.1c0.2-0.1,0.4-0.1,0.6-0.3l0.1-0.1C240.4,251.9,240.5,251.8,240.6,251.7L240.6,251.7z"/>
	<path class="st0" d="M246,283.3c-0.3-1.1-1.2-2-3.1-1.1C237.9,284.8,247.9,289,246,283.3z"/>
	<path class="st0" d="M236.5,230c-1.5-0.4-2.5-2.4-2.6-4.2l-0.2,0.3c-0.7,0.9-1.5,1.8-2.4,2.7c-3.7,3.6-9.2,7.4-13.7,10.2
		c0.9-0.1,1.9-0.1,2.8,0c0.4,0,0.8,0.1,1.1,0.3c0.1,0,0.2,0.1,0.4,0.2l0.2,0.1l0.4,0.2c0.6,0.3,1.1,0.8,1.5,1.3
		c0.8,1,1.4,2.2,1.6,3.4c0.2,1.1,0.3,2.3,0.3,3.4c0,0.3,0,0.6,0,1c0.3,0.3,0.6,0.6,0.9,0.9c0.6,0.7,1.2,1.4,1.8,2.2
		c1.3,1.7,2.1,2.2,2.5,2.1c0.6-0.1,1.2-1.6,1.3-2.6c0-0.1,1.2-3.9,2.3-8.4c-0.3-1.5,0-3,1-4.2c0.1-0.4,0.2-0.8,0.3-1.2
		C233.5,235.9,233.5,230.9,236.5,230z"/>
	<path class="st0" d="M238.6,198.7c2,0.4,3-1,2.5-2.2C240.3,194,236.1,196.2,238.6,198.7z"/>
	<path class="st0" d="M239.3,189.6c-3.3,1.8,2.8,4.6,2.2,1C241.3,189.2,240.3,189.1,239.3,189.6z"/>
	<path class="st0" d="M239.3,181.1C244.4,182.4,238.8,175.6,239.3,181.1z"/>
	<path class="st0" d="M242.9,171c-0.1-0.2-0.1-0.3-0.2-0.4l0,0l0,0l0,0l-0.1-0.1l0,0l0,0l-0.1-0.1c-0.1-0.1-0.1-0.1-0.2-0.2
		c-0.6-0.7-1.4-1.1-2.3-1.1l0,0c-0.6,0-1.1,0.1-1.6,0.4c-0.3,0.2-0.6,0.4-0.8,0.6c-0.6,0.6-0.9,1.5-0.8,2.4c0,0.4,0.1,0.8,0.3,1.1
		c0,0,0.1,0.1,0.1,0.1v0.1c0,0,0,0,0,0.1l0.1,0.1l0,0c0.2,0.3,0.4,0.5,0.6,0.7c0.1,0.1,0.3,0.2,0.4,0.3l0,0c0,0,0.1,0,0.1,0.1
		c0.4,0.2,0.7,0.3,1.1,0.3h0.5c0.3,0,0.5-0.1,0.8-0.1h0.1c0.4-0.2,0.8-0.4,1.2-0.7c0.6-0.5,0.9-1.2,1-2
		C243.1,172,243,171.5,242.9,171z"/>
	<path class="st0" d="M240.4,210.5c0-0.3-0.1-0.6-0.3-0.8c-0.1-0.1-0.2-0.3-0.4-0.4l-0.1-0.1l0,0l-0.2-0.2l0,0l-0.1-0.1
		c-1.2,0-1.9,0.5-2.2,1.1l0,0l-0.1,0.2c0,0,0,0.1,0,0.1c0,0.1,0,0.1-0.1,0.2l0,0c0,0,0,0.1,0,0.1s-0.1,0.1-0.1,0.2
		c0,0,0,0.1-0.1,0.1l0,0c0,0.1,0,0.1,0,0.2l0,0c0,0.1,0,0.1,0,0.2c0,0.1,0,0.1,0.1,0.2c0.1,0.5,0.6,0.9,1.1,1.1c0.1,0,0.3,0,0.4,0
		c0.1,0,0.3,0,0.4-0.1c0.1,0,0.3-0.1,0.4-0.1c0.3-0.1,0.6-0.3,0.8-0.6l0.2-0.3l0,0l0,0l0,0c0.1-0.1,0.1-0.2,0.2-0.3l0,0
		c0.1-0.1,0.1-0.2,0.1-0.4C240.4,210.8,240.4,210.6,240.4,210.5z"/>
	<path class="st0" d="M239,186.1C244.6,187.9,238.9,180,239,186.1z"/>
	<path class="st0" d="M265.7,288c0.7-0.1,0.6-0.4,1.2-0.9C266.2,282.4,262.4,288.4,265.7,288z"/>
	<path class="st0" d="M246.9,291.2c0,0.6,0.4,0.6,0.7,1.7c1,0.2,1.6,0.8,2.7,0.2C255,290.9,246.6,286,246.9,291.2z"/>
	<path class="st0" d="M247.9,286.5c3.6-0.7,6,1.4,5.8,5.3c1.4-0.7,3.5-1.7,4.6-0.5c0.5-1.9,1-3.9,3.3-4.6c0.7-1.2,0.7-2.9,2.6-3.4
		c-0.5-1.7-0.3-3,0.5-3.9c-5.3,2.3-10.7,4.2-16.2,5.9C248.4,285.7,248.2,286.2,247.9,286.5z"/>
	<path class="st0" d="M267.6,280.5c-3,0.1-0.1,4.7,1.4,1.6C268.7,280.9,268.4,280.5,267.6,280.5z"/>
	<path class="st0" d="M198,277.1c-0.1-0.7-0.3-1.4-0.4-2.1c-0.2-0.7-0.4-1.4-0.6-2.2c-0.3-1.5-0.5-3-0.7-4.5c-0.3-2.5-0.4-5-0.5-7.5
		h-0.7c-0.5,1.2-1.3,2.4-2.2,3.3c-0.6,0.6-1.2,1.2-1.9,1.6c-0.6,0.5-1.3,1-2,1.4c-0.7,0.4-1.4,0.8-2.1,1.1l-2.3,1
		c-0.9,0.3-1.8,0.5-2.7,0.6c-1,0.1-2,0-3-0.3c-0.5-0.1-0.9-0.3-1.4-0.6c-0.4-0.2-0.8-0.5-1.1-0.7c-0.4-0.2-0.7-0.5-1.1-0.8
		c-0.4-0.3-0.7-0.6-1-0.9c-0.4-0.4-0.8-0.8-1.1-1.3c0.7,4.2,1.2,8.3,1.8,12.5c0.1,0.9,0.2,1.8,0.3,2.7c7.4,2.2,15,3.7,22.7,4.5
		C198.4,282.5,198.4,279.8,198,277.1z"/>
	<path class="st0" d="M225.4,251.6c0,0.2-0.1,0.4-0.1,0.6c-0.1,0.6-0.2,1.2-0.4,1.9c-0.4,2.1-0.9,4.1-1.5,6.1
		c-0.7,2.1-1.7,4.1-3.1,5.9c-0.4,0.5-0.8,0.9-1.2,1.3c-0.4,0.4-0.9,0.7-1.4,1.1s-1,0.6-1.5,0.9c-0.6,0.3-1.2,0.6-1.8,0.7
		c-0.7,0.2-1.3,0.3-2,0.2c-0.6,0-1.3-0.1-1.9-0.3c-0.6-0.1-1.1-0.3-1.7-0.6l-1.5-0.7c-1-0.5-1.9-1-2.8-1.6l-0.7-0.4l-0.6-0.5l-1.3-1
		c-1.4-1.2-2.6-2.8-3.4-4.5h-0.9c0,2.4,0,4.9,0.1,7.3c0.1,1.5,0.2,2.9,0.4,4.4c0.1,0.7,0.3,1.4,0.5,2.2c0.2,0.8,0.3,1.5,0.4,2.3
		c0.3,2.7,0.1,5.5-0.5,8.2c7.9,0.8,15.9,0.9,22-0.2c1.1-9.2,2.6-18.4,4.3-27.6c0.1-0.7,0.3-1.4,0.4-2l0.6-2.9
		C225.9,252.2,225.7,251.9,225.4,251.6z"/>
	<path class="st0" d="M184,254.7c-0.2,0.1-0.2,0.3-0.2,0.4c0.1,0.2,0.3,0.3,0.4,0.2c0,0,0,0,0,0l0,0c1.4-0.4,2.8-0.6,4.3-0.6h1.2
		c-0.1-0.4-0.1-0.8-0.1-1.2l-1.2,0.1C186.9,253.7,185.4,254,184,254.7z"/>
	<path class="st0" d="M189.8,250.5c0.1-0.4,0.1-0.7,0.2-1.1c-0.8-0.3-1.5-0.6-2.3-0.9c-1-0.3-2.1-0.5-3.1-0.7
		c-0.2,0-0.3,0.1-0.4,0.3c-0.1,0.2,0.1,0.4,0.2,0.4l0,0c1.8,0.5,3.6,1.2,5.3,2.1C189.8,250.6,189.8,250.5,189.8,250.5z"/>
	<path class="st0" d="M205.6,253.8l-0.7-0.1c0,0.4-0.1,0.9-0.1,1.3c0,0.1,0,0.2,0,0.3h0.7c1.4,0,2.9,0.2,4.3,0.6l0,0
		c0.2,0.1,0.4,0,0.4-0.2c0.1-0.2,0-0.3-0.2-0.4c-0.7-0.4-1.4-0.7-2.2-0.9C207.1,254.1,206.3,253.9,205.6,253.8z"/>
	<path class="st0" d="M209.6,249L209.6,249c0.2,0,0.3-0.2,0.3-0.4c0-0.2-0.2-0.3-0.4-0.3c-1.1,0.1-2.1,0.2-3.2,0.5
		c-0.7,0.2-1.3,0.4-1.9,0.6c0.1,0.5,0.3,1,0.3,1.5C206.3,250.1,208,249.5,209.6,249z"/>
	<path class="st0" d="M165,223.6l-0.4-0.4l-0.2-0.2l-0.1-0.1l-0.2-0.2l-0.2-0.2l0,0l-0.2-0.2l-0.2-0.2l-0.4-0.4l-0.1-0.1
		c-0.5,3.2-0.8,10.2-0.9,14.8c-0.1,3-0.2,5.7-0.3,7.6c-0.2,3.6,0.5,4.1,0.6,4.1c0.4,0.2,1.1-0.2,1.5-0.5c0.4-0.3,0.9-0.6,1.4-0.8
		c0.2-0.1,0.3-0.2,0.5-0.3l0.9-0.5l0,0l0.2-0.1l0,0c0.4-0.2,0.9-0.4,1.3-0.6l0,0l0.2-0.1c0.1-0.7,0.2-1.3,0.3-2
		c0.1-0.5,0.3-1,0.5-1.5c0.2-0.4,0.3-0.7,0.6-1.1c0.5-0.9,1.3-1.6,2.2-2.2l0.6-0.3l0.2-0.1l0.3-0.1c0.2-0.1,0.4-0.1,0.6-0.2
		c0.5-0.1,0.9-0.1,1.4-0.1c0.8,0,1.6,0,2.4,0.1c1.6,0.1,3.2,0.4,4.7,0.8l0.7,0.2l-0.2-0.2l-0.3-0.3l-0.4-0.3l-0.4-0.3l-0.4-0.3
		l-0.4-0.4l-0.5-0.4l-0.2-0.1l-1.5-1.2l-0.1-0.1l-0.6-0.5l-0.5-0.4l-0.4-0.4l-0.1-0.1l-3.1-2.6l-2.9-2.6l-0.1-0.1l-0.6-0.5l-0.2-0.1
		l-1.2-1.1l-0.1-0.1l-0.6-0.5l-2.8-2.5l0,0L165,223.6L165,223.6z"/>
	<path class="st0" d="M222.7,241.8c-0.3-0.4-0.6-0.7-1-0.9l-0.6-0.3c-0.1-0.1-0.2-0.1-0.4-0.2l-0.4-0.1c-0.9-0.1-1.7-0.1-2.6-0.1
		c-1,0-1.9,0.1-2.9,0.3c-0.7,0.1-1.4,0.2-2.2,0.4l-0.8,0.2l-0.8,0.2l0,0c-0.5,0.1-1,0.3-1.5,0.5l-0.2,0.1l-0.5,0.2l-0.2,0.1
		l-0.6,0.3l-0.2,0.1l-1,0.6l-1,0.6l0,0c-0.7,0.4-1.3,0.8-2,1.3l0,0l-0.4,0.3c-0.4,0.3-0.8,0.5-1.1,0.8c0.3,0.3,0.6,0.6,0.9,1l1-0.8
		c1.3-1,2.7-2,4.1-2.9l0.2-0.1c1.4-0.8,2.9-1.4,4.5-1.7c1.6-0.3,3.1-0.5,4.7-0.6c0.8,0,1.6,0,2.4,0.1l0.3,0.1c0.1,0,0.1,0.1,0.2,0.1
		c0.2,0.1,0.3,0.2,0.5,0.3c0.3,0.2,0.6,0.5,0.8,0.8c0.8,1.3,1.2,2.8,1.1,4.3v0.2c0,0.8-0.1,1.6-0.2,2.4c-0.1,0.8-0.3,1.6-0.5,2.4
		c-0.4,1.6-0.8,3.2-1.3,4.8c-0.2,0.6-0.4,1.1-0.6,1.7c-0.8,2.5-2.2,4.7-4.1,6.4c-0.6,0.5-1.2,0.9-1.9,1.2c-0.6,0.3-1.2,0.4-1.9,0.4
		c-1.5-0.3-2.9-0.8-4.1-1.7c-0.7-0.4-1.4-0.8-2.1-1.3c-0.7-0.4-1.3-0.9-1.9-1.4l-0.5-0.5l-0.1-0.1l-0.4-0.4l-0.1-0.1
		c-0.3-0.4-0.6-0.7-0.9-1.1l0,0c-0.2,0.2-0.5,0.3-0.7,0.4c-0.4,0.2-0.9,0.4-1.3,0.5c0.7,1.1,1.6,2.2,2.6,3.1
		c0.7,0.6,1.4,1.1,2.1,1.6c0.7,0.5,1.4,0.9,2.2,1.4c1.6,1,3.4,1.6,5.2,1.8c1,0,2.1-0.2,3-0.7c0.8-0.4,1.6-1,2.3-1.6
		c1.4-1.2,2.5-2.7,3.2-4.4c0.7-1.6,1.3-3.2,1.7-4.9c0.4-1.6,0.8-3.3,1.1-5c0.1-0.6,0.2-1.2,0.3-1.8c0.1-0.9,0.2-1.8,0.2-2.7v-0.5
		C224.3,245.1,223.8,243.3,222.7,241.8z"/>
	<path class="st0" d="M240.4,202.6c-0.2-0.2-0.4-0.4-0.6-0.5c-2.1-0.5-3.1,1.3-2.5,2.6c0.2,0.3,0.4,0.6,0.8,0.7h0.1
		c0.1,0,0.1,0.1,0.2,0.1l0,0h0.2h0.3h0.1l0,0l0.3-0.1h0.1l0.2-0.1c0.7-0.3,1.1-0.9,1.2-1.6C240.8,203.3,240.7,202.9,240.4,202.6z"/>
	<path class="st2" d="M236.4,234.2c0,0.1,0,0.2,0.1,0.2c0,0.1,0,0.2,0.1,0.3c0,0.1,0.1,0.3,0.1,0.4l0.1,0.1c0,0.1,0.1,0.2,0.1,0.2
		l0.1,0.1c0,0.1,0.1,0.1,0.1,0.2l0.1,0.1c0,0.1,0.1,0.1,0.2,0.1h0.1l0.2,0.1l0,0c0.2,0.1,0.5,0.1,0.8,0.1c1.7-0.3,3.4-3.3,1.1-4.2
		c-0.7-0.2-1.6-0.1-2.2,0.4C236.6,232.6,236.3,233.4,236.4,234.2L236.4,234.2z"/>
	<path class="st0" d="M272.6,59.5c-0.1-0.2-0.3-0.3-0.5-0.2c0,0,0,0,0,0c-1.9,0.7-3.7,1.5-5.3,2.6c-0.9,0.6-1.7,1.3-2.4,2.1
		c-0.4,0.5-0.7,1-0.9,1.6c0,0.2-0.1,0.3-0.1,0.5l-0.1,0.4l-0.1,0.8c-0.1,1.8-0.4,3.7-0.8,5.5c-0.2,0.8-0.5,1.5-1,2.1
		c-0.3,0.5-0.8,0.9-1.4,1.1c-0.3,0.1-0.7,0.2-1,0.2c-0.5,0.1-1,0.1-1.5,0.2c-1.2,0.2-2.4,0.6-3.4,1.2c-0.7,0.5-1.3,1.1-1.7,1.9
		c-0.3,0.7-0.4,1.5-0.3,2.3c0.1,1.1,0.4,2.3,0.8,3.3c0.2,0.5,0.4,1,0.6,1.4l0.6,1.3c0.2,0.4,0.4,0.8,0.5,1.2
		c0.1,0.2,0.1,0.4,0.2,0.4s-0.2,0.1-0.3,0.1l-1.3,0.6c-0.9,0.4-1.8,1-2.6,1.6c-0.1,0.1-0.2,0.3-0.1,0.4c0,0.2,0.3,0.4,0.5,0.3
		c1-0.2,1.9-0.3,2.8-0.5c0.5-0.1,0.9-0.1,1.5-0.2c0.3-0.1,0.6-0.1,0.9-0.2c0.5-0.2,0.9-0.5,1.2-0.9c0.3-0.4,0.4-1,0.4-1.5
		c0-0.3,0-0.7-0.1-1c-0.1-0.6-0.2-1.1-0.4-1.6s-0.3-1-0.4-1.4l-0.4-1.3c-0.2-0.7-0.4-1.5-0.5-2.3c0-0.2,0-0.3,0.1-0.5
		c0,0,0-0.1,0.2-0.2c0.6-0.4,1.3-0.6,2.1-0.7l1.3-0.3c0.6-0.1,1.2-0.3,1.8-0.6c1.2-0.6,2.2-1.5,2.9-2.7c0.6-1,0.9-2.1,1.1-3.3
		c0.2-2,0.2-4.1,0-6.1v-0.7v-0.3c0-0.1,0-0.1,0-0.2c0.1-0.4,0.2-0.7,0.4-1c0.5-0.7,1.1-1.4,1.7-1.9c1.5-1.2,3-2.2,4.7-3.1l0,0
		C272.6,60,272.7,59.7,272.6,59.5z M255.1,89.3c0,0-0.1,0.1-0.1,0.1C255,89.4,255,89.4,255.1,89.3C255.2,89.2,255.2,89.3,255.1,89.3
		z"/>
	<path class="st0" d="M242.9,116.8c-0.1-0.3-0.4-0.6-0.8-0.5c0,0,0,0,0,0l0,0c-1.6,0.3-3.2,0.5-4.9,0.5c-0.9,0-1.8,0.1-2.6,0.2
		c-0.5,0.1-1,0.2-1.5,0.4c-0.7,0.3-1.2,0.9-1.5,1.6c-0.2,0.7-0.2,1.4,0.1,2.1c0.2,0.5,0.4,1,0.7,1.4c0.5,0.8,0.8,1.4,1.2,2.1
		c0.3,0.7,0.6,1.4,0.9,2.1c0.1,0.3,0.2,0.6,0.2,0.9v0.1c-0.5,0.4-1,0.7-1.5,0.9c-0.9,0.4-1.8,0.7-2.8,0.9c-2,0.4-4.1,0.6-6.2,0.5
		l0,0c-0.4,0-0.6,0.3-0.6,0.7c0,0.3,0.2,0.5,0.5,0.6c2.2,0.5,4.4,0.7,6.6,0.7c1.2,0,2.3-0.1,3.5-0.4c1.3-0.3,2.5-0.9,3.6-1.7
		c0.2-0.1,0.3-0.3,0.4-0.5l0.1-0.1c0.1-0.2,0.1-0.4,0.1-0.6c0-0.1,0-0.2,0-0.3c0-0.2,0-0.4,0-0.5c0-0.3-0.1-0.6-0.1-0.9
		c-0.1-0.5-0.3-1-0.5-1.5c-0.4-0.9-0.8-1.7-1.4-2.4c-0.5-0.8-1.1-1.5-1.6-2.1c-0.2-0.3-0.4-0.5-0.5-0.8c-0.1-0.2-0.1-0.4-0.2-0.4
		s-0.1-0.1,0.2-0.2c0.3-0.2,0.6-0.3,0.9-0.4c0.8-0.2,1.6-0.4,2.4-0.5c1.7-0.2,3.4-0.6,5.1-1.1C242.8,117.4,243,117.1,242.9,116.8z
		 M234.6,128L234.6,128L234.6,128C234.6,128.1,234.6,128,234.6,128L234.6,128z"/>
	<path class="st0" d="M249,195.3l-0.3,0.7c-1.7,3.3-3.7,6.5-5.9,9.5c-0.1,0.3-0.3,0.6-0.6,0.9c-0.2,0.2-0.3,0.5-0.4,0.7
		s-0.3,0.3-0.4,0.4c0.9,1,1.4,2.2,1.4,3.6c0,0.3,0,0.6-0.1,0.9h1.1h0.7h0.4l0.6-0.1l0.5-0.1h0.1l0.5-0.1l0.5-0.1l0.5-0.1l0.5-0.1
		l0.5-0.1c0.2-0.1,0.4-0.1,0.6-0.2l0.4-0.1c0.3-0.1,0.7-0.2,1-0.4c0.7-0.3,1.4-0.7,2-1.2c0.2-0.2,0.3-0.5,0.5-0.7
		c-0.3,0.9-0.7,1.8-1.2,2.6c-1.6,2.4-3.7,4.5-6.1,6.1c-0.4,0.3-0.9,0.6-1.3,0.9l-0.1,0.1l-0.3,0.2l0,0c-0.3,0.2-0.7,0.4-1,0.6H243
		l0,0c0,0.1,0.1,0.1,0.1,0.2v-0.1c0.2,0.7,0.4,1.3,0.7,2c0.1,0.1,0.1,0.3,0.2,0.4l0,0c0.1,0.2,0.2,0.4,0.3,0.7
		c0.7,1.8,1.4,3.6,2.2,5.3s1.7,3.4,2.4,5.2c0.8,1.7,1.4,3.5,1.9,5.3c0.2,0.9,0.4,1.8,0.6,2.6c0,0.4,0,0.8,0,1.2v0.2
		c-2.3,0.7-4.6,1.4-6.9,2.2c-0.7,0.2-1.5,0.5-2.2,0.8c-0.3,0.4-0.8,0.7-1.3,0.9c0.9,0.2,1.7,0.8,2.1,1.7c0.8-0.2,1.5-0.4,2.3-0.7
		c2.3-0.8,4.6-1.7,6.9-2.6c0.1,0,0.1,0,0.2-0.1c0.1,0,0.2-0.1,0.3-0.1c0.1-0.1,0.3-0.2,0.4-0.3c0.2-0.2,0.3-0.4,0.4-0.6
		c0-0.2,0.1-0.4,0.1-0.6l0.1-0.5c0-0.6,0-1.1-0.2-1.7c-0.2-1-0.5-1.9-0.9-2.9c-0.7-1.8-1.5-3.6-2.4-5.3c-1.7-3.5-3.4-6.8-4.8-10.4
		l-0.3-0.9c0.8-0.5,1.5-1,2.2-1.6c2.6-1.9,4.7-4.4,6.3-7.2c0.8-1.5,1.2-3.1,1.3-4.8c0-1.7-0.6-3.3-1.8-4.5l0,0l-0.1-0.1l0,0
		c-0.1-0.2-0.4-0.2-0.6-0.1c-0.2,0.1-0.3,0.4-0.2,0.6c0,0,0,0,0,0l0,0c0.7,1.1,1,2.4,0.8,3.8c-0.5,1.2-1.5,2.2-2.8,2.6
		c-1.2,0.5-2.5,0.8-3.9,0.9c1.3-3.6,2.2-6.9,3-9.4c0.6-2.2,1-3.9,1.2-4.6C250.2,196.5,249.7,195.9,249,195.3z"/>
	<path class="st0" d="M301.5,241c-0.4-0.6-0.8-1.1-1.3-1.7c-1-1.2-2.1-2.5-3.3-3.8c-0.6-0.7-1.2-1.3-1.8-2c-1.2-1.3-2.5-2.6-3.7-3.9
		c-0.8-0.8-1.5-1.5-2.3-2.3c-1.3-1.3-2.6-2.5-3.9-3.8c-0.9-0.9-1.8-1.7-2.7-2.6c-1.3-1.2-2.5-2.4-3.8-3.5l-3.2-2.8
		c-1.1-1-2.3-2-3.4-3c-1.3-1.1-2.5-2.2-3.8-3.3l-2.6-2.3c-2-1.7-4-3.3-5.8-4.9c-2.5-2-5.2-3.8-8.1-5.2c0.1,0.2,0.2,0.4,0.1,0.6
		c0,0-0.1,0.6-0.4,1.7c2.6,1.1,5,2.6,7.1,4.3c22.8,18.8,38.4,34.2,44.2,43.2c0.5-0.5,0.9-1,1.3-1.4
		C303.4,243.4,302.5,242.2,301.5,241z"/>
	<path class="st0" d="M251.1,262.5c-0.5-1.6-1.2-3.2-2.1-4.6c-0.2-0.4-0.5-0.7-0.8-1c-0.4-0.4-0.6-0.6-0.9-0.9l-1.8-1.7
		c-0.7-0.7-1.4-1.4-2.1-2.1c-0.2,0.5-0.4,0.9-0.8,1.2l1.9,1.8l1,1l0.7,0.7c0.3,0.3,0.6,0.6,0.8,0.8c0.2,0.3,0.5,0.6,0.7,0.9
		c0.8,1.3,1.5,2.7,1.8,4.2c0.7,3,0.6,6.2-0.2,9.2c-0.1,0.4-0.2,0.7-0.3,1.1l-0.1,0.4l-0.2,0.7l-0.2,0.5c-0.1,0.2-0.1,0.4-0.2,0.6
		s-0.1,0.3-0.2,0.5l-0.2,0.6c-0.1,0.2-0.1,0.3-0.2,0.5l-0.2,0.5c-0.1,0.2-0.2,0.4-0.3,0.5l-0.2,0.4l-0.3,0.5
		c-0.1,0.1-0.2,0.3-0.2,0.4l-0.3,0.6l0,0c0.6,0.4,1.2,0.9,1.6,1.5c0.5-0.8,0.9-1.7,1.3-2.5c1-2,1.7-4.1,2.2-6.2
		C252,269.3,251.9,265.9,251.1,262.5z"/>
	<path class="st1" d="M319.1,57.9c-1.1-2.4-2.4-4.6-4-6.6c-0.2-0.2-0.4-0.5-0.6-0.7c-3.1-3.9-6.6-7.5-10.4-10.8
		c-8-7.1-16.6-13.4-25.8-18.8c-4.6-2.8-9.2-5.4-14-7.7c-4.8-2.4-9.6-4.5-14.6-6.4c-5-1.9-10.1-3.2-15.4-4.1
		c-2.6-0.4-5.2-0.6-7.8-0.4c-1.3,0.1-2.5,0.3-3.7,0.8c-0.7,0.3-1.3,0.7-1.8,1.2c-0.3,0.3-0.6,0.6-0.9,0.9c-0.5,0.9-0.7,2-0.6,3.1
		l0,0c0.1,1.4,0.5,2.7,1.1,3.9c0.8,1.8,1.9,3.5,3.1,5.2c0.4,0.5,0.7,1,1,1.5c0.6,0.8,1.3,1.6,1.9,2.3l0,0l0.4,0.4
		c0.4,0.5,0.9,1,1.3,1.4l0.7,0.7l0.6,0.7c0.4,0.5,0.9,0.9,1.4,1.4l0,0l0.9,0.9l0.5,0.5l0.8,0.7l0.6,0.6l0.6,0.6l1.3,1.2
		c8.1,6.9,16.8,13.2,26,18.5c4.6,2.7,9.2,5.3,14,7.6c4.7,2.4,9.6,4.5,14.6,6.2c5,1.8,10,3.1,15.2,4.1c1,0.2,1.9,0.3,2.9,0.4l0,0
		c0.6,0.1,1.2,0.1,1.9,0.2s1.2,0,1.9,0h0.1h0.7h0.3c0.4,0,0.7-0.2,1.1-0.2c0.8-0.1,1.6-0.2,2.4-0.5c1.1-0.3,2-0.9,2.8-1.7
		c0.1-0.1,0.1-0.2,0.1-0.3c0,0,0-0.1,0-0.1C320.5,62.4,320,60,319.1,57.9z M292.4,43.8c-0.4,0.6-0.9,1-1.6,1.1
		c-0.6,0.1-1.3,0.2-1.9,0.1h-0.4c-0.6-0.1-1.2-0.2-1.8-0.3c-1.1-0.3-2.3-0.6-3.4-0.8l-3.3-0.8c-1-0.2-2-0.5-2.9-0.7
		c0.4,0.5,0.8,1.1,1.2,1.6c0.7,0.9,1.4,1.9,2,2.8c0.3,0.5,0.6,1,0.9,1.5c0.3,0.6,0.6,1.2,0.8,1.9c0.1,0.4,0.1,0.8,0,1.2
		c-0.1,0.5-0.3,0.9-0.6,1.3c-0.6,0.5-1.3,0.8-2.1,0.9c-1.2,0.1-2.4-0.1-3.6-0.5c-0.2-0.1-0.4-0.3-0.3-0.5c0.1-0.2,0.2-0.3,0.4-0.3
		l0,0c1.1,0.1,2.1,0,3.2-0.3c0.4-0.1,0.7-0.2,1-0.5c0.1-0.2,0-0.3-0.1-0.7c-0.5-0.9-1-1.7-1.7-2.5c-0.7-0.9-1.4-1.7-2.2-2.5
		c-0.8-0.9-1.6-1.9-2.2-2.9c-0.3-0.4-0.5-1-0.5-1.5c0-0.6,0.2-1.1,0.5-1.5c0.3-0.3,0.7-0.5,1.1-0.6c0.4-0.1,0.9-0.1,1.3-0.1
		c0.4,0,0.7,0,1,0.1c1.3,0.2,2.5,0.5,3.7,0.8s2.1,0.6,3.1,0.8c1,0.3,2.2,0.6,3.2,0.9c0.5,0.1,1,0.3,1.5,0.3c0.3,0,0.5,0.1,0.8,0.1
		c-0.1-0.3-0.2-0.6-0.3-0.8c-0.5-0.9-1-1.8-1.6-2.7c-1.3-1.8-2.8-3.5-4.1-5.4c-0.7-1-1.4-2-1.9-3.1c-0.1-0.3-0.2-0.7-0.3-1
		c-0.1-0.4,0-0.8,0.2-1.2c0.2-0.4,0.6-0.6,1-0.7c0.3-0.1,0.6-0.1,0.9-0.1h0.1c0.2,0,0.3,0.1,0.4,0.3l0,0c0,0.1,0,0.1,0,0.2
		c0,0.2-0.2,0.4-0.4,0.4c-0.5,0.1-1,0.3-1,0.5c0,0.4,0.2,0.7,0.4,1c0.6,0.9,1.3,1.7,2,2.5c1.5,1.6,3.1,3.2,4.7,5
		c0.8,0.9,1.5,1.9,2.1,3c0.4,0.6,0.6,1.3,0.7,2.1C292.7,42.6,292.7,43.2,292.4,43.8L292.4,43.8z"/>
	<path class="st0" d="M292.7,42c-0.1-0.7-0.4-1.4-0.7-2.1c-0.6-1.1-1.3-2.1-2.1-3c-1.5-1.8-3.1-3.4-4.7-5c-0.7-0.8-1.4-1.6-2-2.5
		c-0.2-0.3-0.3-0.6-0.4-1c0-0.2,0.5-0.4,1-0.5c0.2,0,0.4-0.2,0.4-0.4c0-0.1,0-0.1,0-0.2c-0.1-0.2-0.2-0.3-0.4-0.3h-0.1
		c-0.3,0-0.6,0-0.9,0.1c-0.4,0.1-0.8,0.4-1,0.7c-0.2,0.4-0.3,0.8-0.2,1.2c0.1,0.3,0.2,0.7,0.3,1c0.5,1,1.1,2,1.8,2.9
		c1.4,1.9,2.8,3.6,4.1,5.4c0.6,0.8,1.2,1.7,1.6,2.7c0.1,0.3,0.2,0.5,0.3,0.8c-0.3,0-0.5,0-0.8-0.1c-0.5-0.1-1-0.2-1.5-0.3
		c-1.1-0.3-2.1-0.6-3.2-0.9c-2.2-0.7-4.5-1.2-6.8-1.6c-0.3,0-0.6-0.1-1-0.1c-0.4,0-0.9,0-1.3,0.1c-0.4,0.1-0.8,0.3-1.1,0.6
		c-0.4,0.4-0.6,1-0.5,1.5c0,0.5,0.2,1,0.5,1.5c0.7,1,1.4,2,2.2,2.9c0.8,0.8,1.5,1.7,2.2,2.5c0.7,0.7,1.2,1.6,1.7,2.5
		c0.1,0.4,0.1,0.5,0.1,0.7c-0.3,0.3-0.6,0.5-1,0.5c-1,0.2-2.1,0.3-3.2,0.3l0,0c-0.2,0-0.4,0.1-0.4,0.3c-0.1,0.2,0.1,0.5,0.3,0.5
		c1.2,0.4,2.4,0.5,3.6,0.5c0.8,0,1.5-0.3,2.1-0.9c0.3-0.3,0.6-0.8,0.6-1.3c0.1-0.4,0.1-0.8,0-1.2c-0.2-0.7-0.4-1.3-0.8-1.9
		c-0.3-0.5-0.6-1-0.9-1.5c-0.6-1-1.3-1.9-2-2.8c-0.4-0.5-0.8-1.1-1.2-1.6c0.9,0.2,1.9,0.4,2.9,0.7l3.3,0.8c1.1,0.3,2.2,0.6,3.4,0.8
		c0.6,0.1,1.2,0.2,1.8,0.3c0.8,0.1,1.5,0.1,2.3,0c0.7-0.1,1.2-0.6,1.6-1.1C292.7,43.3,292.8,42.6,292.7,42z"/>
	<path class="st0" d="M233.6,108.7c-5.2-3.8-10.2-7.8-15-12.1c-0.2-0.2-0.2-0.4,0-0.6c0.1-0.1,0.4-0.2,0.5-0.1l0,0
		c5.2,3.6,10.7,6.8,16.3,9.8c2.7,1.5,5.6,2.8,8.5,3.9c2.5,1,5.1,1.7,7.7,1.9c-1.6-0.4-3.1-1-4.6-1.7c-3.2-1.5-6.3-3.2-9.2-5.1
		c-2.9-1.9-5.8-4-8.5-6.1s-5.4-4.3-8-6.6c-0.2-0.2-0.1-0.4,0-0.6c0.1-0.1,0.3-0.1,0.5-0.1l0,0c5.5,4.1,11.3,7.8,17.4,11.1
		c3,1.6,6.1,3,9.2,4.1c1.8,0.6,3.7,1,5.7,1.2c0.1-0.1,0.2-0.3,0.2-0.4c-2.4-0.5-4.7-1.3-7-2.2c-2.9-1.3-5.7-2.9-8.3-4.7
		c-2.6-1.8-5-3.7-7.4-5.8c-2.3-2.1-4.5-4.3-6.6-6.6c-0.2-0.2-0.2-0.4,0-0.6c0.2-0.2,0.4-0.2,0.6,0l0,0c4.5,4.1,9.5,7.6,14.8,10.5
		c2.6,1.4,5.4,2.5,8.2,3.5c2.2,0.6,4.4,1,6.7,1.2c0-0.1,0-0.3,0-0.4c0-0.2,0-0.4,0.1-0.7c-19-7.2-33.5-22.2-39.8-29.5
		c-0.8,1.1-1.6,2.3-2.5,3.3c-1.1,1.4-2.4,2.7-3.6,4c-0.6,0.6-1.4,1.2-2,1.8c7.4,18.5,22.9,28.5,37.3,33.7c-0.9-0.4-1.9-0.8-2.8-1.2
		C239.1,112.4,236.3,110.6,233.6,108.7z"/>
	<path class="st0" d="M181.7,71.4c0.2,0.7,0.2,1.5,0.1,2.2c0,0.7,0,1.5,0,2.2l0.2,2.2l0.3,2.2c0.1,0.7,0.3,1.5,0.5,2.2
		s0.3,1.5,0.6,2.2c0.5,1.4,0.8,2.9,1.5,4.3c2.2,5.6,5.1,11,8.7,15.8l1.3,1.9l1.4,1.8l2.9,3.5c1,1.2,2.1,2.2,3.1,3.4s2,2.3,3.1,3.3
		c2.2,2.1,4.4,4.2,6.7,6.2l7,5.8l0,0c3,2,6.2,3.8,9.5,5.3c1.6,0.8,3.3,1.4,5,2.1c0.9,0.3,1.7,0.6,2.6,0.8c0.9,0.3,1.7,0.5,2.6,0.7
		c14.1,3.7,29.1,1.7,41.8-5.7c3.2-1.8,6.1-4,8.7-6.5c1.3-1.2,2.5-2.6,3.5-4.1c1.1-1.5,1.8-3.2,1.9-5c0,1.8-0.6,3.6-1.6,5.2
		c-1,1.6-2.1,3-3.4,4.4c-2.6,2.7-5.5,5-8.6,6.9c-6.3,3.9-13.4,6.4-20.7,7.5c-3.7,0.5-7.4,0.6-11.1,0.3c-3.7-0.2-7.3-0.9-10.9-1.9
		c-0.9-0.2-1.8-0.5-2.7-0.8c-0.9-0.3-1.8-0.6-2.6-0.9c-1.7-0.7-3.4-1.4-5-2.2c-3.3-1.6-6.5-3.5-9.5-5.6l0,0l-6.9-6
		c-2.3-2-4.4-4.2-6.6-6.3s-4.2-4.4-6.3-6.7l-2.9-3.5l-1.5-1.8l-1.4-1.8c-3.8-4.8-6.9-10.1-9.4-15.8c-1.2-2.8-2.1-5.8-2.7-8.8
		l-0.4-2.3l-0.2-2.3c0-0.8,0-1.6,0-2.3c0-0.8,0.2-1.6,0.6-2.3c0.1-0.2,0.3-0.2,0.5-0.1c0,0,0,0,0,0
		C181.6,71.2,181.7,71.2,181.7,71.4L181.7,71.4z"/>
	<path class="st0" d="M186.8,75.2c-0.7-0.9-1.1-2-1.3-3.2c-0.2-1.2-0.1-2.3,0.1-3.5c0.3-1.1,0.8-2.2,1.5-3.2
		c0.3-0.5,0.7-0.9,1.1-1.3c0.4-0.4,0.9-0.7,1.5-1c-0.3,0.5-0.6,1-1,1.4c-0.3,0.5-0.7,0.9-1,1.3c-0.6,0.9-1.1,1.9-1.5,2.9
		c-0.3,1.1-0.4,2.2-0.4,3.2C186,73,186.3,74.2,186.8,75.2z"/>
	<path class="st1" d="M178.3,153.1c0,0.1,0.1,0.3,0.2,0.4c0.1,0.2,0.2,0.3,0.3,0.5c0.3,0.3,0.6,0.6,0.9,0.9c0.7,0.6,1.4,1.1,2.1,1.5
		c0.7,0.5,1.5,0.8,2.4,1.1c0.9,0.2,1.8,0.3,2.6,0.4c0.1,0,0.1,0.1,0.1,0.2c0,0,0,0,0,0c0,0.1-0.1,0.1-0.1,0.1
		c-0.9,0-1.8-0.1-2.7-0.2c-0.9-0.2-1.8-0.5-2.6-1c-0.8-0.4-1.6-0.9-2.3-1.5c-0.4-0.3-0.7-0.6-1-0.9c-0.2-0.2-0.3-0.4-0.5-0.6
		c-0.2-0.3-0.3-0.5-0.3-0.9c0-0.2,0.1-0.5,0.4-0.5c0,0,0,0,0,0c0.2,0,0.4,0.1,0.5,0.3L178.3,153.1z"/>
	<path class="st1" d="M172.7,132.2c1.3-0.6,2.6-0.9,4-1c0.9-0.1,1.8,0.1,2.5,0.5c0.2,0.2,0.5,0.4,0.7,0.6l0.3,0.4l0.6,0.7
		c1.7,1.8,3.5,3.4,5.5,4.9c1.7,1.4,3.6,2.5,5.7,3.4c0.3,0.1,0.7,0.2,1.1,0.3c0.1,0,0.2,0,0.2,0l0.5,0.1c0.3,0,0.7,0.1,1,0.2
		c1.4,0.3,2.6,0.9,3.7,1.8c1,0.8,1.1,2.2,0.3,3.2c0,0,0,0,0,0c-0.2,0.3-0.5,0.5-0.9,0.6h-0.1c-1.2,0.5-2.5,0.7-3.9,0.7
		c-0.3,0-0.6,0-0.9-0.1h-0.5c-0.2,0-0.5-0.1-0.7-0.1c-0.9-0.2-1.7-0.5-2.5-0.9c-2.6-1.4-4.8-3.3-6.5-5.7c-1.6-2.1-3.2-4.3-4.5-6.6
		l-0.5-0.9c-0.1-0.1-0.2-0.4-0.2-0.4c0,0,0-0.1,0-0.1c-0.3-0.3-0.7-0.5-1.1-0.5c-1.2-0.2-2.4-0.3-3.6-0.2l0,0
		c-0.3,0-0.5-0.2-0.6-0.5c0,0,0,0,0,0C172.5,132.5,172.6,132.3,172.7,132.2z"/>
	<path class="st1" d="M191.4,151.8c-0.1-0.3-0.3-0.6-0.4-0.9c-0.2-0.2-0.3-0.3-0.5-0.5c-0.2-0.2-0.3-0.3-0.5-0.4l-1-0.7
		c-0.2-0.1-0.5-0.2-0.7-0.4c-0.6-0.4-1.2-0.7-1.9-1.1s-1.1-0.7-1.7-1l-0.6-0.2c-0.4-0.2-0.8-0.4-1.2-0.5c-0.2-0.1-0.4-0.2-0.5-0.2
		c-0.8-0.4-1.7-0.6-2.6-0.7c-2-0.2-3.9,0.8-4.8,2.5c-0.1,0.1-0.1,0.3,0,0.5c0.2,0.2,0.4,0.3,0.7,0.1l0.1-0.1c1.1-0.8,2.5-1.2,3.8-1
		c0.7,0.1,1.4,0.3,2,0.5c-0.3,0.7-0.5,1.5-0.6,2.2c0,1.4,0.5,2.9,1.5,3.9c1,1.1,2.4,1.7,3.9,1.7c1.5,0,2.9-0.6,3.9-1.7
		c0.2-0.3,0.5-0.6,0.6-1c0.2,0.2,0.3,0.4,0.5,0.6l0,0c0.1,0.2,0.3,0.3,0.5,0.3c0.3-0.1,0.4-0.3,0.4-0.6
		C192,152.7,191.7,152.2,191.4,151.8z M188.1,153.6c-0.6,0-1.2-0.5-1.3-1.1c0.7-0.2,1.3-0.8,1.5-1.5l0.7,0.4c0,0,0.1,0.1,0.1,0.1
		c0.4,0.5,0.4,1.2-0.1,1.7c-0.1,0.1-0.1,0.1-0.2,0.1C188.7,153.4,188.4,153.5,188.1,153.6z M182.3,150.1c0-0.6,0.1-1.2,0.4-1.8
		l1.1,0.4l0.7,0.3c-0.3,0.3-0.5,0.8-0.5,1.2c0,1.2,0.9,2.2,2.1,2.3c0.1,0.7,0.6,1.2,1.2,1.5c-0.3,0.1-0.6,0.1-0.9,0.2
		C184.1,154.2,182.3,152.3,182.3,150.1z"/>
	<path class="st1" d="M203.1,172.3c-1.1-0.9-2.4-1.8-3.7-2.5c-1.3-0.7-2.6-1.3-4-1.9c-1.4-0.5-2.8-1-4.2-1.3c0,0-0.1,0-0.1,0.1
		c0,0,0,0.1,0,0.1c0,0,0,0,0,0c1.3,0.6,2.7,1.1,4,1.8s2.6,1.2,3.9,2c1.3,0.7,2.5,1.5,3.6,2.3c1.2,0.9,2.2,1.9,3.1,3c0,0,0.1,0,0.1,0
		c0,0,0-0.1,0-0.1c0,0,0,0,0,0C205.2,174.4,204.3,173.3,203.1,172.3z"/>
	<path class="st3" d="M201.7,148.1L201.7,148.1L201.7,148.1c0.3-0.1,0.5-0.4,0.7-0.6c0.2-0.3,0.3-0.7,0.3-1c0.1-0.8,0.1-1.5-0.1-2.3
		c0-0.1,0-0.2,0.1-0.2c0.1,0,0.2,0,0.2,0.1c0.2,0.8,0.4,1.6,0.4,2.4c0,0.4-0.1,0.9-0.2,1.3c-0.2,0.5-0.5,0.9-0.9,1.2
		c-0.2,0.1-0.5,0.1-0.6-0.2C201.4,148.6,201.5,148.3,201.7,148.1L201.7,148.1L201.7,148.1z"/>
	<path class="st3" d="M205.4,150.1c0.2-0.7,0.5-1.5,0.9-2.1c0.4-0.7,0.9-1.3,1.6-1.6c0,0,0.1,0,0.1,0c0,0,0,0.1,0,0.1
		c-0.6,0.4-1,1-1.2,1.7c-0.2,0.7-0.4,1.4-0.5,2.1l0,0c0,0.2-0.2,0.5-0.4,0.5c-0.2,0-0.5-0.2-0.5-0.4
		C205.4,150.2,205.4,150.1,205.4,150.1C205.4,150.1,205.4,150.1,205.4,150.1z"/>
	<path class="st0" d="M238.5,167.7c0-1.1-0.2-2.1-0.4-3.2c-0.1-0.4-0.2-0.7-0.3-1c-0.5-1.4-1.2-2.7-2.1-3.9
		c-1.8-2.4-4.3-4.1-7.1-5.1c-1.4-0.5-2.9-0.8-4.3-0.9h-0.4h-0.7c-0.4,0-0.8,0.1-1.1,0.1c-0.7,0.1-1.5,0.1-2.2,0.2
		c-0.8,0.2-1.6,0.5-2.3,0.8c-2,0.7-3.8,1.8-5.3,3.3c-2.1,2-3.5,4.6-3.9,7.5c-0.5,2.8,0,5.7,1.4,8.2c0.3,0.6,0.7,1.2,1.2,1.8
		c0.5,0.6,0.9,1.2,1.4,1.7c0.9,1,2,1.9,3.3,2.6c2,1.1,4.3,1.6,6.6,1.5l-5.3-23.4c0-0.1,0-0.1,0.1-0.2c0.1,0,0.1,0,0.2,0.1
		c0,0,0,0,0,0l5.9,23.4c0,0,0,0,0,0.1c0.2,0,0.4,0,0.6,0h0.1c1.1-0.1,2.1-0.3,3.1-0.6l-3.2-16.2c0-0.1,0-0.1,0.1-0.1c0,0,0,0,0,0
		c0.1,0,0.1,0,0.1,0.1c0,0,0,0,0,0l3.8,16.1c0.9-0.3,1.7-0.6,2.6-1c1.7-1.7,2.9-3.9,3.5-6.2c0.7-2.5,0.8-5.2,0.1-7.7
		c-0.3-1.3-0.7-2.5-1.2-3.8c-0.5-1.2-1.2-2.3-2.1-3.3c-1.7-2-4.4-2.9-6.9-3.5l0,0c-0.1,0-0.2-0.2-0.2-0.3c0-0.1,0.2-0.2,0.3-0.2
		c0,0,0,0,0,0c1.4,0.2,2.7,0.6,4,1.1c1.3,0.5,2.5,1.3,3.5,2.3c1,1,1.8,2.2,2.4,3.4c0.6,1.3,1,2.6,1.4,3.9c0.4,1.3,0.6,2.7,0.6,4.1
		v0.2c0.2-0.4,0.5-0.7,0.8-1C237.1,168.3,237.8,167.9,238.5,167.7z"/>
	<path class="st0" d="M235.1,174.1L235.1,174.1c-0.1,0.3-0.2,0.6-0.2,0.9v0.1c-0.1,0.3-0.2,0.6-0.3,0.8c0,0.1-0.1,0.2-0.1,0.2
		s-0.2,0.4-0.3,0.6s-0.3,0.6-0.4,0.9l0.1-0.1c0.4-0.3,0.7-0.6,1-0.9l0.1-0.1c0.3-0.3,0.6-0.6,0.8-0.9
		C235.4,175.1,235.2,174.6,235.1,174.1z"/>
	<path class="st0" d="M242.4,170.1c-0.6-0.7-1.4-1.1-2.3-1.1c-0.9,0-1.8,0.3-2.4,1c-0.6,0.7-0.9,1.5-0.8,2.4
		c0.1,1.7,1.6,2.9,3.2,2.9c0.7-0.1,1.4-0.4,2-0.8c0.6-0.5,0.9-1.2,1-2C243.1,171.6,242.9,170.8,242.4,170.1z"/>
	<path class="st1" d="M178.6,203.5c2,0,4.1,0.3,6,1c0.9,0.3,1.8,0.8,2.6,1.4c0.4,0.3,0.7,0.6,0.9,1l0.4,0.6c0.2,0.2,0.3,0.5,0.5,0.7
		c1.5,1.7,3.4,3,5.6,3.8c2.1,0.7,4.4,0.9,6.6,0.6c0.3,0,0.4-0.3,0.4-0.5c0-0.2-0.2-0.4-0.4-0.4l0,0c-2-0.3-3.9-0.9-5.8-1.7
		c-0.9-0.4-1.7-0.9-2.5-1.5c-0.8-0.6-1.5-1.2-2.2-1.9c-0.2-0.2-0.4-0.3-0.6-0.5l-0.3-0.2l-0.4-0.3c-0.5-0.4-0.9-0.7-1.5-1
		c-1-0.5-2.1-1-3.2-1.2c-2.1-0.5-4.3-0.7-6.5-0.6c-0.3,0-0.5,0.2-0.5,0.5C178.1,203.3,178.3,203.5,178.6,203.5
		C178.5,203.5,178.5,203.5,178.6,203.5L178.6,203.5z"/>
</g>
<g id="Ebene_2" class="st4">
	<g id="cBtHUd_1_" class="st5">
		<g>
			<path class="st6" d="M317.4,223.6c7.4-5.9,13.7-14.5,21-21.4c2.3-2.2,4.3-5,8.5-4.7c0.9,1.4,1.3,4.5,1.4,7.1
				c1.4-0.2,2.5-2.1,4-2.8c1.2-1.1,1.5-3.1,4.2-2.8c1.3,2,0.7,5.3,0.3,8c-0.4,2.8-0.4,5.5-0.5,7.3c2.3-1.9,4.5-4,6.1-6.6
				c0.6-0.2,2-0.3,2.6,0c0.2,3.1,1.2,6.2,1.6,9.9c1.4,14.5,0.1,28.8-4.3,39.5c-1.7,4.1-3.8,8-5.9,11.8c-2.1,3.9-3.5,8.1-5.9,11.8
				c-11.2,1.1-24.3-0.6-33.6-3.7c-2,5.2-3.8,10.7-7,15c-1.8,2.5-2.3,4.3-4.9,5.7c-0.3,0.1-0.6-0.1-0.9,0.2c-0.5,0.4-1.2,1.3-2.3,0.9
				c-1.3,1.8-3.4,2.8-4.3,5c-6.4,3-14,3.7-21.2,5.6c-3.2-1.5-5,1.1-7.3,2.4c-1.7,0.9-3.6,1.2-5,1.9c-0.9,0.5-1.6,1.9-2.8,2.4
				c-3.6,1.8-7.9,1-12.3,1.6c-2.7,0.3-5.9,1.8-8,1.4c-5.3-0.9-6.8-10.4-0.9-13.6c0.2-1,0.8-1.7,1-2.6c-1.2-0.3-1.8,1.1-3.1,0.5
				c-1.6-0.7-2.3-5.1-2.1-7.8c0.5-7.1,4.9-12.5,7.5-17.7c0.4-0.8,0.4-1.6,0.7-2.3c1.1-2.2,3.8-4.3,6.1-6.1
				c6.8-5.2,16.8-8.7,23.6-12.9c1.4-2.4,1.6-6.7,2.8-9.2c1.4-3.2,4.8-6.4,7.7-8.7c1.4-1.1,3.2-2.1,4.5-3.5c0.7-0.7,1.1-1.8,1.7-3
				c0.6-1,1.6-1.9,1.9-2.8c0.2-0.7,0.2-2,0.3-3c0.2-1,0.6-2,0.7-3c0.4-3.5-0.4-7.2,0-10.8c0.2-1.8,1.2-3.3,1.2-5
				c1.7-2,2.6-4.8,4.5-6.6c0.6-0.5,1.2-0.5,1.9-1c1.1-0.8,1.7-2.1,2.6-3c2.4-2.1,7.4-4.3,11.5-3.1c3.1,0.9,5.7,3.5,7.3,6.6
				C326.1,208.2,319.2,217.9,317.4,223.6z M311.1,228.8c2-5.9,5.3-11.6,7.3-17.7c0.7-2.1,1.8-4.8,1.6-7c-0.3-3.2-4.2-6.7-7.3-6.8
				c-3.7,0-6.4,2.5-8.7,4.5c-1.8,1.6-3.8,3.2-4.7,4.7c-3.1,4.8-1.2,10.9-1.9,17.9c-0.2,2.4-1.1,4.9-2.1,7c-1,2-2.5,5.1-3.8,6.4
				c-4.9,5-11.8,7.9-12.7,15.7C289.9,245.6,300.8,237.6,311.1,228.8z M317.7,229.4c-1.5,3.5-1,7.5-1.7,11.7
				c-0.6,3.1-2.1,6.1-2.3,8.9c0,0.7,0.3,1.4,0.2,2.1c-0.3,2.7-2.2,4.9-2.1,7.7c-5,0.6-8.5,2.8-12.7,4.3c2.8-2.6,6.8-4,11-5.2
				c-0.6-0.6-0.7-1.7-1.4-2.3c-1.5-0.8-3.1-0.2-4.5-0.3c-0.6-0.1-1.3-0.7-2.1-0.9c-0.8-0.1-1.6,0.2-2.1,0c-2.7-1-1.5-5.3-2.8-8
				c-0.8,0.4-1.3,0.2-2.1-0.2c-1.3,1.2-2.7,2.3-4.2,3.3c-1.1,2.9-3.4,5.3-4,8.9c-0.4,2.6-0.4,5-1.7,7.1c-1.6,2.6-4.5,4-5,7.1
				c4.3-2.4,8.7-5,13.2-7.1c1.4-0.6,3-2,4.7-1.4c-1.6,1.5-3.9,1.8-5.7,2.8c-3.8,1.9-7.4,4.2-11,6.3c-1.8,1.1-3.7,2.3-5.6,3.1
				c-4.4,1.9-9.2,3.2-13.6,5.4c-5.1,2.6-10,5.8-15.7,6.6c-1-0.9-0.7-2.8-0.5-3.8c0.8-4,3.7-7.7,4.9-11.3c-3,1.5-4.3,3.7-5.9,7.1
				c-2.6,5.5-6,11.3-5.2,18.8c20.9-8.1,39.2-21,59.5-30.6c8-3.8,18-8.5,28.7-7c1.2-0.8,3.1-0.8,4.5-1.4c1.8-4.9,3.3-10.2,4.7-15.1
				c0.5-1.7,0.7-3.7,1.4-5.2c0.3-0.7,1-1.2,1.2-1.9c0.7-2.1,0.9-4.9,1.4-7.5c1.8-9.2,3-19.2,3-29.4c0-0.1,0-0.2-0.2-0.2
				C334,209.7,328.5,222.1,317.7,229.4z M348.3,208.5c-0.5,1.1-0.1,2.5-0.2,4c-0.3,7.4-2.6,14.6-3.8,20.9c-0.4,2.3-0.6,4.7-1,7.3
				c-0.8,4.5-2.3,8.4-3.8,12.7c-1.2,3.3-3.5,9-5.9,10.6c-4.1,2.6-8.9,0.4-13.9,1.7c0.1,1.1-0.2,2.5,0.2,3.3c0.7,0,1.4,0,1.9,0.2
				c0.2-1.1-0.4-3.1,0.3-3.7c0.2,1.1,0,2.6,0.3,3.7c6.7,0.4,11.4-1.3,16.5-2.6c4.3-7.7,7.2-16.9,9.9-26.6c2.7-9.9,4.3-22.8,3.8-34.6
				c0-0.1,0-0.2-0.2-0.2c0-0.1,0-0.2-0.2-0.2C351.5,206.5,349,206.9,348.3,208.5z M358.9,216.8c-1.2,1.2-2.9,2.5-3.3,3.7
				c-0.6,1.7-0.8,4.3-1,6.3c-1,6.7-2.2,12.6-3.8,18.6c-2.2,8-5.5,15-7.5,22.3c0.2,0.1,1.3-0.5,1.7,0.2c0.5,2.2-1,5.2-3,4.9
				c-1.3-0.2-2-2.9,0-3.5c0,0.9-0.8,1.8,0,2.4c1.6-0.1,1.9-1.5,2.1-3c-0.5-0.4-0.9,0.7-1.7,0.5c-0.2-0.5,0.5-0.9-0.2-0.9
				c-1.1,0.3-2.2,0.6-3.3,0.9c-0.5,1.1-0.7,3.3-1.7,3.3c-0.8-0.8,0.3-1.7,0.3-2.8c-1.1,0.2-2,0.7-3.1,0.9c-1.7,4.7-8.1,2-12.2,1.4
				c-0.1,0.8,0.2,2.1-0.3,2.4c-0.2-0.7-0.2-1.5-0.2-2.4c-0.6-0.3-1.5-0.2-2.3-0.2c0.1,1-0.2,2,0,2.6c8.3,2.4,17.5,2.7,27.6,3.3
				c7.4-12.5,15.2-26,16-45c0.3-6.5-0.1-13.2-0.7-19.3c0-0.1,0-0.2-0.2-0.2C361.4,214.3,360.2,215.6,358.9,216.8z M295.8,246.9
				c0.6,0.4,1.2-0.3,1.7,0.2c1,2.2,0.7,5.7,2.3,7.3c1.4-0.4,3,0.7,4.7,0.9c0.5,0,1.1-0.3,1.6-0.3c2.6,0,4.2,1.5,4.9,3.1
				c0-2,1.9-3.7,2.3-5.9c0.2-0.9-0.1-2,0-3c0.3-2.8,1.5-5.7,1.9-8.3c0.5-2.7,0.1-5.5,0.7-7.8c0.3-1,1.1-1.6,0.9-2.8
				C310.2,236.2,302.8,241.4,295.8,246.9z M262.2,267.6c-2.8,1.4-7.5,2.8-9.4,5c-1.6,1.8-2.1,4.8-3.1,7.1c-1.1,2.5-2.3,5-2.4,7.8
				c5.2-1.2,9.4-3.9,13.7-6.1c4.4-2.3,9.1-4.1,14.4-5.6c0.9-0.9,2.5-1.2,3.7-1.9c0.9-1.3,1.1-2.8,1.9-4.2c0.8-1.5,2.4-2.3,3.3-3.7
				c1.4-2,1.3-4.5,1.7-7.1c0.5-3.1,2.5-5.2,3.3-7.5C282,257.9,272,262.8,262.2,267.6z M317.4,266.4c-0.2,0.7-0.2,1.5-0.2,2.4
				c0.4,0.1,1,0.2,1.9,0.2c0-1.4,0-1.9,0.2-3C318.7,265.7,318.1,266.4,317.4,266.4z M316.5,266.6c-0.4,0.4-1.1,0.5-1.7,0.7
				c0,0.5,0,0.9,0,1.4c0.4,0.3,1.3,0.1,1.9,0.2C316.3,268,317.3,266.8,316.5,266.6z M312.3,268.7c0.7-0.1,1.2,0.1,1.7,0.2
				c-0.1-0.4,0.3-1.4-0.3-1.2C313.5,268.2,312.3,267.8,312.3,268.7z M305.7,271.3c1,0.1,2,0.2,3,0.3
				C309.3,268.6,306.7,270.9,305.7,271.3z M309.4,271.8c0.8,0,1.5,0.3,2.3,0.3c0.1-0.6-0.1-0.8-0.2-1.2c-0.8-0.1-1.4-0.4-2.1-0.5
				C309.4,270.9,309.4,271.3,309.4,271.8z M312,272.3c0.7,0,1,0.3,1.7,0.3c-0.1-0.6,0.3-0.7,0.2-1.4c-0.5-0.2-1.1-0.2-1.7-0.2
				C312.3,271.7,311.9,271.8,312,272.3z M314.4,272.8c0.6,0.2,1.2,0.4,1.9,0.5c-0.1-0.8,0.1-1.3,0.2-1.9c-0.8,0.1-1.1-0.3-1.9-0.2
				C314.7,272,314.3,272.2,314.4,272.8z M328.3,272c1.3,0.3,3.2,0,4-0.7C330.9,271.4,329.6,271.7,328.3,272z M316.7,273.5
				c0.8,0.1,1.2,0.6,2.1,0.5c0-0.8,0-1.6,0-2.4c-0.6,0-1.2,0-1.7,0C316.9,272.3,316.8,272.9,316.7,273.5z M296.7,277.5
				c1.9-0.6,6.3-2.1,8-0.2c-5.2,0.7-9.1,2.6-11.5,6.1c1.3,0.7,3.6,1.4,3.5,3c-6-3.1-18-2.2-18.6,4.9c-0.2,2.5,0.9,3.8,1,6.4
				c2.4-1.2,4.1-3,5.4-5.2c0.4,3.2-3.2,3.8-4.3,6.1c1.5-0.1,3-1.4,4.2-2.4c0.8-0.7,1.2-1.8,1.9-2.4c0-0.6-0.7-1-0.3-1.4
				c4.3-0.8,8.6,1.7,5.6,5.6c3.7-0.7,7.4-1.3,10.4-2.6c0-1.6-0.8-3.2-0.7-4.3c1.2,0.6,1.4,2.3,1.4,4.2c0.5-0.1,0.9-0.4,1.4-0.5
				c-0.1-1.4-1.1-2.8-0.7-4c0.9,0.6,0.9,2.1,1.2,3.3c2.2-3,4.5-5.9,6.3-9.4c-0.5-0.3-1.3-0.4-1.4-1.2c0.8,0,0.9,0.6,1.7,0.5
				c0.9-2.5,1.4-5.3,2.3-7.8C308.8,274.8,298.2,271.1,296.7,277.5z M285.9,282.2c1.9,0,3.7,0.2,5.2,0.5c0.9-2.1,4-3.8,3.5-6.3
				C291.9,278.6,287.7,279.3,285.9,282.2z M268.7,290.8c2.6-0.6,4.5,1.3,6.4-0.2c0-1.9,1.4-3.3,1.7-4.3
				C274.3,287.9,271.2,289.1,268.7,290.8z M260.9,302.7c2.4,0.1,3.6-2,5-2.3c-0.8,0.7-1.4,1.6-2.4,2.1c-0.8,0.4-1.9,0.1-2.4,1
				c3.1,1.6,5.1-2.8,6.8-3.3c2.5-0.8,6.7,2.7,4.7,5.4c-0.1-2.9-1.8-4.2-4.5-4.3c-0.9,1.4-2.3,2.2-3.5,3.3c4,0.6,8,1.9,12.3,1.6
				c1.5-0.9,2.1-3.5,3.7-3.8c-0.3,1.4-1.1,2.2-1.7,3.3c0.9,0,0.9-0.1,1.6-0.2c0.4-1,0.7-3,1.7-2.8c-0.3,0.9-0.8,1.6-0.9,2.6
				c4-0.6,7.7-1.5,11.3-2.6c0.1-0.3-0.5-0.7,0-0.9c0.5-0.1,0.3,0.5,0.9,0.3c0.5-0.6,1.5-1.3,2.3-1.9c0.8-0.6,2.1-1.3,1.7-1.9
				c-5.2,1.2-11.2,1.5-16.7,2.4c-2.9-1.3-5.2-3.2-5.6-7.1C268,290.6,257.1,294.5,260.9,302.7z M283.5,298.4c2.6-0.4,6,0,7.8-1.2
				c0.3-0.7,0.3-2.2,0-3c-1-0.7-2.9-1.4-4.5-0.9C287.2,295.9,284.9,297.1,283.5,298.4z M244.7,306.9c3-0.3,5.2-1.4,7.8-2.1
				c-1.4,1.9-4.2,2.3-7,2.8c1,1,2.9,0.6,4.2,0.2c1.8-0.6,3.5-2.4,4.9-3c0,0.5-0.3,0.4,0,0.7c2.9-0.3,3.8,2.4,4.5,3.7
				c-0.1,0.9-1.2,0.9-1.4,1.7c5.3,0.3,8.7-1.5,11.8-3.7c-3.5-0.4-7.2-2.1-10.1-2.1c-1.1-1.8-1.6-4.1-1.9-6.6
				C251.1,297.9,244.3,299.7,244.7,306.9z M253.7,306.4c-1.2,1.5-3.1,2.1-5,2.8c2.8,0.5,8.3,2.7,9.6-0.3
				C256.8,308,256.3,306.2,253.7,306.4z M252.9,311.8c-2.6-0.2-4.4-0.9-6.1-1.7c-1.3-0.6-2.5-1.7-3.1-1.7c-3.9-0.5-5,6-2.1,8
				c0.8-0.1,1.8-0.3,3-0.3c-0.2-0.7,1.2-0.8,2.3-0.7c1.3-0.9,1.1-3.4,3.1-3.7c-0.5,1.1-1.1,2.1-1.6,3.3c1.8,0,3.4-0.1,5.2-0.2
				c0.6-0.4,0.1-1.9,0.5-2.4c0.5,0.4,0.3,1.4,0.3,2.3c2.3-0.4,5.1-0.5,6.3-2.1C258.2,312.4,255.9,312,252.9,311.8z"/>
			<path class="st7" d="M278.8,253.5c0.9-7.7,7.8-10.6,12.7-15.7c1.3-1.4,2.8-4.4,3.8-6.4c1-2,1.8-4.6,2.1-7
				c0.7-7-1.2-13.1,1.9-17.9c0.9-1.4,2.9-3.1,4.7-4.7c2.3-2,5-4.6,8.7-4.5c3.1,0,7,3.6,7.3,6.8c0.2,2.1-0.9,4.8-1.6,7
				c-2,6.1-5.3,11.8-7.3,17.7C300.8,237.6,289.9,245.6,278.8,253.5z"/>
			<path class="st7" d="M344,201.7c0.1,0,0.2,0.1,0.2,0.2c0,10.2-1.1,20.2-3,29.4c-0.5,2.5-0.7,5.4-1.4,7.5
				c-0.2,0.7-0.9,1.2-1.2,1.9c-0.6,1.5-0.9,3.5-1.4,5.2c-1.4,4.9-2.9,10.2-4.7,15.1c-1.4,0.5-3.3,0.6-4.5,1.4
				c-10.7-1.6-20.7,3.1-28.7,7c-20.3,9.6-38.6,22.5-59.5,30.6c-0.8-7.4,2.6-13.3,5.2-18.8c1.6-3.4,2.9-5.7,5.9-7.1
				c-1.1,3.6-4,7.3-4.9,11.3c-0.2,1-0.4,2.9,0.5,3.8c5.7-0.8,10.5-4.1,15.7-6.6c4.4-2.2,9.1-3.5,13.6-5.4c1.9-0.8,3.7-2.1,5.6-3.1
				c3.5-2.1,7.2-4.4,11-6.3c1.9-0.9,4.1-1.3,5.7-2.8c-1.6-0.6-3.3,0.8-4.7,1.4c-4.5,2.1-9,4.7-13.2,7.1c0.5-3.1,3.4-4.5,5-7.1
				c1.3-2.1,1.3-4.5,1.7-7.1c0.6-3.6,2.9-6,4-8.9c1.5-1,2.8-2.1,4.2-3.3c0.8,0.3,1.3,0.6,2.1,0.2c1.3,2.6,0.1,7,2.8,8
				c0.5,0.2,1.3-0.1,2.1,0c0.8,0.1,1.5,0.8,2.1,0.9c1.4,0.1,3-0.5,4.5,0.3c0.7,0.5,0.8,1.6,1.4,2.3c-4.1,1.2-8.2,2.6-11,5.2
				c4.2-1.5,7.6-3.7,12.7-4.3c-0.1-2.7,1.7-5,2.1-7.7c0.1-0.7-0.2-1.4-0.2-2.1c0.2-2.8,1.7-5.8,2.3-8.9c0.7-4.2,0.3-8.1,1.7-11.7
				C328.5,222.1,334,209.7,344,201.7z M325,256.1c1.8-0.3,2.5-7.6-0.5-7C321.7,249.8,322,256.7,325,256.1z M329.2,255.8
				c1.7-0.3,2.9-5.2,1.2-6.6C327.5,248.7,326,256.3,329.2,255.8z M320.3,249.7c-0.3,0.5-0.7,1.5-0.9,2.6c-0.2,1.7-0.6,4.2,0.5,4.9
				c0.5-2.1,0.7-5.5,0.9-7.5C320.7,249.7,320.5,249.7,320.3,249.7z"/>
			<path class="st7" d="M352.3,205c0.1,0,0.2,0.1,0.2,0.2c0.1,0,0.2,0.1,0.2,0.2c0.5,11.8-1.1,24.7-3.8,34.6
				c-2.7,9.7-5.7,18.9-9.9,26.6c-5.1,1.3-9.8,3-16.5,2.6c-0.3-1-0.2-2.5-0.3-3.7c-0.7,0.6-0.2,2.5-0.3,3.7c-0.5-0.2-1.2-0.2-1.9-0.2
				c-0.4-0.8-0.1-2.2-0.2-3.3c5-1.3,9.8,0.9,13.9-1.7c2.5-1.6,4.7-7.3,5.9-10.6c1.6-4.3,3-8.2,3.8-12.7c0.5-2.6,0.6-5,1-7.3
				c1.2-6.3,3.5-13.5,3.8-20.9c0.1-1.5-0.3-2.9,0.2-4C349,206.9,351.5,206.5,352.3,205z"/>
			<path class="st7" d="M362.2,213.2c0.1,0,0.2,0.1,0.2,0.2c0.6,6.1,1,12.8,0.7,19.3c-0.8,19-8.6,32.6-16,45
				c-10.1-0.6-19.4-0.9-27.6-3.3c-0.2-0.6,0.1-1.6,0-2.6c0.8,0,1.7-0.1,2.3,0.2c0,0.9,0,1.7,0.2,2.4c0.6-0.3,0.3-1.6,0.3-2.4
				c4.1,0.7,10.5,3.3,12.2-1.4c1.1-0.2,2-0.6,3.1-0.9c0,1-1.1,2-0.3,2.8c1.1,0,1.2-2.3,1.7-3.3c1.1-0.3,2.2-0.5,3.3-0.9
				c0.7-0.1-0.1,0.4,0.2,0.9c0.8,0.2,1.3-0.9,1.7-0.5c-0.2,1.5-0.5,2.9-2.1,3c-0.8-0.6,0-1.5,0-2.4c-2,0.6-1.3,3.3,0,3.5
				c2,0.3,3.5-2.7,3-4.9c-0.4-0.6-1.5,0-1.7-0.2c2-7.3,5.3-14.2,7.5-22.3c1.6-6,2.9-11.9,3.8-18.6c0.3-2,0.4-4.5,1-6.3
				c0.4-1.2,2.1-2.5,3.3-3.7C360.2,215.6,361.4,214.3,362.2,213.2z M345.4,273.7c1.5-0.3,2.9-2.4,2.1-3.8c-0.7,0.7-0.9,2.7-1.7,2.6
				c0.3-1,1.2-2.4,1.2-3.1C346.2,270.5,344.6,272.2,345.4,273.7z"/>
			<path class="st7" d="M316.7,230.2c0.3,1.2-0.6,1.7-0.9,2.8c-0.6,2.4-0.2,5.1-0.7,7.8c-0.4,2.7-1.6,5.5-1.9,8.3c-0.1,1,0.2,2,0,3
				c-0.4,2.2-2.3,3.9-2.3,5.9c-0.7-1.7-2.3-3.2-4.9-3.1c-0.5,0-1,0.4-1.6,0.3c-1.7-0.1-3.3-1.3-4.7-0.9c-1.6-1.6-1.2-5.2-2.3-7.3
				c-0.5-0.5-1.2,0.2-1.7-0.2C302.8,241.4,310.2,236.2,316.7,230.2z"/>
			<path class="st6" d="M324.5,249.2c3-0.7,2.3,6.6,0.5,7C322,256.7,321.7,249.8,324.5,249.2z M324.8,255.1c0.9-1.2,1.1-4,0.2-5.2
				C323,250.3,323,254.5,324.8,255.1z"/>
			<path class="st6" d="M330.4,249.2c1.7,1.4,0.4,6.3-1.2,6.6C326,256.3,327.5,248.7,330.4,249.2z M328.5,254.9c1.6-0.5,2-3,1.6-4.9
				C328.3,250.4,328,253.3,328.5,254.9z"/>
			<path class="st6" d="M320.9,249.7c-0.2,1.9-0.3,5.3-0.9,7.5c-1.1-0.7-0.7-3.2-0.5-4.9c0.1-1.1,0.5-2.1,0.9-2.6
				C320.5,249.7,320.7,249.7,320.9,249.7z"/>
			<path class="st7" d="M325,249.9c1,1.2,0.8,4-0.2,5.2C323,254.5,323,250.3,325,249.9z"/>
			<path class="st7" d="M330.1,250.1c0.4,1.9,0,4.4-1.6,4.9C328,253.3,328.3,250.4,330.1,250.1z"/>
			<path class="st7" d="M319.3,266.1c-0.1,1.1-0.1,1.6-0.2,3c-0.9,0-1.5-0.1-1.9-0.2c0-0.9,0-1.7,0.2-2.4
				C318.1,266.4,318.7,265.7,319.3,266.1z"/>
			<path class="st7" d="M316.7,268.8c-0.6-0.1-1.5,0.2-1.9-0.2c0-0.5,0-0.9,0-1.4c0.6-0.2,1.4-0.3,1.7-0.7
				C317.3,266.8,316.3,268,316.7,268.8z"/>
			<path class="st7" d="M313.7,267.6c0.7-0.1,0.2,0.8,0.3,1.2c-0.6,0-1-0.3-1.7-0.2C312.3,267.8,313.5,268.2,313.7,267.6z"/>
			<path class="st6" d="M346.9,269.4c0,0.8-0.9,2.1-1.2,3.1c0.8,0.1,1.1-1.9,1.7-2.6c0.8,1.4-0.6,3.5-2.1,3.8
				C344.6,272.2,346.2,270.5,346.9,269.4z"/>
			<path class="st7" d="M308.7,271.6c-1-0.1-2-0.2-3-0.3C306.7,270.9,309.3,268.6,308.7,271.6z"/>
			<path class="st7" d="M309.4,270.4c0.7,0.2,1.3,0.5,2.1,0.5c0.1,0.4,0.3,0.7,0.2,1.2c-0.8-0.1-1.4-0.3-2.3-0.3
				C309.4,271.3,309.4,270.9,309.4,270.4z"/>
			<path class="st7" d="M312.2,271.1c0.7,0,1.3,0,1.7,0.2c0.1,0.6-0.3,0.7-0.2,1.4c-0.7,0-1-0.3-1.7-0.3
				C311.9,271.8,312.3,271.7,312.2,271.1z"/>
			<path class="st7" d="M314.6,271.3c0.8-0.1,1.1,0.3,1.9,0.2c-0.1,0.6-0.3,1.1-0.2,1.9c-0.7-0.1-1.4-0.3-1.9-0.5
				C314.3,272.2,314.7,272,314.6,271.3z"/>
			<path class="st7" d="M332.3,271.3c-0.8,0.7-2.7,1-4,0.7C329.6,271.7,330.9,271.4,332.3,271.3z"/>
			<path class="st7" d="M317,271.6c0.6,0,1.2,0,1.7,0c0,0.8,0,1.6,0,2.4c-0.9,0-1.3-0.4-2.1-0.5C316.8,272.9,316.9,272.3,317,271.6z
				"/>
			<path class="st7" d="M313.4,276c-0.8,2.5-1.4,5.4-2.3,7.8c-0.8,0.1-1-0.5-1.7-0.5c0.1,0.8,0.8,0.9,1.4,1.2
				c-1.7,3.5-4.1,6.3-6.3,9.4c-0.3-1.2-0.3-2.7-1.2-3.3c-0.4,1.2,0.6,2.6,0.7,4c-0.5,0.2-0.9,0.4-1.4,0.5c0-1.9-0.2-3.5-1.4-4.2
				c-0.1,1.1,0.7,2.8,0.7,4.3c-3,1.3-6.8,1.9-10.4,2.6c3-3.8-1.2-6.4-5.6-5.6c-0.4,0.4,0.4,0.8,0.3,1.4c-0.7,0.7-1.1,1.7-1.9,2.4
				c-1.2,1.1-2.7,2.4-4.2,2.4c1.1-2.3,4.7-2.9,4.3-6.1c-1.3,2.2-3,4-5.4,5.2c-0.1-2.6-1.3-4-1-6.4c0.6-7.1,12.6-8,18.6-4.9
				c0.1-1.6-2.1-2.3-3.5-3c2.3-3.5,6.3-5.4,11.5-6.1c-1.7-1.9-6.1-0.5-8,0.2C298.2,271.1,308.8,274.8,313.4,276z M303.3,293.5
				c-0.1-1.5-0.2-2.9-1.2-3.5C302.6,291.1,302.9,292.4,303.3,293.5z"/>
			<path class="st7" d="M294.6,276.5c0.6,2.4-2.6,4.1-3.5,6.3c-1.5-0.4-3.3-0.5-5.2-0.5C287.7,279.3,291.9,278.6,294.6,276.5z"/>
			<path class="st6" d="M302.1,290.1c1,0.6,1.1,2,1.2,3.5C302.9,292.4,302.6,291.1,302.1,290.1z"/>
			<path class="st7" d="M275.1,293.7c0.3,3.9,2.7,5.8,5.6,7.1c5.5-0.9,11.5-1.3,16.7-2.4c0.3,0.7-1,1.3-1.7,1.9
				c-0.8,0.6-1.8,1.3-2.3,1.9c-0.5,0.1-0.3-0.5-0.9-0.3c-0.5,0.1,0.1,0.6,0,0.9c-3.6,1.1-7.3,2-11.3,2.6c0.1-1,0.6-1.7,0.9-2.6
				c-1-0.2-1.4,1.8-1.7,2.8c-0.6,0.1-0.6,0.2-1.6,0.2c0.6-1.1,1.5-1.9,1.7-3.3c-1.5,0.3-2.2,2.9-3.7,3.8c-4.3,0.4-8.4-1-12.3-1.6
				c1.1-1.1,2.6-1.9,3.5-3.3c2.8,0.2,4.4,1.5,4.5,4.3c2-2.7-2.2-6.2-4.7-5.4c-1.7,0.5-3.7,4.9-6.8,3.3c0.5-0.9,1.6-0.6,2.4-1
				c1-0.5,1.7-1.4,2.4-2.1c-1.5,0.3-2.6,2.4-5,2.3C257.1,294.5,268,290.6,275.1,293.7z"/>
			<path class="st7" d="M286.8,293.4c1.6-0.5,3.5,0.2,4.5,0.9c0.3,0.7,0.3,2.2,0,3c-1.8,1.2-5.2,0.8-7.8,1.2
				C284.9,297.1,287.2,295.9,286.8,293.4z"/>
			<path class="st7" d="M257.6,298.6c0.3,2.6,0.8,4.8,1.9,6.6c2.8,0,6.6,1.7,10.1,2.1c-3.2,2.2-6.5,4-11.8,3.7
				c0.2-0.9,1.3-0.8,1.4-1.7c-0.8-1.3-1.6-3.9-4.5-3.7c-0.3-0.3,0-0.2,0-0.7c-1.4,0.5-3.1,2.4-4.9,3c-1.3,0.4-3.2,0.9-4.2-0.2
				c2.8-0.5,5.6-0.9,7-2.8c-2.6,0.7-4.8,1.8-7.8,2.1C244.3,299.7,251.1,297.9,257.6,298.6z"/>
			<path class="st7" d="M258.2,308.8c-1.3,3.1-6.7,0.8-9.6,0.3c2-0.7,3.9-1.3,5-2.8C256.3,306.2,256.8,308,258.2,308.8z"/>
			<path class="st7" d="M260.7,312.5c-1.2,1.6-3.9,1.6-6.3,2.1c0-0.8,0.1-1.9-0.3-2.3c-0.4,0.6,0.1,2-0.5,2.4
				c-1.9,0.1-3.5,0.2-5.2,0.2c0.4-1.2,1-2.2,1.6-3.3c-2,0.2-1.8,2.7-3.1,3.7c-1.1-0.1-2.4,0-2.3,0.7c-1.2,0.1-2.2,0.3-3,0.3
				c-3-2-1.8-8.5,2.1-8c0.6,0.1,1.8,1.1,3.1,1.7c1.7,0.8,3.5,1.5,6.1,1.7C255.9,312,258.2,312.4,260.7,312.5z"/>
			<path class="st7" d="M289.4,251.6c-0.8,2.3-2.8,4.3-3.3,7.5c-0.4,2.6-0.4,5.1-1.7,7.1c-0.9,1.4-2.5,2.2-3.3,3.7
				c-0.8,1.4-1,2.8-1.9,4.2c-1.2,0.7-2.7,1-3.7,1.9c-5.3,1.5-10,3.3-14.4,5.6c-4.3,2.2-8.6,4.9-13.7,6.1c0.2-2.9,1.3-5.4,2.4-7.8
				c1-2.3,1.6-5.3,3.1-7.1c1.9-2.2,6.6-3.7,9.4-5C272,262.8,282,257.9,289.4,251.6z"/>
			<path class="st7" d="M276.9,286.2c-0.3,1-1.8,2.4-1.7,4.3c-1.9,1.5-3.8-0.4-6.4,0.2C271.2,289.1,274.3,287.9,276.9,286.2z"/>
		</g>
	</g>
</g>
<g id="Ebene_3">
	<g id="F3gnXw_1_">
		<g>
			<path class="st6" d="M65.9,166.9c-1.7-0.2-1.8,1.2-3.3,1.2C62.7,167,65,165.7,65.9,166.9z"/>
			<path class="st6" d="M50.6,166.8c0.1,1.8-3.4,1.4-4.7,2.3C46.4,167.2,49.1,167.6,50.6,166.8z"/>
			<path class="st6" d="M52.7,170.9c-0.8,1.9-3.3,2.3-5,1C47.6,169.4,51.8,169,52.7,170.9z M48.3,171.6c1.4,0.8,2.9,0.4,3.7-0.7
				C51.3,169.9,48.2,169.9,48.3,171.6z"/>
			<path class="st7" d="M66.2,170.4c0,1.5-2.6,2.6-3.5,1.2C62.9,170.2,65.2,169.8,66.2,170.4z"/>
			<path class="st7" d="M90.7,170.1c0.1,0,0.2,0.1,0.2,0.2c-2.2,6.5-3.2,14.3-2.8,22.8c0.4,8.1,1.9,16.8,1.6,24
				c-0.6-2.3-1-4.9-1.4-7.5c-1.1-7.3-3.8-15.6-4.2-23c-0.1-1.7,0.4-3.3-1.4-4.3c-1.1,0.2-2.3,0.2-3.1,0.7c-1.2-2.9-2.1-6.1-3-9.2
				C82.5,174.4,87.5,172.7,90.7,170.1z M80.3,177.2c1.1-0.3,2.9,0.1,3.3-0.9C82.2,176.6,80.8,176,80.3,177.2z M80.3,178.9
				c0.5,0.2,1.1,0.2,1.4,0.5c-0.3,0.9-1.8,0.6-2.4,1.2c1.3,0.9,3.1-0.3,3.5-1.4C82.5,178.7,80.5,178,80.3,178.9z"/>
			<path class="st7" d="M52,170.9c-0.8,1.1-2.3,1.5-3.7,0.7C48.2,169.9,51.3,169.9,52,170.9z"/>
			<path class="st6" d="M66.6,175.8c-0.2-0.4-0.7,0.2-1.2,0c0.5-0.8,2.1-1.3,3.1-1c0,0.3,0,0.6,0,0.9c-0.9,0.5-1.9,1.4-3.1,1
				C65.4,176,66.1,176,66.6,175.8z"/>
			<path class="st7" d="M48.1,176.3c3.3,9,9.8,15.9,14.4,23.8c4.6,8,8.8,16.3,14.1,24c-4.5,1.5-7.8,4.4-11.7,6.6
				c-2.4-2.4-4.8-4.7-7.5-6.8c2.4-0.5,2.8-2.6,4.5-4.3c1.3-1.2,3.1-1.3,3-3.5c-0.2-1.9-3.5-6.4-6.1-6.6c-1-0.1-2.2,0.7-3.3,0.5
				c-1.4-0.2-2.9-1.6-4.7-2.1c-3-0.8-6.1-0.1-9-0.3c2.3,1.1,5.7,0,8.9,0.9c0.4,0.1,1,0.7,1.6,0.9c0.4,0.1,0.9-0.1,1.2,0
				c0.8,0.3,1.1,1.1,1.9,1.2c2.1,0.3,3.3-1,5,0.2c1.6,1,3.5,4.3,3.1,5.7c-0.5,2.1-4,2.3-4.3,5c-1,0.4-1.8,0.8-2.6,1.4
				c-7.5-6.2-15.5-11.9-24.2-17c1.2-0.8,2.5-0.2,3.8-0.5c3.1-0.8,5.7-2.5,8.3-4c1.8-1.8,3.7-3.4,5.9-5.4c1.8-1.6,2.8-1.7,4.2,0.3
				c1.5,2.2,2.7,5.1,4.3,7.7c3,4.8,6.5,9.6,9.4,14.4c1.5,2.5,2.9,5.1,5.2,6.6c0.7-1.6-1.2-2.5-1.9-3.5c-0.9-1.2-1.5-2.6-2.3-3.8
				c-3.1-4.8-6.7-9.4-9.9-14.4c-2-3.2-3.9-6.1-6.1-9.2c-2.7,0.1-3.8,1.8-5.7,3.1c-1.7,1.2-2.6,2.4-4.5,3.3c-0.7,0.3-1,1.2-1.6,1.6
				c-1.2,0.7-4.3,1.8-5.7,2.1c-0.8,0.2-1.6-0.1-2.6,0c-0.8,0.1-1.5,0.6-2.4,0.5c-1.6-0.1-4.1-2.2-5.7-3.1c-4-2.3-7.4-4.2-11.7-5.9
				c-2-0.8-4.4-0.9-6.1-2.6c8.2-1.6,15.1-3,21.6-5.9c3.2-1.4,5.9-3.1,8.7-5c2.8-2,5.6-3.6,8.3-5.4C46.5,176.4,47.4,176.5,48.1,176.3
				z M44,181.4c-1.4,1.6-3.7,2.5-4.5,4.7c2.4-0.8,3.7-2.7,5.4-4.3C44.5,181.7,44.5,181.2,44,181.4z M41.9,188.2c0.6,3.2,7.4-1,4.9-3
				C44.9,184.5,41.5,186,41.9,188.2z M46.4,191.3c-0.1-1.2,2-1.9,2.6-1.2c-0.2,1.6-1.9,2.3-3.5,1.9c0.4,2.4,5-0.2,4.3-2.3
				c-0.1,0-0.2-0.1-0.2-0.3C48.4,188.4,45.1,189.6,46.4,191.3z M38.9,209.4c1.7-0.3,3.7-2.1,3.3-3.3
				C41.5,207.6,39.6,207.8,38.9,209.4z"/>
			<path class="st6" d="M83.6,176.3c-0.4,0.9-2.2,0.6-3.3,0.9C80.8,176,82.2,176.6,83.6,176.3z"/>
			<path class="st6" d="M82.7,179.3c-0.4,1.1-2.2,2.3-3.5,1.4c0.6-0.6,2.1-0.3,2.4-1.2c-0.3-0.3-0.9-0.4-1.4-0.5
				C80.5,178,82.5,178.7,82.7,179.3z"/>
			<path class="st6" d="M44.8,181.7c-1.6,1.6-3,3.5-5.4,4.3c0.9-2.2,3.1-3.1,4.5-4.7C44.5,181.2,44.5,181.7,44.8,181.7z"/>
			<path class="st7" d="M16.3,187.1c-0.2,0.4-0.9,0.3-1.4,0.5c-0.7-1.5-1.1-3.2-1.9-4.5c0.1-0.4,0.5-0.4,0.7-0.7
				C14.9,183.6,15,186,16.3,187.1z"/>
			<path class="st7" d="M12,183.5c0.9,1.2,1.3,2.9,1.9,4.3c-0.4-0.1-0.4,0.3-0.9,0.2c-1.1-0.8-1.4-2.3-2.1-3.5
				C10.9,183.8,11.7,183.9,12,183.5z"/>
			<path class="st7" d="M11.8,188.3c-0.6,0.1-0.9,0.3-1.6,0.3c-0.4-1.1-0.9-2-1.6-2.8C10.3,183.4,11,186.9,11.8,188.3z"/>
			<path class="st6" d="M46.7,185.2c2.6,2-4.3,6.1-4.9,3C41.5,186,44.9,184.5,46.7,185.2z M42.7,188.3c1.4,0.7,3.8-1,3.7-2.4
				C44.4,185.6,42.6,186.5,42.7,188.3z"/>
			<path class="st7" d="M46.4,185.9c0.2,1.4-2.3,3.1-3.7,2.4C42.6,186.5,44.4,185.6,46.4,185.9z"/>
			<path class="st7" d="M8,186.2c0.7,0.8,1.1,1.8,1.6,2.8c-1.2,0.4-2.1,0.9-3.5,0.3c0.2-0.4,0.1-1.1,0.7-1.2c0,0.7,0.3,1,0.7,1.2
				c0.1-0.9-0.2-1.3-0.3-1.9C7.1,186.8,7.8,186.8,8,186.2z"/>
			<path class="st6" d="M49.7,189.4c0,0.2,0,0.3,0.2,0.3c0.7,2.1-3.9,4.7-4.3,2.3c1.6,0.4,3.3-0.4,3.5-1.9c-0.6-0.7-2.7,0-2.6,1.2
				C45.1,189.6,48.4,188.4,49.7,189.4z"/>
			<path class="st6" d="M42.2,206.1c0.4,1.2-1.6,3-3.3,3.3C39.6,207.8,41.5,207.6,42.2,206.1z"/>
			<path class="st6" d="M120.8,221c0.3,0.7-2.3,1.4-3.5,1.7C118.3,222,119.7,221.6,120.8,221z"/>
			<path class="st6" d="M105.2,225.9c2.3,2,3.5,6,3.3,9.9C107.8,232.1,106.7,228.8,105.2,225.9z"/>
			<path class="st6" d="M104.5,226.6c0.5,2.9,0.7,6,1.6,8.5C104.5,233.2,104.4,229.6,104.5,226.6z"/>
			<path class="st7" d="M117.2,234.4c2.1,0.7,5.4,0.4,6.4-1c-1.6,0.5-4.2,1.4-6.1,0.5c0.4-2.6,4.2-4,6.4-2.3
				c0.2,2.3,3.8,5.2,3.7,7.8c-0.2,2.7-4.3,3.3-7.8,2.8C118.3,240.3,116,237.5,117.2,234.4z"/>
			<path class="st6" d="M109.9,244.7c0.8,3.5,2,6.7,3,10.1C111.5,251.7,110.1,248.8,109.9,244.7z"/>
			<path class="st7" d="M120,249.2c2,5.5,4.7,10.3,4.5,17.9c-0.3,0.8-0.9-0.9-1.4-1c-0.2-3.7-0.8-7-3-8.7
				C120.2,254.6,119.5,251.8,120,249.2z"/>
			<path class="st6" d="M76.5,255.1c0.8,0.4,0.6,1.9,0.5,2.6C76.7,257,76.8,255.8,76.5,255.1z"/>
			<path class="st6" d="M116.7,261.5c1.5,1.1,2.4,5,1.4,7C118.3,265.5,117.5,263.5,116.7,261.5z"/>
			<path class="st6" d="M70.4,262.6c-0.9,1-3.9,2.1-5.2,1C67.3,263.7,68.7,263,70.4,262.6z"/>
			<path class="st7" d="M123.1,267.6c3.1,6.3,0.9,17-3.5,21.2c-2.9,2.8-7.8,3.2-12.7,4.5c6.9-2.7,14.9-5.7,15.1-14.6
				c0-1.7-0.2-3.8-0.7-5.4C121.7,271.6,122.5,269.7,123.1,267.6z"/>
			<path class="st6" d="M77.4,278.2c-0.1,1-2.1,1.7-3.7,1.7C74.9,279.4,76.4,279,77.4,278.2z"/>
			<path class="st6" d="M115.1,279.6c0.5,0.9,0.4,2.3,0.5,3.5C115,282.4,115,280.5,115.1,279.6z"/>
			<path class="st7" d="M53.7,182.4c-1-1.8-2.2-3.5-3.1-5.4c2.4,0.2,3.7-0.7,4.3-2.3c-0.9-1.2-3.4-0.3-3.7,0.9
				c0.5,0.1,1.5-0.8,2.6-0.7c-0.5,1.3-2.9,1.3-4,1c-1-1.2-1.4-2.9-2.6-3.8c-2.6,2.4-7,4-10.3,6.1c-2.9,1.9-5.7,3.8-8.9,4.9
				c-3.4-6.6-8.5-11.4-13-16.9c15,3.2,31.9,0,38.1-9.4c4.1,11.5,9.1,23,13.7,34.4c2.3,5.7,4.4,11.5,7.1,16.9
				c2.7,5.3,5,10.8,8.9,14.8c-0.8,0.2-2,0.1-2.8,0.3c-2.4-4.5-6.1-8.4-8.5-13c-1.2-2.4-2-5.1-3.3-7.5c-3.6-6.9-7.5-14.2-10.4-21.9
				c-0.4,0.2,0,1,0.2,1.2C57.3,181.7,54.7,181.6,53.7,182.4z M45.9,169c1.3-0.9,4.8-0.5,4.7-2.3C49.1,167.6,46.4,167.2,45.9,169z
				 M47.6,172c1.8,1.3,4.3,0.8,5-1C51.8,169,47.6,169.4,47.6,172z"/>
			<path class="st7" d="M62.7,173c1.8,0.3,3.9-0.6,4.3-2.3c-0.2-0.7-0.8-1.1-1.4-1.4c-1.6,0.4-3,0.9-4,1.4c-0.9-2.5-2.2-4.5-3.1-7
				c5.8,0.2,8.5-2.7,12.7-4.2c-0.4,3.4,1.6,8.3,1.9,11.1c0,0.4-0.4,1-0.3,1c0.1,0.5,0.9,1,1,1.4c0.7,1.7,1.1,3.8,1.7,5.7
				c3.1,9.2,6,18.4,8.5,28.7c0.7,2.7,1.3,5.8,2.3,8.9c0.7,2.3,1.4,2.7,0.2,4.7c-0.9-0.5-1-1.9-1.7-2.6c-2.5-10.9-6.9-20.4-10.8-29.9
				c-1.3-3.2-2.1-6.6-3.8-9.6c1.4,8.1,5.8,15.1,8.3,23c0.9,2.6,2.1,5.1,2.8,7.7c1.2,4.5,2.2,8.4,4.3,12.2c-3.3-2-4.3-5.9-5.7-9.2
				c-4.5-9.9-9.8-20.3-13.4-31.1c1.1-0.4,2.7-1.2,3.5-0.2c0.8-2-3.2-1-3.7-0.2C65,178.6,64.1,175.6,62.7,173z M62.6,168.2
				c1.5,0,1.6-1.4,3.3-1.2C65,165.7,62.7,167,62.6,168.2z M65.4,176.7c1.2,0.3,2.2-0.6,3.1-1c0-0.3,0-0.6,0-0.9
				c-1.1-0.3-2.6,0.2-3.1,1c0.5,0.2,1-0.4,1.2,0C66.1,176,65.4,176,65.4,176.7z"/>
			<path class="st7" d="M54.4,182.9c0.4-0.9,1.8-0.6,3-0.7c1.9,2,3,6.7,4.3,9.6c1.4,2.9,3,5.3,4,8c-1-1.9-3.9-5.8-5.9-8.7
				C57.9,188.3,55.7,185.7,54.4,182.9z"/>
			<path class="st7" d="M82.2,183.1c0.8-0.1,1.7,1.7,0.9,2.8c-0.1,0.5,0.6,0.2,0.7,0.5c0.3,9.8,3.5,16.8,4.3,26.1
				c-2.5-10.1-5.3-19.8-8.5-29.2c1.3-0.3,1.8,0.3,2.4,0.7C82.4,184.1,82.6,183.2,82.2,183.1z"/>
			<path class="st7" d="M120.7,217.7c-4.5,0.9-7,3.8-9.9,6.3c3.2-1.4,5.4-5.4,10.4-5.6c2.5,2.6,1.4,7.9,2.4,11.8
				c-3.8-1.8-7.6,2-7.5,6.1c0,1.7,1,4.6,2.1,5.7c1.7,1.8,5.7,1.7,8.3,0.5c-1.2,2.3-4.8,3.6-7.8,3c-0.8-4.8-5.5-5.8-6.8-10.3
				c0.4-6.8-3.5-13.8-8.5-14.4c-4.6-0.5-10,1.3-14.6,1.7c0.7-0.9,1.5-1,2.4-1.6c3-2,4.3-5.5,8.3-6.6c3.6-0.9,8.2-1.3,12.2-0.3
				C115.6,215,118.7,215.3,120.7,217.7z M117.4,222.8c1.1-0.4,3.8-1.1,3.5-1.7C119.7,221.6,118.3,222,117.4,222.8z"/>
			<path class="st7" d="M68.1,245.7c2.1,0.3,5-0.2,7.3,0.2c-0.3,0.8-1.4,0.7-1.6,1.6c1.3-0.2,2.1-0.8,3.1-1.2
				c3.9,1.2,8.2,0,12.3-0.9c6.1-1.3,12.1-2.5,17.7-4.5c2.6-1,5-1.9,7.3,0.3c0.9,0.9,2.2,2.9,2.8,4.5c0.8,2.4,2,7,0.7,9.2
				c-0.6,1.1-2.4,0.9-3.1,2.3c-3.6,0.7-7.7,2-12,2.6c-4.3,0.6-8.6,1.6-12.7,1.9c-4.4,0.4-10.4-1.6-12.2,2.4c2-0.2,3.4-0.8,5.7-0.7
				c0.6,0.6-2,0.8-1.9,1.9c1.5,0,2.9-1.5,4.3-1.7c0.9-0.1,1.9,0.2,2.8,0.2c2.3,0,4.8-0.7,7.3-1.2c7.2-1.4,14.8-2,20-5.2
				c6.3,1.1,6.1,11.1,3.8,16.3c-8.2,3.1-20.7,3.5-30.6,4.9c-3.2,0.4-6.6,1.2-8.3,3.5c1.2,0.2,2.6-0.7,4-0.9c0.8,0.2-1,0.6-0.7,1.4
				c1.3,0,2.2-1.5,3.3-1.9c1.2-0.4,3-0.3,4.5-0.5c9.4-1.4,21.2-1.8,28.2-5.9c1.5,7-2.4,13.1-7.7,15.5c-1.9,0.9-4.1,1.4-6.3,2.4
				c-5.2,2.5-13,6-20,6.1c-1.1,0-2.4-0.3-3.3-0.5c-7.5-1.8-12.4-7.7-11-17.4c-1.1-1.6-2.9-1.8-4-3.7c-0.6-0.9-1.1-2.5-1.4-3.7
				c-0.7-3-1.3-6.1-3-8.3c-1.4-1.8-5.2-3.2-6.1-5.6c-0.6-1.7,0-3.9,0.2-5.6c0.2-2,0.4-4.3,0.5-6.6c0.1-2.2-0.7-4.6-0.3-6.4
				c0.9-4.6,7.4-6.5,10.3-9.4c4.6-0.5,6.9-3.8,12-4.2c0.6-0.1,0.8-0.7,1.4-0.9c1.8,0.3,3.6-0.8,4.9-1.2c5.1-2,11.6-2.2,18.1-2.1
				c3.4,3.4,7,7.6,5.9,15c-3.5,2.9-9,3.1-14.3,4.3c-2.4,0.6-5.1,0.8-7.8,1.4c-2.7,0.5-5.3,1.4-7.8,1.4
				C76.5,244.8,71.2,242.5,68.1,245.7z M108.5,235.8c0.2-3.9-1-7.9-3.3-9.9C106.7,228.8,107.8,232.1,108.5,235.8z M106,235.1
				c-0.9-2.5-1.1-5.6-1.6-8.5C104.4,229.6,104.5,233.2,106,235.1z M112.8,254.8c-0.9-3.4-2.1-6.6-3-10.1
				C110.1,248.8,111.5,251.7,112.8,254.8z M77,257.7c0-0.7,0.2-2.2-0.5-2.6C76.8,255.8,76.7,257,77,257.7z M118,268.5
				c1-2,0.1-5.8-1.4-7C117.5,263.5,118.3,265.5,118,268.5z M65.2,263.6c1.3,1.1,4.3-0.1,5.2-1C68.7,263,67.3,263.7,65.2,263.6z
				 M117.5,282.4c-0.3-1.9-0.1-5.1-1.4-5.4C117.2,278.2,116.8,280.9,117.5,282.4z M73.7,280c1.6-0.1,3.5-0.8,3.7-1.7
				C76.4,279,74.9,279.4,73.7,280z M115.6,283.1c-0.1-1.2-0.1-2.6-0.5-3.5C115,280.5,115,282.4,115.6,283.1z"/>
			<path class="st6" d="M116.1,277c1.2,0.3,1.1,3.5,1.4,5.4C116.8,280.9,117.2,278.2,116.1,277z"/>
			<path class="st6" d="M57.4,161.4c4.6-0.5,7.9-2.1,11.5-3.5c1.3-0.5,2.3-1.8,3.8-1.7c1.4,2.2,1,5.1,1.6,7.7
				c0.6,2.5,1.6,4.9,1.9,7.3c5.7,0.3,9.5-1,13-3c1.7-0.9,3.3-2.4,5.4-2.4c0.3,1.6-1.1,2.3-1.6,3.5c-2.3,5.7-2.6,13.8-2.3,21.2
				c0.4,8.5,1.8,16.9,1.7,24.7c1.4-2.7,3.7-3.2,7.8-4c3-0.6,4.7-1.5,8.3-1.2c2.2,0.2,4,1.1,6.3,1.7c3.8,1.1,6.8,1.2,8.7,3.7
				c1.4,1.7,2.5,4.5,2.8,6.6c0.3,2.1-0.5,4.4-0.2,6.8c0.2,1.6,1.2,3.8,1.9,5.2c0.8,1.5,2.4,3.1,2.6,4.5c0.4,2.7-1.3,6.5-3.1,8
				c-1.1,0.8-2.8,1.2-4,1.7c3.1,7.6,5.4,14.8,4.7,24.7c-0.5,6.8-2,15.6-7.7,19.5c-4.3,2.9-10.2,3.4-15.5,5.2
				c-8.2,2.9-20.1,6.5-28.5,1.7c-5.1-2.9-8.9-8.5-7.8-16.7c-0.9-1.3-2.3-1.8-3.3-3.1c-2.5-3.4-2.1-8.7-4.3-12.3
				c-3.8-2.4-8-5.2-7.1-12.2c0.3-2.6,1.2-4.7,1.2-7.1c0-2.2-0.9-4.3-0.7-7c0.4-4.8,4.3-7,7-8.9c-10.9-10.4-25.6-20.2-39.8-28.2
				c-3.7-2.1-7.5-3.8-11.3-5.7c-1.2-0.6-2.1-1.6-3.3-2.3c-1.2-0.6-2.6-0.6-3.3-1.7c-0.8-1.2-0.7-3.3-0.5-4.9
				c0.8-5.7,7.4-7.4,11.7-9.7c1.5,2.1,2.3,4.9,3.5,7.3c2.7-0.6,5-1.6,7.5-2.4c-3-5.3-7.6-10.1-11.8-14.8c-2.4-2.6-4-5.1-7.5-6.4
				c7.1-1.1,12.9,1,19.8,1c11.6,0,19.9-3.2,25.7-9.6C54.5,152,57,159.8,57.4,161.4z M58.1,182.1c-0.2-0.2-0.6-1-0.2-1.2
				c2.9,7.7,6.8,15,10.4,21.9c1.3,2.4,2.1,5.1,3.3,7.5c2.4,4.7,6.2,8.5,8.5,13c0.8-0.2,2-0.1,2.8-0.3c-3.9-4-6.2-9.5-8.9-14.8
				c-2.7-5.4-4.9-11.2-7.1-16.9c-4.6-11.5-9.6-23-13.7-34.4c-6.2,9.4-23.1,12.6-38.1,9.4c4.5,5.4,9.6,10.3,13,16.9
				c3.2-1.1,5.9-3,8.9-4.9c3.2-2.1,7.6-3.7,10.3-6.1c1.2,0.9,1.6,2.7,2.6,3.8c1.1,0.2,3.5,0.3,4-1c-1.1-0.1-2.1,0.8-2.6,0.7
				c0.2-1.2,2.8-2,3.7-0.9c-0.6,1.6-2,2.4-4.3,2.3c1,1.9,2.1,3.6,3.1,5.4C54.7,181.6,57.3,181.7,58.1,182.1z M66.4,181.2
				c0.5-0.8,4.5-1.8,3.7,0.2c-0.8-1-2.4-0.3-3.5,0.2c3.6,10.8,8.9,21.2,13.4,31.1c1.5,3.3,2.4,7.3,5.7,9.2
				c-2.2-3.8-3.1-7.6-4.3-12.2c-0.7-2.6-1.9-5-2.8-7.7c-2.6-7.9-6.9-14.9-8.3-23c1.7,3,2.5,6.4,3.8,9.6c3.9,9.5,8.3,19,10.8,29.9
				c0.7,0.8,0.8,2.1,1.7,2.6c1.3-2,0.5-2.4-0.2-4.7c-1-3.1-1.6-6.1-2.3-8.9c-2.6-10.3-5.4-19.5-8.5-28.7c-0.7-1.9-1-4.1-1.7-5.7
				c-0.2-0.4-0.9-0.9-1-1.4c0,0,0.4-0.7,0.3-1c-0.3-2.9-2.3-7.7-1.9-11.1c-4.2,1.5-6.9,4.3-12.7,4.2c1,2.4,2.3,4.5,3.1,7
				c1-0.5,2.4-1,4-1.4c0.6,0.3,1.2,0.7,1.4,1.4c-0.5,1.6-2.5,2.6-4.3,2.3C64.1,175.6,65,178.6,66.4,181.2z M62.7,171.6
				c0.9,1.4,3.5,0.3,3.5-1.2C65.2,169.8,62.9,170.2,62.7,171.6z M76.7,173.7c0.9,3.2,1.8,6.3,3,9.2c0.8-0.5,2.1-0.5,3.1-0.7
				c1.8,1.1,1.3,2.6,1.4,4.3c0.3,7.4,3.1,15.6,4.2,23c0.4,2.6,0.7,5.1,1.4,7.5c0.3-7.2-1.2-15.9-1.6-24c-0.4-8.5,0.5-16.3,2.8-22.8
				c0-0.1,0-0.2-0.2-0.2C87.5,172.7,82.5,174.4,76.7,173.7z M46.1,176.7c-2.7,1.8-5.6,3.4-8.3,5.4c-2.8,1.9-5.5,3.6-8.7,5
				c-6.5,2.9-13.4,4.3-21.6,5.9c1.7,1.7,4.1,1.8,6.1,2.6c4.3,1.7,7.7,3.6,11.7,5.9c1.6,0.9,4.2,3,5.7,3.1c0.9,0.1,1.7-0.4,2.4-0.5
				c1-0.1,1.8,0.2,2.6,0c1.5-0.3,4.6-1.4,5.7-2.1c0.6-0.4,0.8-1.2,1.6-1.6c1.9-0.9,2.9-2.1,4.5-3.3c2-1.4,3-3.1,5.7-3.1
				c2.2,3.1,4.1,6,6.1,9.2c3.2,5,6.8,9.6,9.9,14.4c0.8,1.2,1.4,2.7,2.3,3.8c0.7,1,2.6,1.9,1.9,3.5c-2.3-1.5-3.7-4.1-5.2-6.6
				c-2.9-4.8-6.4-9.6-9.4-14.4c-1.6-2.6-2.8-5.5-4.3-7.7c-1.4-2-2.4-2-4.2-0.3c-2.2,2-4.1,3.6-5.9,5.4c-2.6,1.5-5.3,3.2-8.3,4
				c-1.3,0.3-2.6-0.3-3.8,0.5c8.6,5.1,16.6,10.8,24.2,17c0.8-0.6,1.6-1,2.6-1.4c0.3-2.7,3.9-2.9,4.3-5c0.3-1.4-1.5-4.7-3.1-5.7
				c-1.8-1.1-3,0.2-5-0.2c-0.8-0.1-1.1-0.9-1.9-1.2c-0.3-0.1-0.9,0.1-1.2,0c-0.6-0.2-1.1-0.7-1.6-0.9c-3.2-0.9-6.6,0.2-8.9-0.9
				c3,0.2,6.1-0.4,9,0.3c1.8,0.5,3.3,1.9,4.7,2.1c1.1,0.2,2.3-0.6,3.3-0.5c2.6,0.2,5.9,4.7,6.1,6.6c0.2,2.1-1.7,2.2-3,3.5
				c-1.7,1.7-2.1,3.8-4.5,4.3c2.7,2.1,5.1,4.4,7.5,6.8c3.8-2.2,7.1-5.1,11.7-6.6c-5.3-7.7-9.4-16-14.1-24
				c-4.6-7.9-11.2-14.9-14.4-23.8C47.4,176.5,46.5,176.4,46.1,176.7z M59.8,191.1c2,2.9,4.9,6.8,5.9,8.7c-1-2.7-2.6-5.1-4-8
				c-1.4-2.9-2.4-7.6-4.3-9.6c-1.2,0.1-2.6-0.2-3,0.7C55.7,185.7,57.9,188.3,59.8,191.1z M13.7,182.4c-0.2,0.3-0.6,0.3-0.7,0.7
				c0.8,1.4,1.2,3,1.9,4.5c0.5-0.2,1.2-0.1,1.4-0.5C15,186,14.9,183.6,13.7,182.4z M82.1,184c-0.7-0.4-1.1-1-2.4-0.7
				c3.2,9.4,6,19.1,8.5,29.2c-0.9-9.3-4-16.3-4.3-26.1c0-0.4-0.8,0-0.7-0.5c0.9-1.1-0.1-2.9-0.9-2.8C82.6,183.2,82.4,184.1,82.1,184
				z M10.9,184.5c0.7,1.1,1,2.7,2.1,3.5c0.5,0.1,0.5-0.2,0.9-0.2c-0.6-1.5-1-3.2-1.9-4.3C11.7,183.9,10.9,183.8,10.9,184.5z
				 M8.7,185.9c0.7,0.8,1.2,1.7,1.6,2.8c0.6,0,1-0.3,1.6-0.3C11,186.9,10.3,183.4,8.7,185.9z M7.1,187.5c0.1,0.6,0.5,1,0.3,1.9
				c-0.4-0.2-0.7-0.6-0.7-1.2c-0.5,0.1-0.5,0.8-0.7,1.2c1.4,0.6,2.3,0.1,3.5-0.3c-0.5-1-0.9-2-1.6-2.8
				C7.8,186.8,7.1,186.8,7.1,187.5z M111.8,214.1c-4-1-8.6-0.6-12.2,0.3c-4.1,1.1-5.3,4.6-8.3,6.6c-0.9,0.6-1.7,0.7-2.4,1.6
				c4.6-0.5,10-2.3,14.6-1.7c5.1,0.6,8.9,7.7,8.5,14.4c1.3,4.4,5.9,5.4,6.8,10.3c3.1,0.6,6.6-0.6,7.8-3c-2.6,1.2-6.6,1.3-8.3-0.5
				c-1.1-1.1-2.1-4-2.1-5.7c-0.1-4.1,3.7-7.9,7.5-6.1c-1.1-3.9,0.1-9.2-2.4-11.8c-5,0.2-7.2,4.1-10.4,5.6c2.9-2.5,5.4-5.4,9.9-6.3
				C118.7,215.3,115.6,215,111.8,214.1z M80.7,244.8c2.5,0,5.1-0.8,7.8-1.4c2.7-0.5,5.4-0.8,7.8-1.4c5.2-1.2,10.7-1.5,14.3-4.3
				c1.1-7.4-2.5-11.5-5.9-15c-6.5-0.1-12.9,0.1-18.1,2.1c-1.2,0.5-3,1.5-4.9,1.2c-0.6,0.2-0.8,0.8-1.4,0.9c-5.1,0.4-7.4,3.7-12,4.2
				c-2.9,2.9-9.4,4.8-10.3,9.4c-0.4,1.9,0.4,4.3,0.3,6.4c-0.1,2.3-0.3,4.6-0.5,6.6c-0.2,1.7-0.8,3.9-0.2,5.6
				c0.9,2.4,4.7,3.7,6.1,5.6c1.7,2.2,2.2,5.4,3,8.3c0.3,1.2,0.8,2.7,1.4,3.7c1.1,1.8,2.9,2.1,4,3.7c-1.5,9.7,3.5,15.6,11,17.4
				c0.9,0.2,2.2,0.5,3.3,0.5c7,0,14.8-3.6,20-6.1c2.1-1,4.3-1.5,6.3-2.4c5.2-2.4,9.2-8.5,7.7-15.5c-7,4.1-18.8,4.5-28.2,5.9
				c-1.6,0.2-3.4,0.1-4.5,0.5c-1.1,0.4-2,1.9-3.3,1.9c-0.3-0.8,1.5-1.2,0.7-1.4c-1.4,0.2-2.8,1.1-4,0.9c1.8-2.3,5.1-3,8.3-3.5
				c9.9-1.4,22.4-1.7,30.6-4.9c2.3-5.3,2.5-15.3-3.8-16.3c-5.2,3.2-12.8,3.8-20,5.2c-2.5,0.5-5,1.2-7.3,1.2c-0.9,0-1.9-0.3-2.8-0.2
				c-1.4,0.2-2.8,1.8-4.3,1.7c-0.1-1.1,2.5-1.4,1.9-1.9c-2.3-0.2-3.8,0.5-5.7,0.7c1.8-4,7.7-2.1,12.2-2.4c4.1-0.3,8.4-1.3,12.7-1.9
				c4.3-0.6,8.4-1.9,12-2.6c0.7-1.3,2.5-1.2,3.1-2.3c1.3-2.2,0.1-6.8-0.7-9.2c-0.6-1.7-1.9-3.6-2.8-4.5c-2.3-2.3-4.7-1.3-7.3-0.3
				c-5.6,2.1-11.7,3.2-17.7,4.5c-4.1,0.9-8.5,2-12.3,0.9c-1,0.4-1.9,1-3.1,1.2c0.2-0.8,1.3-0.8,1.6-1.6c-2.3-0.4-5.2,0.1-7.3-0.2
				C71.2,242.5,76.5,244.8,80.7,244.8z M119.8,242.2c3.6,0.5,7.6-0.1,7.8-2.8c0.2-2.7-3.5-5.5-3.7-7.8c-2.2-1.8-6.1-0.4-6.4,2.3
				c1.9,0.9,4.5,0,6.1-0.5c-1,1.5-4.3,1.7-6.4,1C116,237.5,118.3,240.3,119.8,242.2z M120.1,257.4c2.2,1.7,2.8,5,3,8.7
				c0.5,0.1,1.1,1.8,1.4,1c0.1-7.6-2.6-12.4-4.5-17.9C119.5,251.8,120.2,254.6,120.1,257.4z M121.4,273.4c0.5,1.6,0.7,3.7,0.7,5.4
				c-0.3,8.9-8.2,11.9-15.1,14.6c4.9-1.3,9.7-1.7,12.7-4.5c4.3-4.2,6.6-14.9,3.5-21.2C122.5,269.7,121.7,271.6,121.4,273.4z"/>
		</g>
	</g>
</g>
</svg>
